<svg width="62" height="49" viewBox="0 0 62 49" fill="none" xmlns="http://www.w3.org/2000/svg">
<path d="M8.35156 44.7876C8.03841 45.2362 7.60042 45.5726 7.0376 45.7969C6.479 46.0169 5.82731 46.127 5.08252 46.127C4.32926 46.127 3.66064 45.9513 3.07666 45.6001C2.49268 45.2446 2.03988 44.741 1.71826 44.0894C1.40088 43.4377 1.23796 42.6823 1.22949 41.8232V41.0171C1.22949 39.6248 1.55322 38.5457 2.20068 37.7798C2.85238 37.0138 3.76644 36.6309 4.94287 36.6309C5.90771 36.6309 6.68424 36.8784 7.27246 37.3735C7.86068 37.8644 8.22038 38.5627 8.35156 39.4683H7.13281C6.9043 38.2453 6.17643 37.6338 4.94922 37.6338C4.13249 37.6338 3.51253 37.9215 3.08936 38.4971C2.67041 39.0684 2.45882 39.8978 2.45459 40.9854V41.7407C2.45459 42.7775 2.69157 43.6027 3.16553 44.2163C3.63949 44.8257 4.2806 45.1304 5.08887 45.1304C5.5459 45.1304 5.9458 45.0796 6.28857 44.978C6.63135 44.8765 6.91488 44.7051 7.13916 44.4639V42.3882H5V41.3979H8.35156V44.7876ZM14.4453 46C14.3776 45.8646 14.3226 45.6234 14.2803 45.2764C13.7344 45.8434 13.0827 46.127 12.3252 46.127C11.6481 46.127 11.0916 45.9365 10.6558 45.5557C10.2241 45.1706 10.0083 44.6839 10.0083 44.0957C10.0083 43.3805 10.2791 42.8262 10.8208 42.4326C11.3667 42.0348 12.1326 41.8359 13.1187 41.8359H14.2612V41.2964C14.2612 40.8859 14.1385 40.5601 13.8931 40.3188C13.6476 40.0734 13.2858 39.9507 12.8076 39.9507C12.3887 39.9507 12.0374 40.0565 11.7539 40.2681C11.4704 40.4797 11.3286 40.7357 11.3286 41.0361H10.1479C10.1479 40.6934 10.2686 40.3633 10.5098 40.0459C10.7552 39.7243 11.0853 39.4704 11.5 39.2842C11.9189 39.098 12.3781 39.0049 12.8774 39.0049C13.6688 39.0049 14.2887 39.2038 14.7373 39.6016C15.1859 39.9951 15.4186 40.5389 15.4355 41.2329V44.394C15.4355 45.0246 15.516 45.526 15.6768 45.8984V46H14.4453ZM12.4966 45.105C12.8647 45.105 13.2139 45.0098 13.5439 44.8193C13.874 44.6289 14.1131 44.3813 14.2612 44.0767V42.6675H13.3408C11.902 42.6675 11.1826 43.0885 11.1826 43.9307C11.1826 44.2988 11.3053 44.5866 11.5508 44.7939C11.7962 45.0013 12.1115 45.105 12.4966 45.105ZM18.3872 39.1318L18.4253 39.9951C18.95 39.335 19.6356 39.0049 20.4819 39.0049C21.9334 39.0049 22.6655 39.8237 22.6782 41.4614V46H21.5039V41.4551C21.4997 40.96 21.3854 40.5939 21.1611 40.3569C20.9411 40.12 20.5962 40.0015 20.1265 40.0015C19.7456 40.0015 19.4113 40.103 19.1235 40.3062C18.8358 40.5093 18.6115 40.7759 18.4507 41.106V46H17.2764V39.1318H18.3872ZM28.6895 46C28.6217 45.8646 28.5667 45.6234 28.5244 45.2764C27.9785 45.8434 27.3268 46.127 26.5693 46.127C25.8923 46.127 25.3358 45.9365 24.8999 45.5557C24.4683 45.1706 24.2524 44.6839 24.2524 44.0957C24.2524 43.3805 24.5233 42.8262 25.0649 42.4326C25.6108 42.0348 26.3768 41.8359 27.3628 41.8359H28.5054V41.2964C28.5054 40.8859 28.3826 40.5601 28.1372 40.3188C27.8918 40.0734 27.5299 39.9507 27.0518 39.9507C26.6328 39.9507 26.2816 40.0565 25.998 40.2681C25.7145 40.4797 25.5728 40.7357 25.5728 41.0361H24.3921C24.3921 40.6934 24.5127 40.3633 24.7539 40.0459C24.9993 39.7243 25.3294 39.4704 25.7441 39.2842C26.1631 39.098 26.6222 39.0049 27.1216 39.0049C27.9129 39.0049 28.5329 39.2038 28.9814 39.6016C29.43 39.9951 29.6628 40.5389 29.6797 41.2329V44.394C29.6797 45.0246 29.7601 45.526 29.9209 45.8984V46H28.6895ZM26.7407 45.105C27.1089 45.105 27.458 45.0098 27.7881 44.8193C28.1182 44.6289 28.3573 44.3813 28.5054 44.0767V42.6675H27.585C26.1462 42.6675 25.4268 43.0885 25.4268 43.9307C25.4268 44.2988 25.5495 44.5866 25.7949 44.7939C26.0404 45.0013 26.3556 45.105 26.7407 45.105ZM32.6313 39.1318L32.6694 39.9951C33.1942 39.335 33.8797 39.0049 34.7261 39.0049C36.1776 39.0049 36.9097 39.8237 36.9224 41.4614V46H35.748V41.4551C35.7438 40.96 35.6296 40.5939 35.4053 40.3569C35.1852 40.12 34.8403 40.0015 34.3706 40.0015C33.9897 40.0015 33.6554 40.103 33.3677 40.3062C33.0799 40.5093 32.8556 40.7759 32.6948 41.106V46H31.5205V39.1318H32.6313ZM41.4482 45.1685C41.8672 45.1685 42.2332 45.0415 42.5464 44.7876C42.8595 44.5337 43.033 44.2163 43.0669 43.8354H44.1777C44.1566 44.229 44.0212 44.6035 43.7715 44.959C43.5218 45.3145 43.1875 45.598 42.7686 45.8096C42.3538 46.0212 41.9137 46.127 41.4482 46.127C40.513 46.127 39.7682 45.8159 39.2139 45.1938C38.6637 44.5675 38.3887 43.7127 38.3887 42.6294V42.4326C38.3887 41.764 38.5114 41.1694 38.7568 40.6489C39.0023 40.1284 39.3535 39.7243 39.8105 39.4365C40.2718 39.1488 40.8156 39.0049 41.4419 39.0049C42.2121 39.0049 42.8511 39.2355 43.3589 39.6968C43.8709 40.158 44.1439 40.7568 44.1777 41.4932H43.0669C43.033 41.0488 42.8638 40.6849 42.5591 40.4014C42.2586 40.1136 41.8862 39.9697 41.4419 39.9697C40.8452 39.9697 40.3818 40.1855 40.0518 40.6172C39.7259 41.0446 39.563 41.6646 39.563 42.4771V42.6992C39.563 43.4906 39.7259 44.0999 40.0518 44.5273C40.3776 44.9548 40.8431 45.1685 41.4482 45.1685ZM46.7739 46H45.5996V39.1318H46.7739V46ZM45.5044 37.3101C45.5044 37.1196 45.5615 36.9588 45.6758 36.8276C45.7943 36.6965 45.9678 36.6309 46.1963 36.6309C46.4248 36.6309 46.5983 36.6965 46.7168 36.8276C46.8353 36.9588 46.8945 37.1196 46.8945 37.3101C46.8945 37.5005 46.8353 37.6592 46.7168 37.7861C46.5983 37.9131 46.4248 37.9766 46.1963 37.9766C45.9678 37.9766 45.7943 37.9131 45.6758 37.7861C45.5615 37.6592 45.5044 37.5005 45.5044 37.3101ZM52.8994 46C52.8317 45.8646 52.7767 45.6234 52.7344 45.2764C52.1885 45.8434 51.5368 46.127 50.7793 46.127C50.1022 46.127 49.5457 45.9365 49.1099 45.5557C48.6782 45.1706 48.4624 44.6839 48.4624 44.0957C48.4624 43.3805 48.7332 42.8262 49.2749 42.4326C49.8208 42.0348 50.5868 41.8359 51.5728 41.8359H52.7153V41.2964C52.7153 40.8859 52.5926 40.5601 52.3472 40.3188C52.1017 40.0734 51.7399 39.9507 51.2617 39.9507C50.8428 39.9507 50.4915 40.0565 50.208 40.2681C49.9245 40.4797 49.7827 40.7357 49.7827 41.0361H48.6021C48.6021 40.6934 48.7227 40.3633 48.9639 40.0459C49.2093 39.7243 49.5394 39.4704 49.9541 39.2842C50.373 39.098 50.8322 39.0049 51.3315 39.0049C52.1229 39.0049 52.7428 39.2038 53.1914 39.6016C53.64 39.9951 53.8727 40.5389 53.8896 41.2329V44.394C53.8896 45.0246 53.9701 45.526 54.1309 45.8984V46H52.8994ZM50.9507 45.105C51.3188 45.105 51.668 45.0098 51.998 44.8193C52.3281 44.6289 52.5672 44.3813 52.7153 44.0767V42.6675H51.7949C50.3561 42.6675 49.6367 43.0885 49.6367 43.9307C49.6367 44.2988 49.7594 44.5866 50.0049 44.7939C50.2503 45.0013 50.5656 45.105 50.9507 45.105ZM59.7295 44.1782C59.7295 43.8608 59.6089 43.6154 59.3677 43.4419C59.1307 43.2642 58.7139 43.1118 58.1172 42.9849C57.5247 42.8579 57.0529 42.7056 56.7017 42.5278C56.3547 42.3501 56.0965 42.1385 55.9272 41.8931C55.7622 41.6476 55.6797 41.3556 55.6797 41.0171C55.6797 40.4543 55.9167 39.9782 56.3906 39.5889C56.8688 39.1995 57.4782 39.0049 58.2188 39.0049C58.9974 39.0049 59.6279 39.2059 60.1104 39.6079C60.597 40.0099 60.8403 40.5241 60.8403 41.1504H59.6597C59.6597 40.8288 59.5221 40.5516 59.2471 40.3188C58.9762 40.0861 58.6335 39.9697 58.2188 39.9697C57.7913 39.9697 57.457 40.0628 57.2158 40.249C56.9746 40.4352 56.854 40.6785 56.854 40.979C56.854 41.2625 56.9661 41.4762 57.1904 41.6201C57.4147 41.764 57.8188 41.9015 58.4028 42.0327C58.991 42.1639 59.4671 42.3205 59.8311 42.5024C60.195 42.6844 60.4637 42.9045 60.6372 43.1626C60.8149 43.4165 60.9038 43.7275 60.9038 44.0957C60.9038 44.7093 60.6584 45.2023 60.1675 45.5747C59.6766 45.9429 59.0397 46.127 58.2568 46.127C57.7067 46.127 57.2201 46.0296 56.7969 45.835C56.3737 45.6403 56.0415 45.3695 55.8003 45.0225C55.5633 44.6712 55.4448 44.2925 55.4448 43.8862H56.6191C56.6403 44.2798 56.7969 44.5929 57.0889 44.8257C57.3851 45.0542 57.7744 45.1685 58.2568 45.1685C58.7012 45.1685 59.0566 45.0796 59.3232 44.9019C59.5941 44.7199 59.7295 44.4787 59.7295 44.1782Z" fill="white"/>
<g clip-path="url(#clip0)">
<path d="M40.0625 0H21.9375C20.0413 0 18.5 1.59263 18.5 3.55208V27.4479C18.5 29.4074 20.0413 31 21.9375 31H40.0625C41.9588 31 43.5 29.4074 43.5 27.4479V3.55208C43.5 1.59263 41.9588 0 40.0625 0ZM28.225 24.18C28.5913 24.5585 28.5913 25.172 28.225 25.5505C28.0425 25.739 27.8025 25.8333 27.5625 25.8333C27.3225 25.8333 27.0825 25.739 26.9 25.5492L26 24.6205L25.1 25.5505C24.9175 25.739 24.6775 25.8333 24.4375 25.8333C24.1975 25.8333 23.9575 25.739 23.775 25.5492C23.4088 25.1707 23.4088 24.5572 23.775 24.1787L24.6738 23.25L23.7738 22.32C23.4075 21.9415 23.4075 21.328 23.7738 20.9495C24.14 20.5711 24.7338 20.5711 25.1 20.9495L26 21.8795L26.9 20.9495C27.2663 20.5711 27.86 20.5711 28.2263 20.9495C28.5925 21.328 28.5925 21.9415 28.2263 22.32L27.3263 23.25L28.225 24.18ZM27.5625 16.4688H26.9375V17.1146C26.9375 17.6493 26.5175 18.0833 26 18.0833C25.4825 18.0833 25.0625 17.6493 25.0625 17.1146V16.4688H24.4375C23.92 16.4688 23.5 16.0347 23.5 15.5C23.5 14.9652 23.92 14.5312 24.4375 14.5312H25.0625V13.8854C25.0625 13.3507 25.4825 12.9167 26 12.9167C26.5175 12.9167 26.9375 13.3507 26.9375 13.8854V14.5312H27.5625C28.08 14.5312 28.5 14.9652 28.5 15.5C28.5 16.0347 28.08 16.4688 27.5625 16.4688ZM37.5625 25.8333H34.4375C33.92 25.8333 33.5 25.3993 33.5 24.8646C33.5 24.3298 33.92 23.8958 34.4375 23.8958H37.5625C38.08 23.8958 38.5 24.3298 38.5 24.8646C38.5 25.3993 38.08 25.8333 37.5625 25.8333ZM37.5625 22.6042H34.4375C33.92 22.6042 33.5 22.1702 33.5 21.6354C33.5 21.1007 33.92 20.6667 34.4375 20.6667H37.5625C38.08 20.6667 38.5 21.1007 38.5 21.6354C38.5 22.1702 38.08 22.6042 37.5625 22.6042ZM37.5625 16.7917H34.4375C33.92 16.7917 33.5 16.3577 33.5 15.8229C33.5 15.2882 33.92 14.8542 34.4375 14.8542H37.5625C38.08 14.8542 38.5 15.2882 38.5 15.8229C38.5 16.3577 38.08 16.7917 37.5625 16.7917ZM39.75 8.07292C39.75 9.31938 38.7688 10.3333 37.5625 10.3333H24.4375C23.2313 10.3333 22.25 9.31938 22.25 8.07292V6.13542C22.25 4.88896 23.2313 3.875 24.4375 3.875H37.5625C38.7688 3.875 39.75 4.88896 39.75 6.13542V8.07292Z" fill="white"/>
</g>
<defs>
<clipPath id="clip0">
<rect width="30" height="31" fill="white" transform="translate(16)"/>
</clipPath>
</defs>
</svg>
