<svg width="114" height="49" viewBox="0 0 114 49" fill="none" xmlns="http://www.w3.org/2000/svg">
<path d="M8.17383 43.0674C8.05957 44.0449 7.69775 44.8003 7.08838 45.3335C6.48324 45.8625 5.67708 46.127 4.66992 46.127C3.57812 46.127 2.70215 45.7355 2.04199 44.9526C1.38607 44.1698 1.05811 43.1224 1.05811 41.8105V40.9219C1.05811 40.0628 1.21045 39.3075 1.51514 38.6558C1.82406 38.0041 2.25993 37.5047 2.82275 37.1577C3.38558 36.8065 4.03727 36.6309 4.77783 36.6309C5.7596 36.6309 6.54671 36.9059 7.13916 37.4561C7.73161 38.002 8.0765 38.7594 8.17383 39.7285H6.94873C6.84294 38.9922 6.6123 38.459 6.25684 38.1289C5.9056 37.7988 5.4126 37.6338 4.77783 37.6338C3.99919 37.6338 3.3877 37.9215 2.94336 38.4971C2.50326 39.0726 2.2832 39.8914 2.2832 40.9536V41.8486C2.2832 42.8516 2.49268 43.6493 2.91162 44.2417C3.33057 44.8341 3.91667 45.1304 4.66992 45.1304C5.34701 45.1304 5.8654 44.978 6.2251 44.6733C6.58903 44.3644 6.83024 43.8291 6.94873 43.0674H8.17383ZM13.8994 46C13.8317 45.8646 13.7767 45.6234 13.7344 45.2764C13.1885 45.8434 12.5368 46.127 11.7793 46.127C11.1022 46.127 10.5457 45.9365 10.1099 45.5557C9.67822 45.1706 9.4624 44.6839 9.4624 44.0957C9.4624 43.3805 9.73324 42.8262 10.2749 42.4326C10.8208 42.0348 11.5868 41.8359 12.5728 41.8359H13.7153V41.2964C13.7153 40.8859 13.5926 40.5601 13.3472 40.3188C13.1017 40.0734 12.7399 39.9507 12.2617 39.9507C11.8428 39.9507 11.4915 40.0565 11.208 40.2681C10.9245 40.4797 10.7827 40.7357 10.7827 41.0361H9.60205C9.60205 40.6934 9.72266 40.3633 9.96387 40.0459C10.2093 39.7243 10.5394 39.4704 10.9541 39.2842C11.373 39.098 11.8322 39.0049 12.3315 39.0049C13.1229 39.0049 13.7428 39.2038 14.1914 39.6016C14.64 39.9951 14.8727 40.5389 14.8896 41.2329V44.394C14.8896 45.0246 14.9701 45.526 15.1309 45.8984V46H13.8994ZM11.9507 45.105C12.3188 45.105 12.668 45.0098 12.998 44.8193C13.3281 44.6289 13.5672 44.3813 13.7153 44.0767V42.6675H12.7949C11.3561 42.6675 10.6367 43.0885 10.6367 43.9307C10.6367 44.2988 10.7594 44.5866 11.0049 44.7939C11.2503 45.0013 11.5656 45.105 11.9507 45.105ZM18.3237 37.4688V39.1318H19.606V40.0396H18.3237V44.2988C18.3237 44.5739 18.3809 44.7812 18.4951 44.9209C18.6094 45.0563 18.804 45.124 19.0791 45.124C19.2145 45.124 19.4007 45.0986 19.6377 45.0479V46C19.3288 46.0846 19.0283 46.127 18.7363 46.127C18.2116 46.127 17.8159 45.9683 17.5493 45.6509C17.2827 45.3335 17.1494 44.8828 17.1494 44.2988V40.0396H15.8989V39.1318H17.1494V37.4688H18.3237ZM25.2236 46C25.1559 45.8646 25.1009 45.6234 25.0586 45.2764C24.5127 45.8434 23.861 46.127 23.1035 46.127C22.4264 46.127 21.87 45.9365 21.4341 45.5557C21.0024 45.1706 20.7866 44.6839 20.7866 44.0957C20.7866 43.3805 21.0575 42.8262 21.5991 42.4326C22.145 42.0348 22.911 41.8359 23.897 41.8359H25.0396V41.2964C25.0396 40.8859 24.9168 40.5601 24.6714 40.3188C24.4259 40.0734 24.0641 39.9507 23.5859 39.9507C23.167 39.9507 22.8158 40.0565 22.5322 40.2681C22.2487 40.4797 22.1069 40.7357 22.1069 41.0361H20.9263C20.9263 40.6934 21.0469 40.3633 21.2881 40.0459C21.5335 39.7243 21.8636 39.4704 22.2783 39.2842C22.6973 39.098 23.1564 39.0049 23.6558 39.0049C24.4471 39.0049 25.0671 39.2038 25.5156 39.6016C25.9642 39.9951 26.1969 40.5389 26.2139 41.2329V44.394C26.2139 45.0246 26.2943 45.526 26.4551 45.8984V46H25.2236ZM23.2749 45.105C23.6431 45.105 23.9922 45.0098 24.3223 44.8193C24.6523 44.6289 24.8914 44.3813 25.0396 44.0767V42.6675H24.1191C22.6803 42.6675 21.9609 43.0885 21.9609 43.9307C21.9609 44.2988 22.0837 44.5866 22.3291 44.7939C22.5745 45.0013 22.8898 45.105 23.2749 45.105ZM24.3604 36.25H25.7822L24.0811 38.1162H23.1353L24.3604 36.25ZM29.3306 46H28.1562V36.25H29.3306V46ZM30.9048 42.5024C30.9048 41.8296 31.036 41.2244 31.2983 40.687C31.5649 40.1496 31.9331 39.7349 32.4028 39.4429C32.8768 39.1509 33.4163 39.0049 34.0215 39.0049C34.9567 39.0049 35.7121 39.3286 36.2876 39.9761C36.8674 40.6235 37.1572 41.4847 37.1572 42.5596V42.6421C37.1572 43.3107 37.0282 43.9116 36.77 44.4448C36.5161 44.9738 36.1501 45.3864 35.6719 45.6826C35.1979 45.9788 34.652 46.127 34.0342 46.127C33.1032 46.127 32.3478 45.8032 31.7681 45.1558C31.1925 44.5083 30.9048 43.6514 30.9048 42.585V42.5024ZM32.0854 42.6421C32.0854 43.4038 32.2611 44.0153 32.6123 44.4766C32.9678 44.9378 33.4417 45.1685 34.0342 45.1685C34.6309 45.1685 35.1048 44.9357 35.4561 44.4702C35.8073 44.0005 35.9829 43.3446 35.9829 42.5024C35.9829 41.7492 35.8031 41.1398 35.4434 40.6743C35.0879 40.2046 34.6139 39.9697 34.0215 39.9697C33.4417 39.9697 32.9741 40.2004 32.6187 40.6616C32.2632 41.1229 32.0854 41.783 32.0854 42.6421ZM38.3506 42.5088C38.3506 41.4382 38.5981 40.5876 39.0933 39.957C39.5884 39.3223 40.2443 39.0049 41.061 39.0049C41.8989 39.0049 42.5527 39.3011 43.0225 39.8936L43.0796 39.1318H44.1523V45.835C44.1523 46.7236 43.8879 47.424 43.3589 47.936C42.8341 48.4481 42.1274 48.7041 41.2388 48.7041C40.7437 48.7041 40.2591 48.5983 39.7852 48.3867C39.3112 48.1751 38.9494 47.8853 38.6997 47.5171L39.3091 46.8125C39.8127 47.4346 40.4284 47.7456 41.1562 47.7456C41.7275 47.7456 42.1719 47.5848 42.4893 47.2632C42.8109 46.9416 42.9717 46.4888 42.9717 45.9048V45.3145C42.502 45.8561 41.8608 46.127 41.0483 46.127C40.2443 46.127 39.5926 45.8032 39.0933 45.1558C38.5981 44.5083 38.3506 43.626 38.3506 42.5088ZM39.5312 42.6421C39.5312 43.4165 39.6899 44.0259 40.0073 44.4702C40.3247 44.9103 40.769 45.1304 41.3403 45.1304C42.0809 45.1304 42.6247 44.7939 42.9717 44.1211V40.9854C42.612 40.3294 42.0724 40.0015 41.353 40.0015C40.7817 40.0015 40.3353 40.2236 40.0137 40.668C39.6921 41.1123 39.5312 41.7703 39.5312 42.6421ZM45.6187 42.5024C45.6187 41.8296 45.7498 41.2244 46.0122 40.687C46.2788 40.1496 46.647 39.7349 47.1167 39.4429C47.5907 39.1509 48.1302 39.0049 48.7354 39.0049C49.6706 39.0049 50.4259 39.3286 51.0015 39.9761C51.5812 40.6235 51.8711 41.4847 51.8711 42.5596V42.6421C51.8711 43.3107 51.742 43.9116 51.4839 44.4448C51.23 44.9738 50.8639 45.3864 50.3857 45.6826C49.9118 45.9788 49.3659 46.127 48.748 46.127C47.8171 46.127 47.0617 45.8032 46.4819 45.1558C45.9064 44.5083 45.6187 43.6514 45.6187 42.585V42.5024ZM46.7993 42.6421C46.7993 43.4038 46.9749 44.0153 47.3262 44.4766C47.6816 44.9378 48.1556 45.1685 48.748 45.1685C49.3447 45.1685 49.8187 44.9357 50.1699 44.4702C50.5212 44.0005 50.6968 43.3446 50.6968 42.5024C50.6968 41.7492 50.5169 41.1398 50.1572 40.6743C49.8018 40.2046 49.3278 39.9697 48.7354 39.9697C48.1556 39.9697 47.688 40.2004 47.3325 40.6616C46.9771 41.1229 46.7993 41.783 46.7993 42.6421ZM56.2827 42.5088C56.2827 41.4551 56.5324 40.6087 57.0317 39.9697C57.5311 39.3265 58.1849 39.0049 58.9932 39.0049C59.7972 39.0049 60.4341 39.2799 60.9038 39.8301V36.25H62.0781V46H60.999L60.9419 45.2637C60.4722 45.8392 59.8184 46.127 58.9805 46.127C58.1849 46.127 57.5353 45.8011 57.0317 45.1494C56.5324 44.4977 56.2827 43.6471 56.2827 42.5977V42.5088ZM57.457 42.6421C57.457 43.4207 57.6178 44.0301 57.9395 44.4702C58.2611 44.9103 58.7054 45.1304 59.2725 45.1304C60.0173 45.1304 60.561 44.7961 60.9038 44.1274V40.9727C60.5526 40.3252 60.013 40.0015 59.2852 40.0015C58.7096 40.0015 58.2611 40.2236 57.9395 40.668C57.6178 41.1123 57.457 41.7703 57.457 42.6421ZM66.7563 46.127C65.8254 46.127 65.0679 45.8223 64.4839 45.2129C63.8999 44.5993 63.6079 43.7804 63.6079 42.7563V42.5405C63.6079 41.8592 63.737 41.252 63.9951 40.7188C64.2575 40.1813 64.6214 39.7624 65.0869 39.4619C65.5566 39.1572 66.0645 39.0049 66.6104 39.0049C67.5033 39.0049 68.1973 39.299 68.6924 39.8872C69.1875 40.4754 69.4351 41.3175 69.4351 42.4136V42.9023H64.7822C64.7992 43.5794 64.9959 44.1274 65.3726 44.5464C65.7534 44.9611 66.2358 45.1685 66.8198 45.1685C67.2345 45.1685 67.5858 45.0838 67.8735 44.9146C68.1613 44.7453 68.4131 44.521 68.6289 44.2417L69.3462 44.8003C68.7707 45.6847 67.9074 46.127 66.7563 46.127ZM66.6104 39.9697C66.1364 39.9697 65.7386 40.1432 65.417 40.4902C65.0954 40.833 64.8965 41.3154 64.8203 41.9375H68.2607V41.8486C68.2269 41.252 68.0661 40.7907 67.7783 40.4648C67.4906 40.1348 67.1012 39.9697 66.6104 39.9697ZM74.6021 46V40.0396H73.5166V39.1318H74.6021V38.4272C74.6021 37.6909 74.7988 37.1217 75.1924 36.7197C75.5859 36.3177 76.1424 36.1167 76.8618 36.1167C77.1326 36.1167 77.4014 36.1527 77.668 36.2246L77.6045 37.1768C77.4056 37.1387 77.194 37.1196 76.9697 37.1196C76.5889 37.1196 76.2948 37.2318 76.0874 37.4561C75.88 37.6761 75.7764 37.9935 75.7764 38.4082V39.1318H77.2427V40.0396H75.7764V46H74.6021ZM78.2329 42.5024C78.2329 41.8296 78.3641 41.2244 78.6265 40.687C78.8931 40.1496 79.2612 39.7349 79.731 39.4429C80.2049 39.1509 80.7445 39.0049 81.3496 39.0049C82.2848 39.0049 83.0402 39.3286 83.6157 39.9761C84.1955 40.6235 84.4854 41.4847 84.4854 42.5596V42.6421C84.4854 43.3107 84.3563 43.9116 84.0981 44.4448C83.8442 44.9738 83.4782 45.3864 83 45.6826C82.526 45.9788 81.9801 46.127 81.3623 46.127C80.4313 46.127 79.6759 45.8032 79.0962 45.1558C78.5207 44.5083 78.2329 43.6514 78.2329 42.585V42.5024ZM79.4136 42.6421C79.4136 43.4038 79.5892 44.0153 79.9404 44.4766C80.2959 44.9378 80.7699 45.1685 81.3623 45.1685C81.959 45.1685 82.4329 44.9357 82.7842 44.4702C83.1354 44.0005 83.311 43.3446 83.311 42.5024C83.311 41.7492 83.1312 41.1398 82.7715 40.6743C82.416 40.2046 81.9421 39.9697 81.3496 39.9697C80.7699 39.9697 80.3022 40.2004 79.9468 40.6616C79.5913 41.1229 79.4136 41.783 79.4136 42.6421ZM87.0688 39.1318L87.1069 39.9951C87.6317 39.335 88.3172 39.0049 89.1636 39.0049C90.6151 39.0049 91.3472 39.8237 91.3599 41.4614V46H90.1855V41.4551C90.1813 40.96 90.0671 40.5939 89.8428 40.3569C89.6227 40.12 89.2778 40.0015 88.8081 40.0015C88.4272 40.0015 88.0929 40.103 87.8052 40.3062C87.5174 40.5093 87.2931 40.7759 87.1323 41.106V46H85.958V39.1318H87.0688ZM92.8452 42.5088C92.8452 41.4551 93.0949 40.6087 93.5942 39.9697C94.0936 39.3265 94.7474 39.0049 95.5557 39.0049C96.3597 39.0049 96.9966 39.2799 97.4663 39.8301V36.25H98.6406V46H97.5615L97.5044 45.2637C97.0347 45.8392 96.3809 46.127 95.543 46.127C94.7474 46.127 94.0978 45.8011 93.5942 45.1494C93.0949 44.4977 92.8452 43.6471 92.8452 42.5977V42.5088ZM94.0195 42.6421C94.0195 43.4207 94.1803 44.0301 94.502 44.4702C94.8236 44.9103 95.2679 45.1304 95.835 45.1304C96.5798 45.1304 97.1235 44.7961 97.4663 44.1274V40.9727C97.1151 40.3252 96.5755 40.0015 95.8477 40.0015C95.2721 40.0015 94.8236 40.2236 94.502 40.668C94.1803 41.1123 94.0195 41.7703 94.0195 42.6421ZM100.158 42.5024C100.158 41.8296 100.289 41.2244 100.551 40.687C100.818 40.1496 101.186 39.7349 101.656 39.4429C102.13 39.1509 102.669 39.0049 103.274 39.0049C104.21 39.0049 104.965 39.3286 105.541 39.9761C106.12 40.6235 106.41 41.4847 106.41 42.5596V42.6421C106.41 43.3107 106.281 43.9116 106.023 44.4448C105.769 44.9738 105.403 45.3864 104.925 45.6826C104.451 45.9788 103.905 46.127 103.287 46.127C102.356 46.127 101.601 45.8032 101.021 45.1558C100.445 44.5083 100.158 43.6514 100.158 42.585V42.5024ZM101.338 42.6421C101.338 43.4038 101.514 44.0153 101.865 44.4766C102.221 44.9378 102.695 45.1685 103.287 45.1685C103.884 45.1685 104.358 44.9357 104.709 44.4702C105.06 44.0005 105.236 43.3446 105.236 42.5024C105.236 41.7492 105.056 41.1398 104.696 40.6743C104.341 40.2046 103.867 39.9697 103.274 39.9697C102.695 39.9697 102.227 40.2004 101.872 40.6616C101.516 41.1229 101.338 41.783 101.338 42.6421ZM111.882 44.1782C111.882 43.8608 111.761 43.6154 111.52 43.4419C111.283 43.2642 110.866 43.1118 110.27 42.9849C109.677 42.8579 109.205 42.7056 108.854 42.5278C108.507 42.3501 108.249 42.1385 108.08 41.8931C107.915 41.6476 107.832 41.3556 107.832 41.0171C107.832 40.4543 108.069 39.9782 108.543 39.5889C109.021 39.1995 109.631 39.0049 110.371 39.0049C111.15 39.0049 111.78 39.2059 112.263 39.6079C112.749 40.0099 112.993 40.5241 112.993 41.1504H111.812C111.812 40.8288 111.674 40.5516 111.399 40.3188C111.129 40.0861 110.786 39.9697 110.371 39.9697C109.944 39.9697 109.609 40.0628 109.368 40.249C109.127 40.4352 109.006 40.6785 109.006 40.979C109.006 41.2625 109.118 41.4762 109.343 41.6201C109.567 41.764 109.971 41.9015 110.555 42.0327C111.143 42.1639 111.619 42.3205 111.983 42.5024C112.347 42.6844 112.616 42.9045 112.79 43.1626C112.967 43.4165 113.056 43.7275 113.056 44.0957C113.056 44.7093 112.811 45.2023 112.32 45.5747C111.829 45.9429 111.192 46.127 110.409 46.127C109.859 46.127 109.372 46.0296 108.949 45.835C108.526 45.6403 108.194 45.3695 107.953 45.0225C107.716 44.6712 107.597 44.2925 107.597 43.8862H108.771C108.793 44.2798 108.949 44.5929 109.241 44.8257C109.537 45.0542 109.927 45.1685 110.409 45.1685C110.854 45.1685 111.209 45.0796 111.476 44.9019C111.746 44.7199 111.882 44.4787 111.882 44.1782Z" fill="#056DAE"/>
<path d="M52 22.0001H45V29.0001H52V22.0001Z" fill="#00BDF2"/>
<path d="M52 11H45V18H52V11Z" fill="#00BDF2"/>
<path d="M52 0H45V7H52V0Z" fill="#00BDF2"/>
<path d="M63 22.0001H56V29.0001H63V22.0001Z" fill="#00BDF2"/>
<path d="M63 11H56V18H63V11Z" fill="#00BDF2"/>
<path d="M63 0H56V7H63V0Z" fill="#00BDF2"/>
<path d="M74 22.0001H67V29.0001H74V22.0001Z" fill="#00BDF2"/>
<path d="M74 11H67V18H74V11Z" fill="#00BDF2"/>
<path d="M74 0H67V7H74V0Z" fill="#00BDF2"/>
</svg>
