<svg width="19" height="19" viewBox="0 0 19 19" fill="none" xmlns="http://www.w3.org/2000/svg">
<path d="M9.42308 18.8889C14.6273 18.8889 18.8462 14.6605 18.8462 9.44444C18.8462 4.22842 14.6273 0 9.42308 0C4.21885 0 0 4.22842 0 9.44444C0 14.6605 4.21885 18.8889 9.42308 18.8889Z" fill="#FFE14D"/>
<path d="M18.8461 9.44444C18.8461 4.23676 14.6189 0 9.42303 0V18.8889C14.6189 18.8889 18.8461 14.6521 18.8461 9.44444Z" fill="#FFBB33"/>
<path d="M9.4231 16.6384C5.4654 16.6384 2.24536 13.4111 2.24536 9.44444C2.24536 5.47777 5.4654 2.25043 9.4231 2.25043C13.3808 2.25043 16.6008 5.47777 16.6008 9.44444C16.6008 13.4111 13.3808 16.6384 9.4231 16.6384Z" fill="#FFBB33"/>
<path d="M16.6008 9.44444C16.6008 5.47777 13.3808 2.25043 9.4231 2.25043V16.6384C13.3808 16.6384 16.6008 13.4111 16.6008 9.44444Z" fill="#E68A2E"/>
<path d="M9.97515 8.93055V6.74261C10.6102 6.89878 11.0794 7.30828 11.0794 7.77899C11.0794 8.08487 11.3264 8.33238 11.6316 8.33238C11.9367 8.33238 12.1837 8.08487 12.1837 7.77899C12.1837 6.70978 11.234 5.8158 9.97515 5.61024V5.01206C9.97515 4.70619 9.7282 4.45868 9.42302 4.45868C9.11784 4.45868 8.87089 4.70619 8.87089 5.01206V5.61024C7.61206 5.8158 6.66235 6.70978 6.66235 7.77899C6.66235 8.84821 7.61206 9.74218 8.87089 9.94775V12.1357C8.23586 11.9795 7.76662 11.57 7.76662 11.0993C7.76662 10.7934 7.51967 10.5459 7.21449 10.5459C6.9093 10.5459 6.66235 10.7934 6.66235 11.0993C6.66235 12.1685 7.61206 13.0625 8.87089 13.2681V13.8716C8.87089 14.1775 9.11784 14.425 9.42302 14.425C9.7282 14.425 9.97515 14.1775 9.97515 13.8716V13.2681C11.234 13.0625 12.1837 12.1685 12.1837 11.0993C12.1837 10.0301 11.234 9.13608 9.97515 8.93055V8.93055ZM7.76662 7.77899C7.76662 7.30828 8.23586 6.89878 8.87089 6.74261V8.81537C8.23586 8.65917 7.76662 8.24966 7.76662 7.77899V7.77899ZM9.97515 12.1357V10.0629C10.6102 10.2191 11.0794 10.6286 11.0794 11.0993C11.0794 11.57 10.6102 11.9795 9.97515 12.1357Z" fill="#FFE14D"/>
<path d="M9.97523 13.8716V13.2681C11.2341 13.0625 12.1838 12.1685 12.1838 11.0993C12.1838 10.0301 11.2341 9.13611 9.97523 8.93055V6.74261C10.6103 6.89878 11.0795 7.30828 11.0795 7.77899C11.0795 8.08487 11.3264 8.33238 11.6316 8.33238C11.9368 8.33238 12.1838 8.08487 12.1838 7.77899C12.1838 6.70978 11.2341 5.8158 9.97523 5.61024V5.01206C9.97523 4.70619 9.72828 4.45868 9.4231 4.45868V14.425C9.72828 14.425 9.97523 14.1775 9.97523 13.8716ZM9.97523 10.0629C10.6103 10.2191 11.0795 10.6286 11.0795 11.0993C11.0795 11.57 10.6103 11.9795 9.97523 12.1356V10.0629Z" fill="#FFBB33"/>
</svg>
