<svg width="285" height="23" viewBox="0 0 285 23" fill="none" xmlns="http://www.w3.org/2000/svg">
<path d="M56.8203 11.3203H58.4609L58.5879 21.5156H56.6934L56.8203 11.3203ZM58.6562 8.27344C58.6562 8.56641 58.5651 8.8138 58.3828 9.01562C58.207 9.21745 57.9434 9.31836 57.5918 9.31836C57.2402 9.31836 56.9733 9.21745 56.791 9.01562C56.6087 8.8138 56.5176 8.56641 56.5176 8.27344C56.5176 7.98047 56.6087 7.73633 56.791 7.54102C56.9733 7.3457 57.2402 7.24805 57.5918 7.24805C57.9434 7.24805 58.207 7.3457 58.3828 7.54102C58.5651 7.73633 58.6562 7.98047 58.6562 8.27344ZM77.1523 13.4883C76.9766 14.9922 76.4199 16.1543 75.4824 16.9746C74.5514 17.7884 73.3112 18.1953 71.7617 18.1953C70.082 18.1953 68.7344 17.5931 67.7188 16.3887C66.7096 15.1842 66.2051 13.5729 66.2051 11.5547V10.1875C66.2051 8.86589 66.4395 7.70378 66.9082 6.70117C67.3835 5.69857 68.054 4.93034 68.9199 4.39648C69.7858 3.85612 70.7884 3.58594 71.9277 3.58594C73.4382 3.58594 74.6491 4.00911 75.5605 4.85547C76.472 5.69531 77.0026 6.86068 77.1523 8.35156H75.2676C75.1048 7.21875 74.75 6.39844 74.2031 5.89062C73.6628 5.38281 72.9043 5.12891 71.9277 5.12891C70.7298 5.12891 69.7891 5.57161 69.1055 6.45703C68.4284 7.34245 68.0898 8.60221 68.0898 10.2363V11.6133C68.0898 13.1562 68.4121 14.3835 69.0566 15.2949C69.7012 16.2064 70.6029 16.6621 71.7617 16.6621C72.8034 16.6621 73.6009 16.4277 74.1543 15.959C74.7142 15.4837 75.0853 14.6602 75.2676 13.4883H77.1523ZM83.959 12.6191C83.959 11.584 84.1608 10.653 84.5645 9.82617C84.9746 8.99935 85.541 8.36133 86.2637 7.91211C86.9928 7.46289 87.8229 7.23828 88.7539 7.23828C90.1927 7.23828 91.3548 7.73633 92.2402 8.73242C93.1322 9.72852 93.5781 11.0534 93.5781 12.707V12.834C93.5781 13.8626 93.3796 14.7871 92.9824 15.6074C92.5918 16.4212 92.0286 17.056 91.293 17.5117C90.5638 17.9674 89.724 18.1953 88.7734 18.1953C87.3411 18.1953 86.179 17.6973 85.2871 16.7012C84.4017 15.7051 83.959 14.3867 83.959 12.7461V12.6191ZM85.7754 12.834C85.7754 14.0059 86.0456 14.9466 86.5859 15.6562C87.1328 16.3659 87.862 16.7207 88.7734 16.7207C89.6914 16.7207 90.4206 16.3626 90.9609 15.6465C91.5013 14.9238 91.7715 13.9147 91.7715 12.6191C91.7715 11.4603 91.4948 10.5228 90.9414 9.80664C90.3945 9.08398 89.6654 8.72266 88.7539 8.72266C87.862 8.72266 87.1426 9.07747 86.5957 9.78711C86.0488 10.4967 85.7754 11.5124 85.7754 12.834ZM102.553 7.43359L102.611 8.76172C103.419 7.74609 104.473 7.23828 105.775 7.23828C108.008 7.23828 109.135 8.49805 109.154 11.0176V18H107.348V11.0078C107.341 10.2461 107.165 9.68294 106.82 9.31836C106.482 8.95378 105.951 8.77148 105.229 8.77148C104.643 8.77148 104.128 8.92773 103.686 9.24023C103.243 9.55273 102.898 9.96289 102.65 10.4707V18H100.844V7.43359H102.553ZM116.4 12.6191C116.4 11.584 116.602 10.653 117.006 9.82617C117.416 8.99935 117.982 8.36133 118.705 7.91211C119.434 7.46289 120.264 7.23828 121.195 7.23828C122.634 7.23828 123.796 7.73633 124.682 8.73242C125.574 9.72852 126.02 11.0534 126.02 12.707V12.834C126.02 13.8626 125.821 14.7871 125.424 15.6074C125.033 16.4212 124.47 17.056 123.734 17.5117C123.005 17.9674 122.165 18.1953 121.215 18.1953C119.783 18.1953 118.62 17.6973 117.729 16.7012C116.843 15.7051 116.4 14.3867 116.4 12.7461V12.6191ZM118.217 12.834C118.217 14.0059 118.487 14.9466 119.027 15.6562C119.574 16.3659 120.303 16.7207 121.215 16.7207C122.133 16.7207 122.862 16.3626 123.402 15.6465C123.943 14.9238 124.213 13.9147 124.213 12.6191C124.213 11.4603 123.936 10.5228 123.383 9.80664C122.836 9.08398 122.107 8.72266 121.195 8.72266C120.303 8.72266 119.584 9.07747 119.037 9.78711C118.49 10.4967 118.217 11.5124 118.217 12.834ZM137.523 16.7207C138.168 16.7207 138.731 16.5254 139.213 16.1348C139.695 15.7441 139.962 15.2559 140.014 14.6699H141.723C141.69 15.2754 141.482 15.8516 141.098 16.3984C140.714 16.9453 140.199 17.3815 139.555 17.707C138.917 18.0326 138.24 18.1953 137.523 18.1953C136.085 18.1953 134.939 17.7168 134.086 16.7598C133.24 15.7962 132.816 14.4811 132.816 12.8145V12.5117C132.816 11.4831 133.005 10.5684 133.383 9.76758C133.76 8.9668 134.301 8.34505 135.004 7.90234C135.714 7.45964 136.55 7.23828 137.514 7.23828C138.699 7.23828 139.682 7.5931 140.463 8.30273C141.251 9.01237 141.671 9.93359 141.723 11.0664H140.014C139.962 10.3828 139.701 9.82292 139.232 9.38672C138.77 8.94401 138.197 8.72266 137.514 8.72266C136.596 8.72266 135.883 9.05469 135.375 9.71875C134.874 10.3763 134.623 11.3301 134.623 12.5801V12.9219C134.623 14.1393 134.874 15.0768 135.375 15.7344C135.876 16.3919 136.592 16.7207 137.523 16.7207ZM153.139 18.1953C151.706 18.1953 150.541 17.7266 149.643 16.7891C148.744 15.8451 148.295 14.5853 148.295 13.0098V12.6777C148.295 11.6296 148.493 10.6953 148.891 9.875C149.294 9.04818 149.854 8.40365 150.57 7.94141C151.293 7.47266 152.074 7.23828 152.914 7.23828C154.288 7.23828 155.355 7.69076 156.117 8.5957C156.879 9.50065 157.26 10.7962 157.26 12.4824V13.2344H150.102C150.128 14.276 150.43 15.1191 151.01 15.7637C151.596 16.4017 152.338 16.7207 153.236 16.7207C153.874 16.7207 154.415 16.5905 154.857 16.3301C155.3 16.0697 155.688 15.7246 156.02 15.2949L157.123 16.1543C156.238 17.515 154.91 18.1953 153.139 18.1953ZM152.914 8.72266C152.185 8.72266 151.573 8.98958 151.078 9.52344C150.583 10.0508 150.277 10.793 150.16 11.75H155.453V11.6133C155.401 10.6953 155.154 9.98568 154.711 9.48438C154.268 8.97656 153.669 8.72266 152.914 8.72266ZM176.02 7.43359L176.068 8.60547C176.843 7.69401 177.888 7.23828 179.203 7.23828C180.681 7.23828 181.687 7.80469 182.221 8.9375C182.572 8.42969 183.028 8.01953 183.588 7.70703C184.154 7.39453 184.822 7.23828 185.59 7.23828C187.908 7.23828 189.086 8.46549 189.125 10.9199V18H187.318V11.0273C187.318 10.2721 187.146 9.70898 186.801 9.33789C186.456 8.96029 185.876 8.77148 185.062 8.77148C184.392 8.77148 183.835 8.97331 183.393 9.37695C182.95 9.77409 182.693 10.3112 182.621 10.9883V18H180.805V11.0762C180.805 9.53971 180.053 8.77148 178.549 8.77148C177.364 8.77148 176.553 9.27604 176.117 10.2852V18H174.311V7.43359H176.02ZM203.383 18C203.279 17.7917 203.194 17.4206 203.129 16.8867C202.289 17.7591 201.286 18.1953 200.121 18.1953C199.079 18.1953 198.223 17.9023 197.553 17.3164C196.889 16.724 196.557 15.9753 196.557 15.0703C196.557 13.9701 196.973 13.1172 197.807 12.5117C198.646 11.8997 199.825 11.5938 201.342 11.5938H203.1V10.7637C203.1 10.1322 202.911 9.63086 202.533 9.25977C202.156 8.88216 201.599 8.69336 200.863 8.69336C200.219 8.69336 199.678 8.85612 199.242 9.18164C198.806 9.50716 198.588 9.90104 198.588 10.3633H196.771C196.771 9.83594 196.957 9.32812 197.328 8.83984C197.706 8.34505 198.214 7.95443 198.852 7.66797C199.496 7.38151 200.202 7.23828 200.971 7.23828C202.188 7.23828 203.142 7.54427 203.832 8.15625C204.522 8.76172 204.88 9.59831 204.906 10.666V15.5293C204.906 16.4993 205.03 17.2708 205.277 17.8438V18H203.383ZM200.385 16.623C200.951 16.623 201.488 16.4766 201.996 16.1836C202.504 15.8906 202.872 15.5098 203.1 15.041V12.873H201.684C199.47 12.873 198.363 13.5208 198.363 14.8164C198.363 15.3828 198.552 15.8255 198.93 16.1445C199.307 16.4635 199.792 16.623 200.385 16.623ZM202.055 3H204.242L201.625 5.87109H200.17L202.055 3ZM218.891 15.1973C218.891 14.709 218.705 14.3314 218.334 14.0645C217.969 13.791 217.328 13.5566 216.41 13.3613C215.499 13.166 214.773 12.9316 214.232 12.6582C213.699 12.3848 213.301 12.0592 213.041 11.6816C212.787 11.304 212.66 10.8548 212.66 10.334C212.66 9.4681 213.025 8.73568 213.754 8.13672C214.49 7.53776 215.427 7.23828 216.566 7.23828C217.764 7.23828 218.734 7.54753 219.477 8.16602C220.225 8.78451 220.6 9.57552 220.6 10.5391H218.783C218.783 10.0443 218.572 9.61784 218.148 9.25977C217.732 8.90169 217.204 8.72266 216.566 8.72266C215.909 8.72266 215.395 8.86589 215.023 9.15234C214.652 9.4388 214.467 9.81315 214.467 10.2754C214.467 10.7116 214.639 11.0404 214.984 11.2617C215.329 11.4831 215.951 11.6947 216.85 11.8965C217.755 12.0983 218.487 12.3392 219.047 12.6191C219.607 12.8991 220.02 13.2376 220.287 13.6348C220.561 14.0254 220.697 14.5039 220.697 15.0703C220.697 16.0143 220.32 16.7728 219.564 17.3457C218.809 17.9121 217.829 18.1953 216.625 18.1953C215.779 18.1953 215.03 18.0456 214.379 17.7461C213.728 17.4466 213.217 17.0299 212.846 16.4961C212.481 15.9557 212.299 15.373 212.299 14.748H214.105C214.138 15.3535 214.379 15.8353 214.828 16.1934C215.284 16.5449 215.883 16.7207 216.625 16.7207C217.309 16.7207 217.855 16.584 218.266 16.3105C218.682 16.0306 218.891 15.6595 218.891 15.1973ZM230.072 13.9863H228.441L228.314 3.78125H230.209L230.072 13.9863ZM228.246 17.0918C228.246 16.7988 228.334 16.5547 228.51 16.3594C228.692 16.1576 228.959 16.0566 229.311 16.0566C229.662 16.0566 229.929 16.1576 230.111 16.3594C230.294 16.5547 230.385 16.7988 230.385 17.0918C230.385 17.3848 230.294 17.6289 230.111 17.8242C229.929 18.013 229.662 18.1074 229.311 18.1074C228.959 18.1074 228.692 18.013 228.51 17.8242C228.334 17.6289 228.246 17.3848 228.246 17.0918Z" fill="#056DAE"/>
<path d="M55.1602 19.9531H231.83V20.9297H55.1602V19.9531Z" fill="#056DAE"/>
<path d="M275.423 22.8889C280.627 22.8889 284.846 18.6605 284.846 13.4444C284.846 8.22842 280.627 4 275.423 4C270.219 4 266 8.22842 266 13.4444C266 18.6605 270.219 22.8889 275.423 22.8889Z" fill="#FFE14D"/>
<path d="M284.846 13.4444C284.846 8.23676 280.619 4 275.423 4V22.8889C280.619 22.8889 284.846 18.6521 284.846 13.4444Z" fill="#FFBB33"/>
<path d="M275.423 20.6384C271.465 20.6384 268.245 17.4111 268.245 13.4444C268.245 9.47777 271.465 6.25043 275.423 6.25043C279.381 6.25043 282.601 9.47777 282.601 13.4444C282.601 17.4111 279.381 20.6384 275.423 20.6384Z" fill="#FFBB33"/>
<path d="M282.601 13.4444C282.601 9.47777 279.381 6.25043 275.423 6.25043V20.6384C279.381 20.6384 282.601 17.4111 282.601 13.4444Z" fill="#E68A2E"/>
<path d="M275.975 12.9305V10.7426C276.61 10.8988 277.079 11.3083 277.079 11.779C277.079 12.0849 277.326 12.3324 277.632 12.3324C277.937 12.3324 278.184 12.0849 278.184 11.779C278.184 10.7098 277.234 9.8158 275.975 9.61024V9.01206C275.975 8.70619 275.728 8.45868 275.423 8.45868C275.118 8.45868 274.871 8.70619 274.871 9.01206V9.61024C273.612 9.8158 272.662 10.7098 272.662 11.779C272.662 12.8482 273.612 13.7422 274.871 13.9477V16.1357C274.236 15.9795 273.767 15.57 273.767 15.0993C273.767 14.7934 273.52 14.5459 273.214 14.5459C272.909 14.5459 272.662 14.7934 272.662 15.0993C272.662 16.1685 273.612 17.0625 274.871 17.2681V17.8716C274.871 18.1775 275.118 18.425 275.423 18.425C275.728 18.425 275.975 18.1775 275.975 17.8716V17.2681C277.234 17.0625 278.184 16.1685 278.184 15.0993C278.184 14.0301 277.234 13.1361 275.975 12.9305V12.9305ZM273.767 11.779C273.767 11.3083 274.236 10.8988 274.871 10.7426V12.8154C274.236 12.6592 273.767 12.2497 273.767 11.779V11.779ZM275.975 16.1357V14.0629C276.61 14.2191 277.079 14.6286 277.079 15.0993C277.079 15.57 276.61 15.9795 275.975 16.1357Z" fill="#FFE14D"/>
<path d="M275.975 17.8716V17.2681C277.234 17.0625 278.184 16.1685 278.184 15.0993C278.184 14.0301 277.234 13.1361 275.975 12.9305V10.7426C276.61 10.8988 277.079 11.3083 277.079 11.779C277.079 12.0849 277.326 12.3324 277.632 12.3324C277.937 12.3324 278.184 12.0849 278.184 11.779C278.184 10.7098 277.234 9.8158 275.975 9.61024V9.01206C275.975 8.70619 275.728 8.45868 275.423 8.45868V18.425C275.728 18.425 275.975 18.1775 275.975 17.8716ZM275.975 14.0629C276.61 14.2191 277.079 14.6286 277.079 15.0993C277.079 15.57 276.61 15.9795 275.975 16.1356V14.0629Z" fill="#FFBB33"/>
<path d="M9.42308 22.8889C14.6273 22.8889 18.8462 18.6605 18.8462 13.4444C18.8462 8.22842 14.6273 4 9.42308 4C4.21885 4 0 8.22842 0 13.4444C0 18.6605 4.21885 22.8889 9.42308 22.8889Z" fill="#FFE14D"/>
<path d="M18.8461 13.4444C18.8461 8.23676 14.6189 4 9.42297 4V22.8889C14.6189 22.8889 18.8461 18.6521 18.8461 13.4444Z" fill="#FFBB33"/>
<path d="M9.4231 20.6384C5.4654 20.6384 2.24536 17.4111 2.24536 13.4444C2.24536 9.47777 5.4654 6.25043 9.4231 6.25043C13.3808 6.25043 16.6008 9.47777 16.6008 13.4444C16.6008 17.4111 13.3808 20.6384 9.4231 20.6384Z" fill="#FFBB33"/>
<path d="M16.6008 13.4444C16.6008 9.47777 13.3808 6.25043 9.4231 6.25043V20.6384C13.3808 20.6384 16.6008 17.4111 16.6008 13.4444Z" fill="#E68A2E"/>
<path d="M9.97515 12.9305V10.7426C10.6102 10.8988 11.0794 11.3083 11.0794 11.779C11.0794 12.0849 11.3264 12.3324 11.6316 12.3324C11.9367 12.3324 12.1837 12.0849 12.1837 11.779C12.1837 10.7098 11.234 9.8158 9.97515 9.61024V9.01206C9.97515 8.70619 9.7282 8.45868 9.42302 8.45868C9.11784 8.45868 8.87089 8.70619 8.87089 9.01206V9.61024C7.61206 9.8158 6.66235 10.7098 6.66235 11.779C6.66235 12.8482 7.61206 13.7422 8.87089 13.9477V16.1357C8.23586 15.9795 7.76662 15.57 7.76662 15.0993C7.76662 14.7934 7.51967 14.5459 7.21449 14.5459C6.9093 14.5459 6.66235 14.7934 6.66235 15.0993C6.66235 16.1685 7.61206 17.0625 8.87089 17.2681V17.8716C8.87089 18.1775 9.11784 18.425 9.42302 18.425C9.7282 18.425 9.97515 18.1775 9.97515 17.8716V17.2681C11.234 17.0625 12.1837 16.1685 12.1837 15.0993C12.1837 14.0301 11.234 13.1361 9.97515 12.9305V12.9305ZM7.76662 11.779C7.76662 11.3083 8.23586 10.8988 8.87089 10.7426V12.8154C8.23586 12.6592 7.76662 12.2497 7.76662 11.779V11.779ZM9.97515 16.1357V14.0629C10.6102 14.2191 11.0794 14.6286 11.0794 15.0993C11.0794 15.57 10.6102 15.9795 9.97515 16.1357Z" fill="#FFE14D"/>
<path d="M9.97523 17.8716V17.2681C11.2341 17.0625 12.1838 16.1685 12.1838 15.0993C12.1838 14.0301 11.2341 13.1361 9.97523 12.9305V10.7426C10.6103 10.8988 11.0795 11.3083 11.0795 11.779C11.0795 12.0849 11.3264 12.3324 11.6316 12.3324C11.9368 12.3324 12.1838 12.0849 12.1838 11.779C12.1838 10.7098 11.2341 9.8158 9.97523 9.61024V9.01206C9.97523 8.70619 9.72828 8.45868 9.4231 8.45868V18.425C9.72828 18.425 9.97523 18.1775 9.97523 17.8716ZM9.97523 14.0629C10.6103 14.2191 11.0795 14.6286 11.0795 15.0993C11.0795 15.57 10.6103 15.9795 9.97523 16.1356V14.0629Z" fill="#FFBB33"/>
</svg>
