<svg width="27" height="26" viewBox="0 0 27 26" fill="none" xmlns="http://www.w3.org/2000/svg">
<ellipse cx="13.2873" cy="13" rx="13.2873" ry="13" fill="#3803CE"/>
<ellipse cx="13.2873" cy="13" rx="13.2873" ry="13" fill="url(#paint0_linear)"/>
<path d="M5.16004 17V9.17969H7.46961C8.16069 9.17969 8.773 9.33366 9.30653 9.6416C9.84364 9.94954 10.259 10.3864 10.5526 10.9521C10.8462 11.5179 10.993 12.166 10.993 12.8965V13.2886C10.993 14.0298 10.8444 14.6815 10.5472 15.2437C10.2536 15.8058 9.83289 16.2391 9.28504 16.5435C8.74077 16.8478 8.11593 17 7.41053 17H5.16004ZM6.51893 10.2754V15.915H7.40516C8.11772 15.915 8.66379 15.693 9.04334 15.249C9.42648 14.8014 9.62163 14.1605 9.62879 13.3262V12.8911C9.62879 12.0425 9.44438 11.3944 9.07557 10.9468C8.70675 10.4992 8.17144 10.2754 7.46961 10.2754H6.51893ZM14.1083 9.17969L16.3641 15.1738L18.6146 9.17969H20.371V17H19.0175V14.4219L19.1517 10.9736L16.8422 17H15.87L13.5658 10.979L13.7001 14.4219V17H12.3466V9.17969H14.1083Z" fill="white"/>
<defs>
<linearGradient id="paint0_linear" x1="13.865" y1="3.95652" x2="13.865" y2="26" gradientUnits="userSpaceOnUse">
<stop stop-color="#6909EE"/>
<stop offset="1" stop-color="white" stop-opacity="0"/>
</linearGradient>
</defs>
</svg>
