<svg width="80" height="80" viewBox="0 0 80 80" fill="none" xmlns="http://www.w3.org/2000/svg">
<g clip-path="url(#clip0)">
<path d="M3.00001 77.69C2.59574 77.6903 2.19558 77.6089 1.82355 77.4507C1.45152 77.2925 1.11531 77.0607 0.83511 76.7693C0.554907 76.4779 0.336493 76.1329 0.192986 75.7549C0.0494789 75.377 -0.0161604 74.9739 1.05738e-05 74.57V4.13C-0.017546 3.72523 0.0470661 3.3211 0.18995 2.94199C0.332833 2.56287 0.551028 2.21663 0.831372 1.92413C1.11172 1.63164 1.4484 1.39896 1.82112 1.24014C2.19384 1.08131 2.59486 0.999621 3.00001 1H58C58.3983 1.0077 58.7911 1.09465 59.1555 1.2558C59.5198 1.41694 59.8484 1.64903 60.1221 1.93854C60.3958 2.22805 60.6091 2.56917 60.7495 2.94199C60.8899 3.31482 60.9547 3.71188 60.94 4.11V35.42C60.9391 35.5765 60.9014 35.7307 60.83 35.87C63.8829 36.2155 66.8271 37.2075 69.4667 38.7798C72.1063 40.3521 74.3806 42.4686 76.1382 44.9886C77.8959 47.5085 79.0966 50.374 79.6603 53.3942C80.224 56.4144 80.1378 59.5201 79.4075 62.5044C78.6771 65.4887 77.3194 68.2832 75.4247 70.7018C73.53 73.1203 71.1418 75.1076 68.4191 76.5311C65.6964 77.9546 62.7017 78.7817 59.6344 78.9574C56.567 79.1331 53.4974 78.6533 50.63 77.55C50.4786 77.6399 50.3061 77.6882 50.13 77.69H3.00001ZM3.00001 75.69H44.08C39.1727 73.3902 35.3076 69.332 33.2494 64.3186C31.1913 59.3051 31.0901 53.7017 32.966 48.6173C34.8419 43.5328 38.5581 39.3378 43.3792 36.8624C48.2002 34.387 53.7749 33.8116 59 35.25V4.13C59.0138 3.84839 58.9169 3.57254 58.7301 3.3614C58.5432 3.15025 58.2812 3.02055 58 3H3.00001C2.71785 3.01802 2.45429 3.14699 2.26691 3.35872C2.07954 3.57045 1.98358 3.84774 2.00001 4.13V74.57C1.98913 74.7114 2.00646 74.8535 2.051 74.9881C2.09553 75.1228 2.16638 75.2472 2.25943 75.3542C2.35248 75.4612 2.46586 75.5486 2.593 75.6114C2.72014 75.6742 2.85849 75.7111 3.00001 75.72V75.69ZM10.66 17.09C10.12 17.09 9.66001 15.99 9.66001 14.63C9.66001 13.27 10.11 12.17 10.66 12.17H51.55C52.09 12.17 52.55 13.27 52.55 14.63C52.55 15.99 52.11 17.09 51.55 17.09H10.66ZM10.66 27.7C10.12 27.7 9.66001 26.6 9.66001 25.25C9.66001 23.9 10.11 22.79 10.66 22.79H51.55C52.09 22.79 52.55 23.89 52.55 25.25C52.55 26.61 52.11 27.7 51.55 27.7H10.66ZM11.7 39.16C11.16 39.16 10.7 38.06 10.7 36.71C10.7 35.36 11.15 34.25 11.7 34.25H28.93C29.47 34.25 29.93 35.35 29.93 36.71C29.93 38.07 29.48 39.16 28.93 39.16H11.7ZM53.08 75.72C56.9684 75.72 60.7694 74.567 64.0025 72.4067C67.2356 70.2464 69.7555 67.176 71.2435 63.5836C72.7315 59.9912 73.1208 56.0382 72.3622 52.2245C71.6037 48.4109 69.7312 44.9078 66.9817 42.1583C64.2322 39.4088 60.7292 37.5363 56.9155 36.7778C53.1018 36.0192 49.1488 36.4085 45.5565 37.8965C41.9641 39.3845 38.8936 41.9044 36.7333 45.1375C34.573 48.3706 33.42 52.1716 33.42 56.06C33.42 61.2742 35.4913 66.2748 39.1783 69.9617C42.8653 73.6487 47.8659 75.72 53.08 75.72V75.72ZM50.62 64.31C50.4156 64.5424 50.1282 64.6851 49.8196 64.7076C49.5109 64.73 49.2058 64.6303 48.97 64.43L42.09 58.53C41.8759 58.3208 41.7493 58.038 41.7358 57.7389C41.7224 57.4398 41.8231 57.1468 42.0176 56.9193C42.2122 56.6917 42.4859 56.5466 42.7834 56.5133C43.081 56.48 43.38 56.561 43.62 56.74L49.62 61.88L62.61 47C62.8178 46.7655 63.1097 46.6224 63.4224 46.6018C63.7351 46.5812 64.0432 46.6848 64.28 46.89C64.397 46.9913 64.4927 47.1148 64.5616 47.2533C64.6305 47.3918 64.6712 47.5427 64.6815 47.697C64.6917 47.8514 64.6712 48.0063 64.6212 48.1527C64.5711 48.2991 64.4926 48.4342 64.39 48.55V48.55L50.62 64.31Z" fill="#056DAE"/>
</g>
<defs>
<clipPath id="clip0">
<rect width="80" height="80" fill="white"/>
</clipPath>
</defs>
</svg>
