<svg width="68" height="68" viewBox="0 0 68 68" fill="none" xmlns="http://www.w3.org/2000/svg">
<circle cx="34" cy="34" r="34" fill="#FD9BB4"/>
<path d="M34.3007 31.3989V32.2516C33.8206 32.4207 33.4158 32.7543 33.158 33.1932C32.9003 33.6322 32.8062 34.1482 32.8925 34.6499C32.9787 35.1515 33.2398 35.6065 33.6293 35.9342C34.0189 36.2618 34.5118 36.441 35.0208 36.4401C35.1633 36.4401 35.3025 36.4823 35.4209 36.5614C35.5394 36.6406 35.6317 36.7531 35.6862 36.8846C35.7407 37.0162 35.755 37.161 35.7272 37.3007C35.6994 37.4404 35.6308 37.5688 35.5301 37.6695C35.4294 37.7702 35.301 37.8388 35.1613 37.8666C35.0216 37.8944 34.8768 37.8801 34.7452 37.8256C34.6137 37.7711 34.5012 37.6788 34.422 37.5603C34.3429 37.4419 34.3007 37.3027 34.3007 37.1602H32.8604C32.8622 37.6055 33.0016 38.0393 33.2594 38.4023C33.5172 38.7653 33.8809 39.0398 34.3007 39.1882V40.0409H35.741V39.1882C36.2211 39.0191 36.6259 38.6855 36.8836 38.2466C37.1414 37.8076 37.2355 37.2916 37.1492 36.7899C37.063 36.2883 36.8019 35.8333 36.4124 35.5057C36.0228 35.178 35.5299 34.9988 35.0208 34.9997C34.8784 34.9997 34.7392 34.9575 34.6207 34.8784C34.5023 34.7992 34.41 34.6868 34.3555 34.5552C34.301 34.4236 34.2867 34.2788 34.3145 34.1391C34.3423 33.9994 34.4109 33.8711 34.5116 33.7703C34.6123 33.6696 34.7406 33.601 34.8803 33.5733C35.02 33.5455 35.1648 33.5597 35.2964 33.6142C35.428 33.6687 35.5405 33.7611 35.6196 33.8795C35.6988 33.9979 35.741 34.1371 35.741 34.2796H37.1813C37.1795 33.8343 37.0401 33.4005 36.7823 33.0375C36.5245 32.6745 36.1608 32.4 35.741 32.2516V31.3989H34.3007Z" fill="white"/>
<path d="M39.3416 26.358C40.6781 26.3565 41.9594 25.8248 42.9045 24.8798C43.8496 23.9347 44.3812 22.6534 44.3827 21.3168C44.3827 21.1258 44.3068 20.9427 44.1718 20.8076C44.0367 20.6725 43.8536 20.5967 43.6626 20.5967H39.3416C38.6703 20.5963 38.0057 20.7306 37.3872 20.9916C36.7687 21.2526 36.2088 21.635 35.7407 22.1162V19.1563H39.3416C40.6781 19.1548 41.9594 18.6232 42.9045 17.6781C43.8496 16.7331 44.3812 15.4517 44.3827 14.1152C44.3827 13.9242 44.3068 13.741 44.1718 13.606C44.0367 13.4709 43.8536 13.395 43.6626 13.395H39.3416C38.4703 13.3952 37.6141 13.6216 36.8567 14.0521C36.0992 14.4826 35.4665 15.1024 35.0206 15.8508C34.5746 15.1024 33.9419 14.4826 33.1845 14.0521C32.4271 13.6216 31.5708 13.3952 30.6996 13.395H26.3786C26.1876 13.395 26.0044 13.4709 25.8694 13.606C25.7343 13.741 25.6584 13.9242 25.6584 14.1152C25.66 15.4517 26.1916 16.7331 27.1367 17.6781C28.0817 18.6232 29.3631 19.1548 30.6996 19.1563H34.3004V22.1162C33.8323 21.635 33.2725 21.2526 32.654 20.9916C32.0355 20.7306 31.3709 20.5963 30.6996 20.5967H26.3786C26.1876 20.5967 26.0044 20.6725 25.8694 20.8076C25.7343 20.9427 25.6584 21.1258 25.6584 21.3168C25.66 22.6534 26.1916 23.9347 27.1367 24.8798C28.0817 25.8248 29.3631 26.3565 30.6996 26.358H34.3004V27.8343C32.2703 28.0196 30.3897 28.9805 29.0499 30.517C27.7101 32.0534 27.0142 34.0473 27.107 36.0838C27.1997 38.1203 28.074 40.0426 29.5479 41.4509C31.0219 42.8592 32.982 43.6451 35.0206 43.6451C37.0592 43.6451 39.0193 42.8592 40.4932 41.4509C41.9672 40.0426 42.8414 38.1203 42.9342 36.0838C43.0269 34.0473 42.331 32.0534 40.9913 30.517C39.6515 28.9805 37.7709 28.0196 35.7407 27.8343V26.358H39.3416ZM39.3416 22.037H42.8704C42.7032 22.8498 42.261 23.5801 41.6182 24.1048C40.9754 24.6295 40.1713 24.9166 39.3416 24.9176H35.8128C35.9799 24.1049 36.4222 23.3746 37.0649 22.8499C37.7077 22.3251 38.5118 22.038 39.3416 22.037V22.037ZM39.3416 14.8353H42.8704C42.7032 15.6481 42.261 16.3784 41.6182 16.9031C40.9754 17.4279 40.1713 17.715 39.3416 17.716H35.8128C35.9799 16.9032 36.4222 16.1729 37.0649 15.6482C37.7077 15.1235 38.5118 14.8364 39.3416 14.8353V14.8353ZM30.6996 17.716C29.8698 17.715 29.0658 17.4279 28.423 16.9031C27.7802 16.3784 27.3379 15.6481 27.1708 14.8353H30.6996C31.5294 14.8364 32.3334 15.1235 32.9762 15.6482C33.619 16.1729 34.0613 16.9032 34.2284 17.716H30.6996ZM30.6996 24.9176C29.8698 24.9166 29.0658 24.6295 28.423 24.1048C27.7802 23.5801 27.3379 22.8498 27.1708 22.037H30.6996C31.5294 22.038 32.3334 22.3251 32.9762 22.8499C33.619 23.3746 34.0613 24.1049 34.2284 24.9176H30.6996ZM41.5021 35.7201C41.5021 37.002 41.1219 38.2552 40.4097 39.321C39.6975 40.3869 38.6853 41.2176 37.5009 41.7082C36.3166 42.1988 35.0134 42.3271 33.7561 42.077C32.4988 41.827 31.3439 41.2097 30.4375 40.3032C29.531 39.3968 28.9137 38.2419 28.6636 36.9846C28.4136 35.7273 28.5419 34.4241 29.0325 33.2398C29.523 32.0554 30.3538 31.0432 31.4197 30.331C32.4855 29.6188 33.7387 29.2386 35.0206 29.2386C36.7388 29.2413 38.3858 29.925 39.6007 31.14C40.8157 32.3549 41.4994 34.0019 41.5021 35.7201Z" fill="white"/>
<path d="M14.856 13.395H16.2963V14.8353H14.856V13.395Z" fill="white"/>
<path d="M14.856 16.2759H16.2963V17.7162H14.856V16.2759Z" fill="white"/>
<path d="M13.4158 14.8352H14.8561V16.2755H13.4158V14.8352Z" fill="white"/>
<path d="M16.2966 14.8352H17.737V16.2755H16.2966V14.8352Z" fill="white"/>
<path d="M19.177 22.0371H20.6173V23.4774H19.177V22.0371Z" fill="white"/>
<path d="M19.177 24.9175H20.6173V26.3578H19.177V24.9175Z" fill="white"/>
<path d="M17.7368 23.4773H19.1771V24.9176H17.7368V23.4773Z" fill="white"/>
<path d="M20.6174 23.4773H22.0578V24.9176H20.6174V23.4773Z" fill="white"/>
<path d="M14.856 30.679H16.2963V32.1193H14.856V30.679Z" fill="white"/>
<path d="M14.856 33.5596H16.2963V34.9999H14.856V33.5596Z" fill="white"/>
<path d="M13.4158 32.1194H14.8561V33.5597H13.4158V32.1194Z" fill="white"/>
<path d="M16.2966 32.1194H17.737V33.5597H16.2966V32.1194Z" fill="white"/>
<path d="M53.7451 13.395H55.1854V14.8353H53.7451V13.395Z" fill="white"/>
<path d="M53.7451 16.2759H55.1854V17.7162H53.7451V16.2759Z" fill="white"/>
<path d="M55.1853 14.8352H56.6256V16.2755H55.1853V14.8352Z" fill="white"/>
<path d="M52.3044 14.8352H53.7448V16.2755H52.3044V14.8352Z" fill="white"/>
<path d="M49.4241 22.0371H50.8644V23.4774H49.4241V22.0371Z" fill="white"/>
<path d="M49.4241 24.9175H50.8644V26.3578H49.4241V24.9175Z" fill="white"/>
<path d="M50.8643 23.4773H52.3046V24.9176H50.8643V23.4773Z" fill="white"/>
<path d="M47.9836 23.4773H49.424V24.9176H47.9836V23.4773Z" fill="white"/>
<path d="M53.7451 30.679H55.1854V32.1193H53.7451V30.679Z" fill="white"/>
<path d="M53.7451 33.5596H55.1854V34.9999H53.7451V33.5596Z" fill="white"/>
<path d="M55.1853 32.1194H56.6256V33.5597H55.1853V32.1194Z" fill="white"/>
<path d="M52.3044 32.1194H53.7448V33.5597H52.3044V32.1194Z" fill="white"/>
<path d="M56.5176 42.2303C56.0386 41.405 55.2527 40.8025 54.3313 40.5543C53.4099 40.306 52.4277 40.4322 51.5989 40.9052L42.5824 46.112C41.909 45.4526 41.0043 45.083 40.0619 45.0822H31.7151L29.5979 42.9577C29.1289 42.4887 28.5719 42.1169 27.959 41.8635C27.346 41.6102 26.6891 41.4803 26.0258 41.4813H19.1771V40.041C19.1771 39.85 19.1012 39.6668 18.9662 39.5317C18.8311 39.3967 18.6479 39.3208 18.4569 39.3208H14.1359C13.9449 39.3208 13.7618 39.3967 13.6267 39.5317C13.4916 39.6668 13.4158 39.85 13.4158 40.041V55.8847C13.4158 56.0757 13.4916 56.2589 13.6267 56.3939C13.7618 56.529 13.9449 56.6049 14.1359 56.6049H18.4569C18.6479 56.6049 18.8311 56.529 18.9662 56.3939C19.1012 56.2589 19.1771 56.0757 19.1771 55.8847V53.9618L27.9559 56.468C28.2772 56.5573 28.609 56.6033 28.9425 56.6049H37.8509C38.4831 56.6054 39.1042 56.439 39.6514 56.1223L55.1997 47.149C56.0267 46.6715 56.6302 45.885 56.8773 44.9626C57.1245 44.0402 56.9951 43.0573 56.5176 42.2303V42.2303ZM17.7368 55.1645H14.8561V40.7611H17.7368V55.1645ZM55.4878 44.5852C55.4145 44.8594 55.2877 45.1164 55.1147 45.3414C54.9416 45.5663 54.7258 45.7548 54.4795 45.8959L38.9312 54.8765C38.6018 55.0637 38.2298 55.1629 37.8509 55.1645H28.9425C28.7425 55.1651 28.5435 55.136 28.352 55.0781L19.1771 52.4639V42.9216H26.0258C26.4999 42.9196 26.9695 43.0121 27.4073 43.1939C27.8451 43.3757 28.2421 43.643 28.5752 43.9803L30.9086 46.3136C31.0459 46.4463 31.229 46.5211 31.4199 46.5225H40.0619C40.3423 46.521 40.6203 46.575 40.8798 46.6813C41.1394 46.7875 41.3753 46.9441 41.5742 47.1418C41.6668 47.2372 41.7533 47.3382 41.8335 47.4443C42.0851 47.8085 42.2207 48.2403 42.2223 48.683C42.2206 49.2555 41.9925 49.804 41.5877 50.2088C41.1829 50.6136 40.6343 50.8418 40.0619 50.8435H31.4199V52.2838H40.0619C40.6541 52.2874 41.2381 52.144 41.7613 51.8663C42.2845 51.5887 42.7306 51.1856 43.0596 50.6931C43.3887 50.2006 43.5903 49.6341 43.6466 49.0445C43.7028 48.4549 43.6118 47.8605 43.3818 47.3147L52.319 42.1583C52.6889 41.9445 53.1137 41.8452 53.54 41.8728C53.9662 41.9005 54.3747 42.0539 54.7138 42.3136C55.053 42.5733 55.3075 42.9278 55.4452 43.3321C55.583 43.7364 55.5978 44.1725 55.4878 44.5852V44.5852Z" fill="white"/>
</svg>
