<svg width="60" height="57" viewBox="0 0 60 57" fill="none" xmlns="http://www.w3.org/2000/svg">
<path d="M28.5519 23.5851V24.7021C27.8955 24.9236 27.3421 25.3606 26.9897 25.9356C26.6374 26.5107 26.5088 27.1866 26.6267 27.8438C26.7446 28.501 27.1015 29.097 27.634 29.5262C28.1666 29.9555 28.8405 30.1902 29.5364 30.189C29.7311 30.189 29.9215 30.2443 30.0834 30.348C30.2453 30.4516 30.3715 30.599 30.446 30.7714C30.5205 30.9438 30.54 31.1334 30.502 31.3165C30.464 31.4995 30.3703 31.6676 30.2326 31.7995C30.0949 31.9314 29.9195 32.0213 29.7285 32.0577C29.5375 32.0941 29.3395 32.0754 29.1596 32.004C28.9797 31.9326 28.826 31.8117 28.7178 31.6565C28.6096 31.5014 28.5519 31.319 28.5519 31.1324H26.5828C26.5853 31.7157 26.7758 32.284 27.1283 32.7595C27.4808 33.2351 27.978 33.5946 28.5519 33.7891V34.9061H30.5209V33.7891C31.1773 33.5675 31.7307 33.1305 32.083 32.5555C32.4354 31.9805 32.564 31.3045 32.4461 30.6473C32.3282 29.9901 31.9713 29.3941 31.4388 28.9649C30.9062 28.5357 30.2323 28.3009 29.5364 28.3022C29.3417 28.3022 29.1513 28.2468 28.9894 28.1432C28.8275 28.0395 28.7013 27.8922 28.6268 27.7198C28.5523 27.5474 28.5328 27.3577 28.5708 27.1747C28.6088 26.9917 28.7025 26.8236 28.8402 26.6916C28.9779 26.5597 29.1533 26.4699 29.3443 26.4335C29.5353 26.3971 29.7333 26.4157 29.9132 26.4871C30.0931 26.5585 30.2468 26.6795 30.355 26.8346C30.4632 26.9898 30.5209 27.1722 30.5209 27.3587H32.49C32.4875 26.7755 32.297 26.2072 31.9445 25.7316C31.592 25.2561 31.0948 24.8965 30.5209 24.7021V23.5851H28.5519Z" fill="#056DAE"/>
<path d="M35.4433 16.9815C37.2705 16.9795 39.0222 16.2831 40.3142 15.045C41.6062 13.807 42.333 12.1284 42.3351 10.3776C42.3351 10.1273 42.2314 9.88739 42.0467 9.71046C41.8621 9.53354 41.6117 9.43414 41.3505 9.43414H35.4433C34.5256 9.43366 33.617 9.60957 32.7715 9.95149C31.9259 10.2934 31.1605 10.7944 30.5206 11.4247V7.54732H35.4433C37.2705 7.54532 39.0222 6.84891 40.3142 5.61087C41.6062 4.37283 42.333 2.69426 42.3351 0.943414C42.3351 0.693205 42.2314 0.453244 42.0467 0.27632C41.8621 0.0993951 41.6117 0 41.3505 0H35.4433C34.2523 0.000223532 33.0817 0.296818 32.0462 0.860745C31.0107 1.42467 30.1457 2.2366 29.5361 3.21704C28.9264 2.2366 28.0615 1.42467 27.026 0.860745C25.9905 0.296818 24.8199 0.000223532 23.6288 0H17.7216C17.4605 0 17.21 0.0993951 17.0254 0.27632C16.8408 0.453244 16.737 0.693205 16.737 0.943414C16.7391 2.69426 17.4659 4.37283 18.7579 5.61087C20.0499 6.84891 21.8017 7.54532 23.6288 7.54732H28.5515V11.4247C27.9116 10.7944 27.1462 10.2934 26.3007 9.95149C25.4551 9.60957 24.5466 9.43366 23.6288 9.43414H17.7216C17.4605 9.43414 17.21 9.53354 17.0254 9.71046C16.8408 9.88739 16.737 10.1273 16.737 10.3776C16.7391 12.1284 17.4659 13.807 18.7579 15.045C20.0499 16.2831 21.8017 16.9795 23.6288 16.9815H28.5515V18.9155C25.7761 19.1582 23.2052 20.4169 21.3735 22.4297C19.5419 24.4425 18.5905 27.0545 18.7173 29.7222C18.8442 32.39 20.0394 34.9083 22.0544 36.7532C24.0694 38.5981 26.7491 39.6276 29.5361 39.6276C32.323 39.6276 35.0027 38.5981 37.0177 36.7532C39.0328 34.9083 40.228 32.39 40.3548 29.7222C40.4816 27.0545 39.5302 24.4425 37.6986 22.4297C35.867 20.4169 33.296 19.1582 30.5206 18.9155V16.9815H35.4433ZM35.4433 11.321H40.2676C40.039 12.3857 39.4345 13.3424 38.5557 14.0298C37.6769 14.7172 36.5777 15.0933 35.4433 15.0946H30.6191C30.8476 14.0299 31.4522 13.0732 32.3309 12.3858C33.2097 11.6984 34.3089 11.3223 35.4433 11.321ZM35.4433 1.88683H40.2676C40.039 2.95155 39.4345 3.90824 38.5557 4.59564C37.6769 5.28304 36.5777 5.65911 35.4433 5.66049H30.6191C30.8476 4.59576 31.4522 3.63908 32.3309 2.95168C33.2097 2.26428 34.3089 1.8882 35.4433 1.88683ZM23.6288 5.66049C22.4944 5.65911 21.3952 5.28304 20.5164 4.59564C19.6377 3.90824 19.0331 2.95155 18.8046 1.88683H23.6288C24.7632 1.8882 25.8624 2.26428 26.7412 2.95168C27.62 3.63908 28.2246 4.59576 28.4531 5.66049H23.6288ZM23.6288 15.0946C22.4944 15.0933 21.3952 14.7172 20.5164 14.0298C19.6377 13.3424 19.0331 12.3857 18.8046 11.321H23.6288C24.7632 11.3223 25.8624 11.6984 26.7412 12.3858C27.62 13.0732 28.2246 14.0299 28.4531 15.0946H23.6288ZM38.3969 29.2458C38.3969 30.9252 37.8772 32.5667 36.9036 33.963C35.93 35.3593 34.5461 36.4476 32.927 37.0903C31.3079 37.7329 29.5262 37.901 27.8074 37.5734C26.0886 37.2458 24.5097 36.4371 23.2705 35.2497C22.0313 34.0622 21.1874 32.5493 20.8455 30.9023C20.5036 29.2553 20.679 27.5481 21.3497 25.9966C22.0204 24.4451 23.1561 23.119 24.6132 22.1861C26.0704 21.2531 27.7836 20.7551 29.5361 20.7551C31.885 20.7586 34.1367 21.6543 35.7976 23.2459C37.4586 24.8374 38.3933 26.995 38.3969 29.2458Z" fill="#056DAE"/>
<path d="M1.9689 0H3.93798V1.88683H1.9689V0Z" fill="#056DAE"/>
<path d="M1.9689 3.77393H3.93798V5.66075H1.9689V3.77393Z" fill="#056DAE"/>
<path d="M0 1.88666H1.96908V3.77349H0V1.88666Z" fill="#056DAE"/>
<path d="M3.93842 1.88666H5.9075V3.77349H3.93842V1.88666Z" fill="#056DAE"/>
<path d="M7.87622 11.3211H9.8453V13.2079H7.87622V11.3211Z" fill="#056DAE"/>
<path d="M7.87622 15.0944H9.8453V16.9813H7.87622V15.0944Z" fill="#056DAE"/>
<path d="M5.90732 13.2078H7.8764V15.0946H5.90732V13.2078Z" fill="#056DAE"/>
<path d="M9.84543 13.2078H11.8145V15.0946H9.84543V13.2078Z" fill="#056DAE"/>
<path d="M1.9689 22.642H3.93798V24.5288H1.9689V22.642Z" fill="#056DAE"/>
<path d="M1.9689 26.4155H3.93798V28.3024H1.9689V26.4155Z" fill="#056DAE"/>
<path d="M0 24.5289H1.96908V26.4158H0V24.5289Z" fill="#056DAE"/>
<path d="M3.93842 24.5289H5.9075V26.4158H3.93842V24.5289Z" fill="#056DAE"/>
<path d="M55.1345 0H57.1035V1.88683H55.1345V0Z" fill="#056DAE"/>
<path d="M55.1345 3.77393H57.1035V5.66075H55.1345V3.77393Z" fill="#056DAE"/>
<path d="M57.1034 1.88666H59.0724V3.77349H57.1034V1.88666Z" fill="#056DAE"/>
<path d="M53.1649 1.88666H55.134V3.77349H53.1649V1.88666Z" fill="#056DAE"/>
<path d="M49.2271 11.3211H51.1962V13.2079H49.2271V11.3211Z" fill="#056DAE"/>
<path d="M49.2271 15.0944H51.1962V16.9813H49.2271V15.0944Z" fill="#056DAE"/>
<path d="M51.196 13.2078H53.1651V15.0946H51.196V13.2078Z" fill="#056DAE"/>
<path d="M47.2579 13.2078H49.227V15.0946H47.2579V13.2078Z" fill="#056DAE"/>
<path d="M55.1345 22.642H57.1035V24.5288H55.1345V22.642Z" fill="#056DAE"/>
<path d="M55.1345 26.4155H57.1035V28.3024H55.1345V26.4155Z" fill="#056DAE"/>
<path d="M57.1034 24.5289H59.0724V26.4158H57.1034V24.5289Z" fill="#056DAE"/>
<path d="M53.1649 24.5289H55.134V26.4158H53.1649V24.5289Z" fill="#056DAE"/>
<path d="M58.9247 37.7742C58.2699 36.693 57.1954 35.9038 55.9358 35.5786C54.6761 35.2534 53.3334 35.4187 52.2003 36.0383L39.8739 42.8592C38.9533 41.9955 37.7164 41.5112 36.428 41.5101H25.0172L22.1226 38.727C21.4814 38.1127 20.72 37.6256 19.8821 37.2938C19.0441 36.9619 18.146 36.7917 17.2393 36.793H7.87632V34.9062C7.87632 34.656 7.77259 34.416 7.58795 34.2391C7.40332 34.0622 7.1529 33.9628 6.89178 33.9628H0.98454C0.723424 33.9628 0.473002 34.0622 0.288365 34.2391C0.103728 34.416 0 34.656 0 34.9062V55.6614C0 55.9117 0.103728 56.1516 0.288365 56.3285C0.473002 56.5055 0.723424 56.6049 0.98454 56.6049H6.89178C7.1529 56.6049 7.40332 56.5055 7.58795 56.3285C7.77259 56.1516 7.87632 55.9117 7.87632 55.6614V53.1425L19.8779 56.4256C20.3172 56.5426 20.7708 56.6028 21.2267 56.6049H33.4054C34.2697 56.6056 35.1188 56.3876 35.8668 55.9728L57.123 44.2178C58.2536 43.5922 59.0786 42.5619 59.4165 41.3535C59.7544 40.1451 59.5775 38.8576 58.9247 37.7742ZM5.90724 54.718H1.96908V35.8496H5.90724V54.718ZM57.5168 40.8592C57.4167 41.2184 57.2433 41.555 57.0068 41.8497C56.7702 42.1444 56.4751 42.3913 56.1385 42.5762L34.8823 54.3407C34.432 54.5859 33.9234 54.7159 33.4054 54.718H21.2267C20.9532 54.7188 20.6811 54.6807 20.4194 54.6048L7.87632 51.1802V38.6799H17.2393C17.8873 38.6771 18.5294 38.7984 19.1279 39.0365C19.7263 39.2747 20.2692 39.6249 20.7246 40.0667L23.9145 43.1234C24.1022 43.2972 24.3525 43.3951 24.6135 43.397H36.428C36.8114 43.395 37.1914 43.4657 37.5462 43.605C37.901 43.7442 38.2237 43.9492 38.4955 44.2083C38.6221 44.3333 38.7404 44.4656 38.8499 44.6046C39.194 45.0816 39.3794 45.6473 39.3816 46.2272C39.3793 46.9772 39.0673 47.6958 38.5139 48.2261C37.9605 48.7564 37.2106 49.0553 36.428 49.0575H24.6135V50.9443H36.428C37.2377 50.949 38.036 50.7611 38.7512 50.3974C39.4665 50.0337 40.0764 49.5056 40.5262 48.8604C40.9761 48.2153 41.2518 47.4732 41.3287 46.7008C41.4055 45.9284 41.2812 45.1498 40.9667 44.4347L53.1849 37.6798C53.6904 37.3998 54.2713 37.2697 54.854 37.3059C55.4367 37.3422 55.9952 37.5431 56.4588 37.8833C56.9224 38.2236 57.2703 38.6879 57.4587 39.2175C57.647 39.7472 57.6672 40.3185 57.5168 40.8592Z" fill="#056DAE"/>
</svg>
