<svg width="80" height="80" viewBox="0 0 80 80" fill="none" xmlns="http://www.w3.org/2000/svg">
<g clip-path="url(#clip0)">
<path d="M66.59 7.79C66.8854 7.78462 67.1709 7.89615 67.3844 8.1003C67.5979 8.30445 67.7221 8.58469 67.73 8.88V25.22L79.47 32.27C79.6974 32.4007 79.8682 32.6111 79.9494 32.8604C80.0307 33.1098 80.0167 33.3804 79.91 33.62L79.82 33.77C79.6511 34.0164 79.3945 34.1888 79.1026 34.252C78.8107 34.3152 78.5057 34.2644 78.25 34.11L67.73 27.79V66.79C67.6919 68.2162 67.107 69.5732 66.0962 70.5802C65.0855 71.5872 63.7264 72.1672 62.3 72.2H18C16.5215 72.2513 15.0832 71.7134 14.0012 70.7045C12.9192 69.6957 12.2821 68.2984 12.23 66.82V27.82L1.75 34.11C1.52322 34.2472 1.25684 34.3041 0.993789 34.2714C0.730743 34.2388 0.486352 34.1185 0.300001 33.93L0.180001 33.77C0.0957653 33.6577 0.0361356 33.5288 0.0049936 33.3919C-0.0261484 33.255 -0.0281044 33.113 -0.000747114 32.9753C0.0266102 32.8376 0.0826674 32.7071 0.163775 32.5925C0.244883 32.4779 0.349222 32.3816 0.470001 32.31H0.530001L39.39 8.93C39.5751 8.82193 39.7856 8.76499 40 8.76499C40.2144 8.76499 40.4249 8.82193 40.61 8.93L65.44 23.85V8.85C65.4481 8.57956 65.5539 8.3212 65.7377 8.12267C65.9215 7.92414 66.171 7.79887 66.44 7.77L66.59 7.79ZM40 11.14L14.55 26.42V66.83C14.5891 67.6598 14.937 68.4451 15.5254 69.0316C16.1137 69.6181 16.9 69.9635 17.73 70H18H32.8V54.59C32.8 54.3248 32.9054 54.0704 33.0929 53.8829C33.2804 53.6954 33.5348 53.59 33.8 53.59H46.14C46.4052 53.59 46.6596 53.6954 46.8471 53.8829C47.0346 54.0704 47.14 54.3248 47.14 54.59V70H62C62.8384 70.0275 63.6572 69.7432 64.2982 69.202C64.9391 68.6608 65.3566 67.9012 65.47 67.07V66.79V26.42L40 11.14ZM45.11 55.56H34.89V70H45.11V55.56Z" fill="#056DAE"/>
</g>
<defs>
<clipPath id="clip0">
<rect width="80" height="80" fill="white"/>
</clipPath>
</defs>
</svg>
