<svg id="ico-casa-o" xmlns="http://www.w3.org/2000/svg" viewBox="0 0 80 80">
    <path d="M66.59,7.79a1.12,1.12,0,0,1,1.14,1.09V25.22l11.74,7.05a1.06,1.06,0,0,1,.44,1.35l-.09.15a1.17,1.17,0,0,1-1.57.34L67.73,27.79v39A5.56,5.56,0,0,1,62.3,72.2H18a5.58,5.58,0,0,1-5.77-5.38v-39L1.75,34.11A1.18,1.18,0,0,1,.3,33.93l-.12-.16a1,1,0,0,1,.29-1.46l.06,0L39.39,8.93a1.21,1.21,0,0,1,1.22,0L65.44,23.85v-15a1.12,1.12,0,0,1,1-1.08ZM40,11.14,14.55,26.42V66.83A3.33,3.33,0,0,0,17.73,70L18,70h14.8V54.59a1,1,0,0,1,1-1H46.14a1,1,0,0,1,1,1V70H62a3.39,3.39,0,0,0,3.47-2.93l0-.28V26.42L40,11.14Zm5.11,44.42H34.89V70H45.11Z" />
</svg>
