<svg width="80" height="80" viewBox="0 0 80 80" fill="none" xmlns="http://www.w3.org/2000/svg">
<path d="M76 14C78.2091 14 80 15.7909 80 18V64C80 66.2091 78.2091 68 76 68H4C1.79086 68 0 66.2091 0 64V18C0 15.7909 1.79086 14 4 14H76ZM78 29.93H2V64C2 65.1046 2.89543 66 4 66H76C77.1046 66 78 65.1046 78 64V29.93ZM71.5356 54C72.0878 54 72.5356 54.4477 72.5356 55C72.5356 55.5523 72.0878 56 71.5356 56H53.9203C53.368 56 52.9203 55.5523 52.9203 55C52.9203 54.4477 53.368 54 53.9203 54H71.5356ZM76 16H4C2.89543 16 2 16.8954 2 18V27.93H78V18C78 16.8954 77.1046 16 76 16Z" fill="#056DAE"/>
</svg>
