<svg id="ico-tarjeta-o" xmlns="http://www.w3.org/2000/svg" viewBox="0 0 80 80">
    <path d="M76,14 C78.209139,14 80,15.790861 80,18 L80,64 C80,66.209139 78.209139,68 76,68 L4,68 C1.790861,68 0,66.209139 0,64 L0,18 C0,15.790861 1.790861,14 4,14 L76,14 Z M78,29.93 L2,29.93 L2,64 C2,65.1045695 2.8954305,66 4,66 L76,66 C77.1045695,66 78,65.1045695 78,64 L78,29.93 Z M71.5355603,54 C72.0878451,54 72.5355603,54.4477153 72.5355603,55 C72.5355603,55.5522847 72.0878451,56 71.5355603,56 L71.5355603,56 L53.9203343,56 C53.3680496,56 52.9203343,55.5522847 52.9203343,55 C52.9203343,54.4477153 53.3680496,54 53.9203343,54 L53.9203343,54 Z M76,16 L4,16 C2.8954305,16 2,16.8954305 2,18 L2,27.93 L78,27.93 L78,18 C78,16.8954305 77.1045695,16 76,16 Z" />
</svg>
