<svg width="80" height="80" viewBox="0 0 80 80" fill="none" xmlns="http://www.w3.org/2000/svg">
<path d="M79 20C79.5523 20 80 20.4477 80 21V59C80 59.5523 79.5523 60 79 60H1C0.447715 60 0 59.5523 0 59V21C0 20.4477 0.447715 20 1 20H79ZM78 22H2V58H78V22ZM40 23C49.3894 23 57 30.6119 57 40C57 49.3894 49.3894 57 40 57C30.6119 57 23 49.3894 23 40C23 30.6119 30.6119 23 40 23ZM40 25C31.7165 25 25 31.7165 25 40C25 48.2844 31.716 55 40 55C48.2849 55 55 48.2849 55 40C55 31.716 48.2844 25 40 25ZM40.553 28.6V31.0444C42.4802 31.1911 43.8164 31.8511 45.1526 32.8533L43.8678 34.3444C42.5573 33.3178 41.3496 32.7556 39.5508 32.7556C37.084 32.7556 36.0562 33.8067 36.0562 35.1511C36.0562 36.5689 36.7243 37.2533 40.3217 38.4756C44.3046 39.8444 45.538 40.9933 45.538 43.5356C45.538 45.98 43.7136 47.8133 40.553 48.1311V50.6H38.6258V48.1311C36.5701 47.9111 34.7714 47.0067 33.538 45.8089L34.8742 44.3911C36.2361 45.6378 37.8035 46.4444 39.6536 46.4444C42.0434 46.4444 43.5337 45.4422 43.5337 43.6333C43.5337 42.0444 42.5316 41.2622 39.2425 40.1378C35.3624 38.8178 34.0519 37.7422 34.0519 35.2733C34.0519 32.8289 35.8506 31.3622 38.6258 31.0689V28.6H40.553Z" fill="#056DAE"/>
</svg>
