<svg id="ico-billete-o" xmlns="http://www.w3.org/2000/svg" viewBox="0 0 80 80">
    <path d="M79,20 C79.5522847,20 80,20.4477153 80,21 L80,59 C80,59.5522847 79.5522847,60 79,60 L1,60 C0.44771525,60 0,59.5522847 0,59 L0,21 C0,20.4477153 0.44771525,20 1,20 L79,20 Z M78,22 L2,22 L2,58 L78,58 L78,22 Z M40,23 C49.38944,23 57,30.61192 57,40 C57,49.38944 49.38944,57 40,57 C30.61192,57 23,49.38944 23,40 C23,30.61192 30.61192,23 40,23 Z M40,25 C31.7164895,25 25,31.7164895 25,40 C25,48.2843761 31.715995,55 40,55 C48.2848705,55 55,48.2848705 55,40 C55,31.715995 48.2843761,25 40,25 Z M40.5529893,28.6 L40.5529893,31.0444444 C42.4801842,31.1911111 43.8163726,31.8511111 45.152561,32.8533333 L43.8677645,34.3444444 C42.5572719,33.3177778 41.3495632,32.7555556 39.550848,32.7555556 C37.0840385,32.7555556 36.0562013,33.8066667 36.0562013,35.1511111 C36.0562013,36.5688889 36.7242955,37.2533333 40.3217259,38.4755556 C44.3045953,39.8444444 45.538,40.9933333 45.538,43.5355556 C45.538,45.98 43.7135889,47.8133333 40.5529893,48.1311111 L40.5529893,50.6 L38.6257944,50.6 L38.6257944,48.1311111 C36.5701199,47.9111111 34.7714047,47.0066667 33.538,45.8088889 L34.8741884,44.3911111 C36.2360728,45.6377778 37.8035246,46.4444444 39.6536317,46.4444444 C42.0433533,46.4444444 43.5337173,45.4422222 43.5337173,43.6333333 C43.5337173,42.0444444 42.531576,41.2622222 39.2424968,40.1377778 C35.3624111,38.8177778 34.0519186,37.7422222 34.0519186,35.2733333 C34.0519186,32.8288889 35.8506338,31.3622222 38.6257944,31.0688889 L38.6257944,28.6 L40.5529893,28.6 Z" />
</svg>
