<svg width="80" height="80" viewBox="0 0 80 80" fill="none" xmlns="http://www.w3.org/2000/svg">
<path d="M17.07 37.8C16.8774 37.6556 16.6392 37.5855 16.3991 37.6025C16.159 37.6196 15.9331 37.7227 15.7629 37.8929C15.5927 38.0631 15.4896 38.289 15.4725 38.5291C15.4555 38.7692 15.5256 39.0074 15.67 39.2L29.21 52.75C29.3974 52.9363 29.6508 53.0408 29.915 53.0408C30.1792 53.0408 30.4326 52.9363 30.62 52.75L55.86 27.5C55.9746 27.414 56.0694 27.3044 56.138 27.1787C56.2066 27.0529 56.2473 26.9138 56.2575 26.7709C56.2676 26.628 56.247 26.4846 56.1969 26.3503C56.1468 26.2161 56.0684 26.0942 55.9671 25.9929C55.8658 25.8916 55.7439 25.8132 55.6097 25.7631C55.4755 25.713 55.332 25.6924 55.1891 25.7025C55.0462 25.7127 54.9071 25.7534 54.7813 25.822C54.6556 25.8906 54.546 25.9854 54.46 26.1L29.92 50.64L17.07 37.8Z" fill="#056DAE"/>
<path d="M71.74 18.7C58.3952 17.1201 46.0767 10.7529 37.07 0.78L36.34 0L35.61 0.78C26.6045 10.7544 14.2853 17.1218 0.94 18.7L0 18.83L0.0799999 19.77C1.87 40.77 7.54 69.92 36.01 79.89L36.34 80L36.67 79.89C65.13 69.89 70.81 40.81 72.6 19.77L72.68 18.83L71.74 18.7ZM36.34 77.89C9.66 68.35 3.97 40.89 2.14 20.54C15.2153 18.7233 27.2796 12.5006 36.34 2.9C45.4028 12.4974 57.466 18.7194 70.54 20.54C68.71 40.86 63.02 68.35 36.34 77.89Z" fill="#056DAE"/>
</svg>
