<svg id="ico-seguridad-o" viewBox="0 0 80 80" version="1.1" xmlns="http://www.w3.org/2000/svg" xmlns:xlink="http://www.w3.org/1999/xlink">
   <path d="M20.73,37.8a1,1,0,0,0-1.4,1.4L32.87,52.75a1,1,0,0,0,1.41,0L59.52,27.5a1,1,0,1,0-1.4-1.4L33.58,50.64Z" transform="translate(-3.66)" />
  <path d="M75.4,18.7A55.51,55.51,0,0,1,40.73.78L40,0l-.73.78A55.49,55.49,0,0,1,4.6,18.7l-.94.13.08.94c1.79,21,7.46,50.15,35.93,60.12L40,80l.33-.11c28.46-10,34.14-39.08,35.93-60.12l.08-.94ZM40,77.89c-26.68-9.54-32.37-37-34.2-57.35A58,58,0,0,0,40,2.9,58.05,58.05,0,0,0,74.2,20.54C72.37,40.86,66.68,68.35,40,77.89Z" transform="translate(-3.66)"/>
</svg>