<svg id="ico-chart-o" xmlns="http://www.w3.org/2000/svg" viewBox="0 0 80 80">
    <path d="M1,11.29a1,1,0,0,1,1,1v60.4H17.77V41.42a1,1,0,0,1,.85-1l.19,0h9.33a1,1,0,0,1,1,1V72.64h6.11V30.19a1,1,0,0,1,.86-1l.18,0h9.34a1,1,0,0,1,1,1V72.64h7.06V23.86a1,1,0,0,1,.85-1l.19,0h9.34a1,1,0,0,1,1,1V72.64H79a1,1,0,0,1,1,.78l0,.17a1,1,0,0,1-1,1H65.18v.32a1,1,0,0,1-.85,1h-.18a1,1,0,0,1-1-1v-.32H55.84v.32a1,1,0,0,1-.85,1h-.18a1,1,0,0,1-1-1v-.32H46.64a1,1,0,0,1-.78.63l-.19,0a1,1,0,0,1-1-.65H37.3a1,1,0,0,1-1,.65,1,1,0,0,1-1-.65H29.18a1,1,0,0,1-1,.88,1,1,0,0,1-1-1v.12H19.84a1,1,0,0,1-.85.86l-.18,0a1,1,0,0,1-1-1v.12H1a1,1,0,0,1-1-.78l0-.17V12.24A1,1,0,0,1,1,11.29ZM63.1,72.64V24.86H55.84V72.64H63.1ZM44.63,31.19H37.37V72.64h7.27ZM27.11,42.42H19.84V72.64h7.27V42.42ZM43.67,4.14l15.41.39a1,1,0,0,1,1,1L60.44,20a.91.91,0,0,1-.89.95.06.06,0,0,1-.06,0,1,1,0,0,1-1-1l-.31-12-14,13.29a1,1,0,0,1-1.27.11l-.15-.12L38,16.47,19.73,34.77a1,1,0,0,1-1.42,0,.93.93,0,0,1-.08-1.3l.05,0,19-19a1,1,0,0,1,1.44,0l4.8,4.72L56.9,6.42,43.71,6.09a1.05,1.05,0,0,1-1-.82l0-.18a.92.92,0,0,1,.89-1h.07Z" />
</svg>
