<svg width="55" height="51" viewBox="0 0 55 51" fill="none" xmlns="http://www.w3.org/2000/svg">
<g clip-path="url(#clip0)">
<path d="M46.3058 32.3251V14.0526C46.3058 13.4851 45.8051 13.0931 45.1931 13.0931H40.8871C40.2751 13.0931 39.741 13.4851 39.741 14.0526V30.5402C39.0289 30.5608 38.3168 30.6433 37.6269 30.7981V19.4384C37.6269 18.8709 37.1039 18.4582 36.492 18.4582H32.1859C31.5739 18.4582 31.062 18.8606 31.062 19.4384V34.8426C29.738 36.5657 29.0258 38.6395 29.037 40.7649C29.037 46.419 33.9773 51 40.0637 51C46.1612 51 51.1015 46.419 51.1015 40.7753C51.1015 37.3911 49.3101 34.2339 46.3058 32.3251ZM41.9664 15.1566H44.0805V31.2315C43.4017 30.9838 42.6896 30.7981 41.9664 30.6949V15.1566ZM33.2874 20.5218H35.4015V31.51C34.656 31.8299 33.9439 32.2219 33.2874 32.6862V20.5218ZM47.6522 44.9229C46.061 47.4095 43.1792 48.9262 40.0748 48.9262C35.2124 48.9262 31.2735 45.2634 31.2735 40.7649C31.2735 37.4633 33.4209 34.4815 36.7145 33.2228C36.848 33.2021 36.9704 33.1505 37.0817 33.0886C38.0386 32.7585 39.0623 32.5934 40.0859 32.5934C40.3196 32.5934 40.5421 32.6037 40.7758 32.6243H40.7869C42.1221 32.7172 43.424 33.0989 44.57 33.7386C48.7536 36.0395 50.1335 41.0435 47.6522 44.9229Z" fill="black"/>
<path d="M40.0859 39.9292C39.307 39.9292 38.6839 39.3514 38.6839 38.6292C38.6839 37.9069 39.2959 37.3292 40.0748 37.3188C40.8536 37.3188 41.4767 37.9069 41.4767 38.6189C41.4767 39.1863 41.9775 39.6506 42.5894 39.6506C43.2125 39.6506 43.7132 39.1966 43.7244 38.6189C43.7244 37.2363 42.812 35.9879 41.4211 35.4823V34.6259C41.4211 34.0585 40.9204 33.5942 40.3084 33.5942C39.6965 33.5942 39.1957 34.0585 39.1957 34.6259V35.3688C37.2597 35.8331 36.0914 37.6696 36.5921 39.4649C36.9926 40.9506 38.428 41.9824 40.0748 41.9824C40.8425 41.9824 41.4656 42.5705 41.4656 43.2824C41.4656 43.9943 40.8314 44.5721 40.0636 44.5721C39.2959 44.5721 38.6728 43.984 38.6728 43.2721C38.6728 42.7046 38.1721 42.2403 37.5601 42.2403C36.9481 42.2403 36.4585 42.6943 36.4697 43.2618V43.2721C36.4808 44.7991 37.5935 46.1404 39.1846 46.5222V46.9864C39.1846 47.5539 39.6853 48.0182 40.2973 48.0182C40.9093 48.0182 41.41 47.5539 41.41 46.9864V46.419C43.2793 45.738 44.1917 43.788 43.4684 42.0649C42.9232 40.7752 41.5769 39.9292 40.0859 39.9292Z" fill="black"/>
<path d="M19.045 26.7123H14.7056C14.0936 26.7123 13.5929 27.1766 13.5929 27.7441V43.9427C13.5929 44.5102 14.0936 44.9745 14.7056 44.9745H19.045C19.657 44.9745 20.1577 44.5102 20.1577 43.9427V27.7441C20.1577 27.1766 19.657 26.7123 19.045 26.7123ZM17.9324 43.0142H15.8183V28.7758H17.9324V43.0142Z" fill="black"/>
<path d="M27.8352 24.3393H23.4958C22.8838 24.3393 22.3831 24.8036 22.3831 25.371V44.0459C22.3831 44.6134 22.8838 45.0777 23.4958 45.0777H27.8352C28.4472 45.0777 28.9479 44.6134 28.9479 44.0459V25.371C28.9479 24.8036 28.4472 24.3393 27.8352 24.3393ZM26.7226 43.0142H24.6085V26.4028H26.7226V43.0142Z" fill="black"/>
<path d="M10.2548 35.5855H5.91536C5.30338 35.5855 4.80267 36.0498 4.80267 36.6172V43.9427C4.80267 44.5102 5.30338 44.9745 5.91536 44.9745H10.2548C10.8668 44.9745 11.3675 44.5102 11.3675 43.9427V36.6172C11.3675 36.0498 10.8668 35.5855 10.2548 35.5855ZM9.14215 43.0142H7.02804V37.649H9.14215V43.0142Z" fill="black"/>
<path d="M46.1389 0L38.5281 0.0103176C37.9162 0 37.4155 0.464293 37.4043 1.03176C37.3932 1.59923 37.8939 2.06352 38.5059 2.07384C38.517 2.07384 38.517 2.07384 38.5281 2.07384L43.4573 2.06352L31.3847 13.2169L27.1676 9.33745C26.9562 9.15173 26.6669 9.05887 26.3776 9.06919C26.0883 9.05887 25.799 9.15173 25.5876 9.33745L4.22408 29.1473C3.79013 29.5497 3.79013 30.1997 4.22408 30.5917C4.43549 30.7878 4.71366 30.891 5.01409 30.891C5.31451 30.891 5.59268 30.7878 5.80409 30.5917L26.3888 11.5041L30.6058 15.4455C30.8061 15.6518 31.0954 15.7653 31.3958 15.7756C31.6963 15.7653 31.9744 15.6415 32.1858 15.4455L45.0262 3.52863L45.0151 8.11997C45.0151 8.69775 45.5047 9.16205 46.1278 9.18268C46.7509 9.17237 47.2405 8.69775 47.2405 8.11997L47.2516 1.04208C47.2516 0.474611 46.7509 0 46.1389 0Z" fill="black"/>
</g>
<defs>
<clipPath id="clip0">
<rect width="55" height="51" fill="white"/>
</clipPath>
</defs>
</svg>
