<svg width="80" height="80" viewBox="0 0 80 80" fill="none" xmlns="http://www.w3.org/2000/svg">
<g clip-path="url(#clip0)">
<path d="M1 11.29C1.26522 11.29 1.51957 11.3954 1.70711 11.5829C1.89464 11.7704 2 12.0248 2 12.29V72.69H17.77V41.42C17.7673 41.1788 17.8518 40.9448 18.008 40.761C18.1642 40.5773 18.3815 40.4562 18.62 40.42H18.81H28.14C28.4052 40.42 28.6596 40.5254 28.8471 40.7129C29.0346 40.9004 29.14 41.1548 29.14 41.42V72.64H35.25V30.19C35.2476 29.9473 35.3335 29.7121 35.4918 29.5281C35.65 29.3441 35.8697 29.224 36.11 29.19H36.29H45.63C45.8952 29.19 46.1496 29.2954 46.3371 29.4829C46.5246 29.6704 46.63 29.9248 46.63 30.19V72.64H53.69V23.86C53.6873 23.6188 53.7718 23.3848 53.928 23.201C54.0842 23.0173 54.3015 22.8962 54.54 22.86H54.73H64.07C64.3352 22.86 64.5896 22.9654 64.7771 23.1529C64.9646 23.3404 65.07 23.5948 65.07 23.86V72.64H79C79.2312 72.6343 79.4571 72.709 79.6395 72.8512C79.8218 72.9934 79.9492 73.1944 80 73.42V73.59C80 73.8552 79.8946 74.1096 79.7071 74.2971C79.5196 74.4846 79.2652 74.59 79 74.59H65.18V74.91C65.1827 75.1512 65.0982 75.3852 64.942 75.569C64.7858 75.7527 64.5685 75.8738 64.33 75.91H64.15C63.8848 75.91 63.6304 75.8046 63.4429 75.6171C63.2554 75.4296 63.15 75.1752 63.15 74.91V74.59H55.84V74.91C55.8427 75.1512 55.7582 75.3852 55.602 75.569C55.4458 75.7527 55.2285 75.8738 54.99 75.91H54.81C54.5448 75.91 54.2904 75.8046 54.1029 75.6171C53.9154 75.4296 53.81 75.1752 53.81 74.91V74.59H46.64C46.577 74.7544 46.4716 74.8992 46.3347 75.0098C46.1977 75.1204 46.034 75.1929 45.86 75.22H45.67C45.4556 75.2334 45.2426 75.1775 45.0625 75.0604C44.8824 74.9433 44.7448 74.7714 44.67 74.57H37.3C37.2252 74.7714 37.0876 74.9433 36.9075 75.0604C36.7274 75.1775 36.5144 75.2334 36.3 75.22C36.0856 75.2334 35.8726 75.1775 35.6925 75.0604C35.5124 74.9433 35.3748 74.7714 35.3 74.57H29.18C29.1505 74.8139 29.0323 75.0384 28.8479 75.2007C28.6634 75.363 28.4257 75.4518 28.18 75.45C27.9148 75.45 27.6604 75.3446 27.4729 75.1571C27.2854 74.9696 27.18 74.7152 27.18 74.45V74.57H19.84C19.8116 74.7865 19.7132 74.9877 19.5597 75.143C19.4062 75.2983 19.2061 75.3991 18.99 75.43H18.81C18.5448 75.43 18.2904 75.3246 18.1029 75.1371C17.9154 74.9496 17.81 74.6952 17.81 74.43V74.55H1C0.768838 74.5557 0.542862 74.481 0.360535 74.3388C0.178209 74.1966 0.0508018 73.9956 0 73.77L0 73.6V12.24C0.0128386 11.9835 0.123837 11.7419 0.31 11.565C0.496163 11.3881 0.743223 11.2897 1 11.29V11.29ZM63.1 72.64V24.86H55.84V72.64H63.1ZM44.63 31.19H37.37V72.64H44.64L44.63 31.19ZM27.11 42.42H19.84V72.64H27.11V42.42ZM43.67 4.14L59.08 4.53C59.3452 4.53 59.5996 4.63535 59.7871 4.82289C59.9746 5.01043 60.08 5.26478 60.08 5.53L60.44 20C60.4454 20.1212 60.4264 20.2422 60.3844 20.3559C60.3423 20.4697 60.2779 20.5738 60.195 20.6624C60.1121 20.7509 60.0123 20.8219 59.9015 20.8713C59.7908 20.9207 59.6713 20.9474 59.55 20.95C59.5409 20.9553 59.5305 20.958 59.52 20.958C59.5095 20.958 59.4991 20.9553 59.49 20.95C59.2248 20.95 58.9704 20.8446 58.7829 20.6571C58.5954 20.4696 58.49 20.2152 58.49 19.95L58.18 7.95L44.18 21.24C44.0142 21.4032 43.7966 21.5035 43.5648 21.5236C43.333 21.5437 43.1014 21.4823 42.91 21.35L42.76 21.23L38 16.47L19.73 34.77C19.637 34.8637 19.5264 34.9381 19.4046 34.9889C19.2827 35.0397 19.152 35.0658 19.02 35.0658C18.888 35.0658 18.7573 35.0397 18.6354 34.9889C18.5136 34.9381 18.403 34.8637 18.31 34.77C18.1291 34.6069 18.0194 34.3794 18.0044 34.1363C17.9895 33.8933 18.0705 33.654 18.23 33.47H18.28L37.28 14.47C37.3733 14.3732 37.4851 14.2962 37.6088 14.2437C37.7325 14.1911 37.8656 14.164 38 14.164C38.1344 14.164 38.2675 14.1911 38.3912 14.2437C38.5149 14.2962 38.6267 14.3732 38.72 14.47L43.52 19.19L56.9 6.42L43.71 6.09C43.4757 6.08451 43.25 6.00081 43.0688 5.85221C42.8876 5.70362 42.7613 5.49867 42.71 5.27V5.09C42.699 4.96511 42.7137 4.83931 42.7532 4.72031C42.7926 4.60131 42.8559 4.49162 42.9392 4.39797C43.0226 4.30433 43.1242 4.22871 43.2378 4.17575C43.3514 4.12278 43.4747 4.0936 43.6 4.09H43.67V4.14Z" fill="#056DAE"/>
</g>
<defs>
<clipPath id="clip0">
<rect width="80" height="80" fill="white"/>
</clipPath>
</defs>
</svg>
