<svg width="115" height="78" viewBox="0 0 115 78" fill="none" xmlns="http://www.w3.org/2000/svg">
<path d="M8.70605 67.5171H4.5752L3.71094 70H1.78467L5.81299 59.3359H7.47559L11.5112 70H9.57764L8.70605 67.5171ZM5.09521 66.0229H8.18604L6.64062 61.5991L5.09521 66.0229ZM14.3091 62.9395C14.8901 62.2656 15.625 61.9287 16.5137 61.9287C18.2031 61.9287 19.0601 62.8931 19.0845 64.8218V70H17.3047V64.8877C17.3047 64.3408 17.1851 63.9551 16.9458 63.7305C16.7114 63.501 16.3647 63.3862 15.9058 63.3862C15.1929 63.3862 14.6606 63.7036 14.3091 64.3384V70H12.5293V58.75H14.3091V62.9395ZM20.5566 65.9644C20.5566 65.188 20.7104 64.4897 21.0181 63.8696C21.3257 63.2446 21.7578 62.7661 22.3145 62.4341C22.8711 62.0972 23.5107 61.9287 24.2334 61.9287C25.3027 61.9287 26.1694 62.2729 26.8335 62.9614C27.5024 63.6499 27.8638 64.563 27.9175 65.7007L27.9248 66.1182C27.9248 66.8994 27.7734 67.5977 27.4707 68.2129C27.1729 68.8281 26.7432 69.3042 26.1816 69.6411C25.625 69.978 24.9805 70.1465 24.248 70.1465C23.1299 70.1465 22.2339 69.7754 21.5601 69.0332C20.8911 68.2861 20.5566 67.2925 20.5566 66.0522V65.9644ZM22.3364 66.1182C22.3364 66.9336 22.5049 67.5732 22.8418 68.0371C23.1787 68.4961 23.6475 68.7256 24.248 68.7256C24.8486 68.7256 25.3149 68.4912 25.647 68.0225C25.9839 67.5537 26.1523 66.8677 26.1523 65.9644C26.1523 65.1636 25.979 64.5288 25.6323 64.0601C25.2905 63.5913 24.8242 63.3569 24.2334 63.3569C23.6523 63.3569 23.1909 63.5889 22.8491 64.0527C22.5073 64.5117 22.3364 65.2002 22.3364 66.1182ZM33.5791 63.7012C33.3447 63.6621 33.103 63.6426 32.854 63.6426C32.0386 63.6426 31.4893 63.9551 31.2061 64.5801V70H29.4263V62.0752H31.1255L31.1694 62.9614C31.5991 62.2729 32.1948 61.9287 32.9565 61.9287C33.2104 61.9287 33.4204 61.9629 33.5864 62.0312L33.5791 63.7012ZM38.8525 63.7012C38.6182 63.6621 38.3765 63.6426 38.1274 63.6426C37.312 63.6426 36.7627 63.9551 36.4795 64.5801V70H34.6997V62.0752H36.3989L36.4429 62.9614C36.8726 62.2729 37.4683 61.9287 38.23 61.9287C38.4839 61.9287 38.6938 61.9629 38.8599 62.0312L38.8525 63.7012ZM44.4922 70C44.4141 69.8486 44.3457 69.6021 44.2871 69.2603C43.7207 69.8511 43.0273 70.1465 42.207 70.1465C41.4111 70.1465 40.7617 69.9194 40.2588 69.4653C39.7559 69.0112 39.5044 68.4497 39.5044 67.7808C39.5044 66.936 39.8169 66.2891 40.4419 65.8398C41.0718 65.3857 41.9702 65.1587 43.1372 65.1587H44.2285V64.6387C44.2285 64.2285 44.1138 63.9014 43.8843 63.6572C43.6548 63.4082 43.3057 63.2837 42.8369 63.2837C42.4316 63.2837 42.0996 63.3862 41.8408 63.5913C41.582 63.7915 41.4526 64.0479 41.4526 64.3604H39.6729C39.6729 63.9258 39.8169 63.5205 40.105 63.1445C40.3931 62.7637 40.7837 62.4658 41.2769 62.251C41.7749 62.0361 42.3291 61.9287 42.9395 61.9287C43.8672 61.9287 44.6069 62.1631 45.1587 62.6318C45.7104 63.0957 45.9937 63.75 46.0083 64.5947V68.1689C46.0083 68.8818 46.1084 69.4507 46.3086 69.8755V70H44.4922ZM42.5366 68.7183C42.8882 68.7183 43.2178 68.6328 43.5254 68.4619C43.8379 68.291 44.0723 68.0615 44.2285 67.7734V66.2793H43.269C42.6099 66.2793 42.1143 66.394 41.7822 66.6235C41.4502 66.853 41.2842 67.1777 41.2842 67.5977C41.2842 67.9395 41.3965 68.2129 41.6211 68.418C41.8506 68.6182 42.1558 68.7183 42.5366 68.7183ZM52.0215 63.7012C51.7871 63.6621 51.5454 63.6426 51.2964 63.6426C50.481 63.6426 49.9316 63.9551 49.6484 64.5801V70H47.8687V62.0752H49.5679L49.6118 62.9614C50.0415 62.2729 50.6372 61.9287 51.3989 61.9287C51.6528 61.9287 51.8628 61.9629 52.0288 62.0312L52.0215 63.7012ZM57.3828 70.9155H55.9839L60.1807 59.3359H61.5796L57.3828 70.9155ZM68.6768 70H66.8311V59.3359H68.6768V70ZM72.4341 62.0752L72.4854 62.9907C73.0713 62.2827 73.8403 61.9287 74.7925 61.9287C76.4429 61.9287 77.2827 62.8735 77.312 64.7632V70H75.5322V64.8657C75.5322 64.3628 75.4224 63.9917 75.2026 63.7524C74.9878 63.5083 74.6338 63.3862 74.1406 63.3862C73.4229 63.3862 72.8882 63.7109 72.5366 64.3604V70H70.7568V62.0752H72.4341ZM81.9263 67.7441L83.6035 62.0752H85.4419L82.6953 70H81.1499L78.3813 62.0752H80.2271L81.9263 67.7441ZM89.9463 70.1465C88.8184 70.1465 87.9028 69.7925 87.1997 69.0845C86.5015 68.3716 86.1523 67.4243 86.1523 66.2427V66.0229C86.1523 65.2319 86.3037 64.5264 86.6064 63.9062C86.9141 63.2812 87.3438 62.7954 87.8955 62.4487C88.4473 62.1021 89.0625 61.9287 89.7412 61.9287C90.8203 61.9287 91.6528 62.2729 92.2388 62.9614C92.8296 63.6499 93.125 64.624 93.125 65.8838V66.6016H87.9468C88.0005 67.2559 88.2178 67.7734 88.5986 68.1543C88.9844 68.5352 89.4678 68.7256 90.0488 68.7256C90.8643 68.7256 91.5283 68.396 92.041 67.7368L93.0005 68.6523C92.6831 69.126 92.2583 69.4946 91.7261 69.7583C91.1987 70.0171 90.6055 70.1465 89.9463 70.1465ZM89.7339 63.3569C89.2456 63.3569 88.8501 63.5278 88.5474 63.8696C88.2495 64.2114 88.0591 64.6875 87.9761 65.2979H91.3672V65.166C91.3281 64.5703 91.1694 64.1211 90.8911 63.8184C90.6128 63.5107 90.2271 63.3569 89.7339 63.3569ZM98.6621 63.7012C98.4277 63.6621 98.186 63.6426 97.937 63.6426C97.1216 63.6426 96.5723 63.9551 96.2891 64.5801V70H94.5093V62.0752H96.2085L96.2524 62.9614C96.6821 62.2729 97.2778 61.9287 98.0396 61.9287C98.2935 61.9287 98.5034 61.9629 98.6694 62.0312L98.6621 63.7012ZM102.383 60.1489V62.0752H103.782V63.3936H102.383V67.8174C102.383 68.1201 102.441 68.3398 102.559 68.4766C102.681 68.6084 102.896 68.6743 103.203 68.6743C103.408 68.6743 103.616 68.6499 103.826 68.6011V69.978C103.42 70.0903 103.03 70.1465 102.654 70.1465C101.287 70.1465 100.603 69.3921 100.603 67.8833V63.3936H99.2993V62.0752H100.603V60.1489H102.383ZM107.041 70H105.261V62.0752H107.041V70ZM105.151 60.0171C105.151 59.7437 105.237 59.5166 105.408 59.3359C105.583 59.1553 105.833 59.0649 106.155 59.0649C106.477 59.0649 106.726 59.1553 106.902 59.3359C107.078 59.5166 107.166 59.7437 107.166 60.0171C107.166 60.2856 107.078 60.5103 106.902 60.6909C106.726 60.8667 106.477 60.9546 106.155 60.9546C105.833 60.9546 105.583 60.8667 105.408 60.6909C105.237 60.5103 105.151 60.2856 105.151 60.0171ZM113.135 63.7012C112.9 63.6621 112.659 63.6426 112.41 63.6426C111.594 63.6426 111.045 63.9551 110.762 64.5801V70H108.982V62.0752H110.681L110.725 62.9614C111.155 62.2729 111.75 61.9287 112.512 61.9287C112.766 61.9287 112.976 61.9629 113.142 62.0312L113.135 63.7012Z" fill="white"/>
<g clip-path="url(#clip0)">
<path d="M69.3058 32.3251V14.0526C69.3058 13.4851 68.8051 13.0931 68.1931 13.0931H63.887C63.275 13.0931 62.741 13.4851 62.741 14.0526V30.5402C62.0288 30.5608 61.3167 30.6433 60.6269 30.7981V19.4384C60.6269 18.8709 60.1039 18.4582 59.4919 18.4582H55.1858C54.5739 18.4582 54.062 18.8606 54.062 19.4384V34.8426C52.7379 36.5657 52.0258 38.6395 52.0369 40.7649C52.0369 46.419 56.9773 51 63.0636 51C69.1611 51 74.1015 46.419 74.1015 40.7752C74.1015 37.3911 72.31 34.2339 69.3058 32.3251ZM64.9663 15.1566H67.0804V31.2314C66.4017 30.9838 65.6896 30.7981 64.9663 30.6949V15.1566ZM56.2874 20.5218H58.4015V31.51C57.656 31.8299 56.9439 32.2219 56.2874 32.6862V20.5218ZM70.6521 44.9229C69.061 47.4095 66.1792 48.9262 63.0748 48.9262C58.2123 48.9262 54.2734 45.2634 54.2734 40.7649C54.2734 37.4633 56.4209 34.4815 59.7145 33.2227C59.848 33.2021 59.9704 33.1505 60.0816 33.0886C61.0386 32.7585 62.0622 32.5934 63.0859 32.5934C63.3196 32.5934 63.5421 32.6037 63.7758 32.6243H63.7869C65.1221 32.7172 66.4239 33.0989 67.57 33.7386C71.7536 36.0395 73.1334 41.0435 70.6521 44.9229Z" fill="white"/>
<path d="M63.0859 39.9292C62.307 39.9292 61.6839 39.3514 61.6839 38.6292C61.6839 37.9069 62.2959 37.3292 63.0748 37.3188C63.8536 37.3188 64.4767 37.9069 64.4767 38.6189C64.4767 39.1863 64.9775 39.6506 65.5894 39.6506C66.2125 39.6506 66.7132 39.1966 66.7244 38.6189C66.7244 37.2363 65.812 35.9879 64.4211 35.4823V34.6259C64.4211 34.0585 63.9204 33.5942 63.3084 33.5942C62.6965 33.5942 62.1957 34.0585 62.1957 34.6259V35.3688C60.2597 35.8331 59.0914 37.6696 59.5921 39.4649C59.9926 40.9506 61.428 41.9824 63.0748 41.9824C63.8425 41.9824 64.4656 42.5705 64.4656 43.2824C64.4656 43.9943 63.8314 44.5721 63.0636 44.5721C62.2959 44.5721 61.6728 43.984 61.6728 43.2721C61.6728 42.7046 61.1721 42.2403 60.5601 42.2403C59.9481 42.2403 59.4585 42.6943 59.4697 43.2618V43.2721C59.4808 44.7991 60.5935 46.1404 62.1846 46.5222V46.9864C62.1846 47.5539 62.6853 48.0182 63.2973 48.0182C63.9093 48.0182 64.41 47.5539 64.41 46.9864V46.419C66.2793 45.738 67.1917 43.788 66.4684 42.0649C65.9232 40.7752 64.5769 39.9292 63.0859 39.9292Z" fill="white"/>
<path d="M42.045 26.7123H37.7056C37.0936 26.7123 36.5929 27.1766 36.5929 27.7441V43.9427C36.5929 44.5102 37.0936 44.9745 37.7056 44.9745H42.045C42.657 44.9745 43.1577 44.5102 43.1577 43.9427V27.7441C43.1577 27.1766 42.657 26.7123 42.045 26.7123ZM40.9324 43.0142H38.8183V28.7758H40.9324V43.0142Z" fill="white"/>
<path d="M50.8353 24.3393H46.4958C45.8838 24.3393 45.3831 24.8036 45.3831 25.371V44.0459C45.3831 44.6134 45.8838 45.0777 46.4958 45.0777H50.8353C51.4472 45.0777 51.948 44.6134 51.948 44.0459V25.371C51.948 24.8036 51.4472 24.3393 50.8353 24.3393ZM49.7226 43.0142H47.6085V26.4028H49.7226V43.0142Z" fill="white"/>
<path d="M33.2548 35.5855H28.9154C28.3034 35.5855 27.8027 36.0498 27.8027 36.6172V43.9427C27.8027 44.5102 28.3034 44.9745 28.9154 44.9745H33.2548C33.8668 44.9745 34.3675 44.5102 34.3675 43.9427V36.6172C34.3675 36.0498 33.8668 35.5855 33.2548 35.5855ZM32.1421 43.0142H30.028V37.649H32.1421V43.0142Z" fill="white"/>
<path d="M69.1389 0L61.5281 0.0103176C60.9162 0 60.4155 0.464293 60.4043 1.03176C60.3932 1.59923 60.8939 2.06352 61.5059 2.07384C61.517 2.07384 61.517 2.07384 61.5281 2.07384L66.4573 2.06352L54.3847 13.2169L50.1676 9.33745C49.9562 9.15173 49.6669 9.05887 49.3776 9.06919C49.0883 9.05887 48.799 9.15173 48.5876 9.33745L27.2241 29.1473C26.7901 29.5497 26.7901 30.1997 27.2241 30.5917C27.4355 30.7878 27.7137 30.891 28.0141 30.891C28.3145 30.891 28.5927 30.7878 28.8041 30.5917L49.3888 11.5041L53.6058 15.4455C53.8061 15.6518 54.0954 15.7653 54.3958 15.7756C54.6963 15.7653 54.9744 15.6415 55.1858 15.4455L68.0262 3.52863L68.0151 8.11997C68.0151 8.69775 68.5047 9.16205 69.1278 9.18268C69.7509 9.17237 70.2405 8.69775 70.2405 8.11997L70.2516 1.04208C70.2516 0.474611 69.7509 0 69.1389 0Z" fill="white"/>
</g>
<defs>
<clipPath id="clip0">
<rect width="55" height="51" fill="white" transform="translate(23)"/>
</clipPath>
</defs>
</svg>
