<svg width="74" height="78" viewBox="0 0 74 78" fill="none" xmlns="http://www.w3.org/2000/svg">
<path d="M16.1846 70H14.3389V59.3359H16.1846V70ZM19.9419 62.0752L19.9932 62.9907C20.5791 62.2827 21.3481 61.9287 22.3003 61.9287C23.9507 61.9287 24.7905 62.8735 24.8198 64.7632V70H23.04V64.8657C23.04 64.3628 22.9302 63.9917 22.7104 63.7524C22.4956 63.5083 22.1416 63.3862 21.6484 63.3862C20.9307 63.3862 20.396 63.7109 20.0444 64.3604V70H18.2646V62.0752H19.9419ZM29.4341 67.7441L31.1113 62.0752H32.9497L30.2031 70H28.6577L25.8892 62.0752H27.7349L29.4341 67.7441ZM37.4541 70.1465C36.3262 70.1465 35.4106 69.7925 34.7075 69.0845C34.0093 68.3716 33.6602 67.4243 33.6602 66.2427V66.0229C33.6602 65.2319 33.8115 64.5264 34.1143 63.9062C34.4219 63.2812 34.8516 62.7954 35.4033 62.4487C35.9551 62.1021 36.5703 61.9287 37.249 61.9287C38.3281 61.9287 39.1606 62.2729 39.7466 62.9614C40.3374 63.6499 40.6328 64.624 40.6328 65.8838V66.6016H35.4546C35.5083 67.2559 35.7256 67.7734 36.1064 68.1543C36.4922 68.5352 36.9756 68.7256 37.5566 68.7256C38.3721 68.7256 39.0361 68.396 39.5488 67.7368L40.5083 68.6523C40.1909 69.126 39.7661 69.4946 39.2339 69.7583C38.7065 70.0171 38.1133 70.1465 37.4541 70.1465ZM37.2417 63.3569C36.7534 63.3569 36.3579 63.5278 36.0552 63.8696C35.7573 64.2114 35.5669 64.6875 35.4839 65.2979H38.875V65.166C38.8359 64.5703 38.6772 64.1211 38.3989 63.8184C38.1206 63.5107 37.7349 63.3569 37.2417 63.3569ZM46.1699 63.7012C45.9355 63.6621 45.6938 63.6426 45.4448 63.6426C44.6294 63.6426 44.0801 63.9551 43.7969 64.5801V70H42.0171V62.0752H43.7163L43.7603 62.9614C44.1899 62.2729 44.7856 61.9287 45.5474 61.9287C45.8013 61.9287 46.0112 61.9629 46.1772 62.0312L46.1699 63.7012ZM49.8906 60.1489V62.0752H51.2896V63.3936H49.8906V67.8174C49.8906 68.1201 49.9492 68.3398 50.0664 68.4766C50.1885 68.6084 50.4033 68.6743 50.7109 68.6743C50.916 68.6743 51.1235 68.6499 51.3335 68.6011V69.978C50.9282 70.0903 50.5376 70.1465 50.1616 70.1465C48.7944 70.1465 48.1108 69.3921 48.1108 67.8833V63.3936H46.8071V62.0752H48.1108V60.1489H49.8906ZM54.5488 70H52.769V62.0752H54.5488V70ZM52.6592 60.0171C52.6592 59.7437 52.7446 59.5166 52.9155 59.3359C53.0913 59.1553 53.3403 59.0649 53.6626 59.0649C53.9849 59.0649 54.2339 59.1553 54.4097 59.3359C54.5854 59.5166 54.6733 59.7437 54.6733 60.0171C54.6733 60.2856 54.5854 60.5103 54.4097 60.6909C54.2339 60.8667 53.9849 60.9546 53.6626 60.9546C53.3403 60.9546 53.0913 60.8667 52.9155 60.6909C52.7446 60.5103 52.6592 60.2856 52.6592 60.0171ZM60.6426 63.7012C60.4082 63.6621 60.1665 63.6426 59.9175 63.6426C59.1021 63.6426 58.5527 63.9551 58.2695 64.5801V70H56.4897V62.0752H58.189L58.2329 62.9614C58.6626 62.2729 59.2583 61.9287 60.02 61.9287C60.2739 61.9287 60.4839 61.9629 60.6499 62.0312L60.6426 63.7012Z" fill="white"/>
<g clip-path="url(#clip0)">
<path d="M58.3058 32.3251V14.0526C58.3058 13.4851 57.8051 13.0931 57.1931 13.0931H52.887C52.275 13.0931 51.741 13.4851 51.741 14.0526V30.5402C51.0288 30.5608 50.3167 30.6433 49.6269 30.7981V19.4384C49.6269 18.8709 49.1039 18.4582 48.4919 18.4582H44.1858C43.5739 18.4582 43.062 18.8606 43.062 19.4384V34.8426C41.7379 36.5657 41.0258 38.6395 41.0369 40.7649C41.0369 46.419 45.9772 51 52.0636 51C58.1611 51 63.1015 46.419 63.1015 40.7752C63.1015 37.3911 61.31 34.2339 58.3058 32.3251ZM53.9663 15.1566H56.0804V31.2314C55.4017 30.9838 54.6896 30.7981 53.9663 30.6949V15.1566ZM45.2874 20.5217H47.4015V31.51C46.656 31.8299 45.9439 32.2219 45.2874 32.6862V20.5217ZM59.6521 44.9229C58.061 47.4095 55.1792 48.9262 52.0748 48.9262C47.2123 48.9262 43.2734 45.2634 43.2734 40.7649C43.2734 37.4633 45.4209 34.4815 48.7145 33.2227C48.848 33.2021 48.9704 33.1505 49.0816 33.0886C50.0386 32.7585 51.0622 32.5934 52.0859 32.5934C52.3196 32.5934 52.5421 32.6037 52.7758 32.6243H52.7869C54.1221 32.7172 55.4239 33.0989 56.57 33.7386C60.7536 36.0395 62.1334 41.0435 59.6521 44.9229Z" fill="white"/>
<path d="M52.0859 39.9292C51.307 39.9292 50.6839 39.3514 50.6839 38.6292C50.6839 37.9069 51.2959 37.3292 52.0748 37.3188C52.8536 37.3188 53.4767 37.9069 53.4767 38.6189C53.4767 39.1863 53.9775 39.6506 54.5894 39.6506C55.2125 39.6506 55.7132 39.1966 55.7244 38.6189C55.7244 37.2363 54.812 35.9879 53.4211 35.4823V34.6259C53.4211 34.0585 52.9204 33.5942 52.3084 33.5942C51.6965 33.5942 51.1957 34.0585 51.1957 34.6259V35.3688C49.2597 35.8331 48.0914 37.6696 48.5921 39.4649C48.9926 40.9506 50.428 41.9824 52.0748 41.9824C52.8425 41.9824 53.4656 42.5705 53.4656 43.2824C53.4656 43.9943 52.8314 44.5721 52.0636 44.5721C51.2959 44.5721 50.6728 43.984 50.6728 43.2721C50.6728 42.7046 50.1721 42.2403 49.5601 42.2403C48.9481 42.2403 48.4585 42.6943 48.4697 43.2618V43.2721C48.4808 44.7991 49.5935 46.1404 51.1846 46.5222V46.9864C51.1846 47.5539 51.6853 48.0182 52.2973 48.0182C52.9093 48.0182 53.41 47.5539 53.41 46.9864V46.419C55.2793 45.738 56.1917 43.788 55.4684 42.0649C54.9232 40.7752 53.5769 39.9292 52.0859 39.9292Z" fill="white"/>
<path d="M31.045 26.7123H26.7056C26.0936 26.7123 25.5929 27.1766 25.5929 27.7441V43.9428C25.5929 44.5102 26.0936 44.9745 26.7056 44.9745H31.045C31.657 44.9745 32.1577 44.5102 32.1577 43.9428V27.7441C32.1577 27.1766 31.657 26.7123 31.045 26.7123ZM29.9324 43.0142H27.8183V28.7759H29.9324V43.0142Z" fill="white"/>
<path d="M39.8353 24.3393H35.4958C34.8838 24.3393 34.3831 24.8036 34.3831 25.371V44.0459C34.3831 44.6134 34.8838 45.0777 35.4958 45.0777H39.8353C40.4473 45.0777 40.948 44.6134 40.948 44.0459V25.371C40.948 24.8036 40.4473 24.3393 39.8353 24.3393ZM38.7226 43.0142H36.6085V26.4028H38.7226V43.0142Z" fill="white"/>
<path d="M22.2548 35.5855H17.9154C17.3034 35.5855 16.8027 36.0498 16.8027 36.6172V43.9428C16.8027 44.5102 17.3034 44.9745 17.9154 44.9745H22.2548C22.8668 44.9745 23.3675 44.5102 23.3675 43.9428V36.6172C23.3675 36.0498 22.8668 35.5855 22.2548 35.5855ZM21.1421 43.0142H19.028V37.649H21.1421V43.0142Z" fill="white"/>
<path d="M58.1389 0L50.5281 0.0103176C49.9162 0 49.4155 0.464293 49.4043 1.03176C49.3932 1.59923 49.8939 2.06352 50.5059 2.07384C50.517 2.07384 50.517 2.07384 50.5281 2.07384L55.4573 2.06352L43.3847 13.2169L39.1676 9.33745C38.9562 9.15173 38.6669 9.05887 38.3776 9.06919C38.0883 9.05887 37.799 9.15173 37.5876 9.33745L16.2241 29.1473C15.7901 29.5497 15.7901 30.1997 16.2241 30.5917C16.4355 30.7878 16.7137 30.891 17.0141 30.891C17.3145 30.891 17.5927 30.7878 17.8041 30.5917L38.3888 11.5041L42.6058 15.4455C42.8061 15.6518 43.0954 15.7653 43.3958 15.7756C43.6963 15.7653 43.9744 15.6415 44.1858 15.4455L57.0262 3.52863L57.0151 8.11997C57.0151 8.69775 57.5047 9.16205 58.1278 9.18268C58.7509 9.17237 59.2405 8.69775 59.2405 8.11997L59.2516 1.04208C59.2516 0.474611 58.7509 0 58.1389 0Z" fill="white"/>
</g>
<defs>
<clipPath id="clip0">
<rect width="55" height="51" fill="white" transform="translate(12)"/>
</clipPath>
</defs>
</svg>
