<svg width="112" height="56" viewBox="0 0 112 56" fill="none" xmlns="http://www.w3.org/2000/svg">
<path d="M7.28662 49.1204H2.81885L1.81543 51.9036H0.365234L4.4375 41.2395H5.66797L9.74756 51.9036H8.30469L7.28662 49.1204ZM3.24365 47.9631H6.86914L5.05273 42.9753L3.24365 47.9631ZM12.3257 44.9382C12.9263 44.2009 13.7075 43.8323 14.6694 43.8323C16.3442 43.8323 17.189 44.7771 17.2036 46.6667V51.9036H15.8486V46.6594C15.8438 46.0881 15.7119 45.6658 15.4531 45.3923C15.1992 45.1189 14.8013 44.9822 14.2593 44.9822C13.8198 44.9822 13.4341 45.0994 13.1021 45.3337C12.77 45.5681 12.5112 45.8757 12.3257 46.2566V51.9036H10.9707V40.6536H12.3257V44.9382ZM18.8735 47.8679C18.8735 47.0916 19.0249 46.3933 19.3276 45.7732C19.6353 45.1531 20.0601 44.6746 20.6021 44.3376C21.1489 44.0007 21.7715 43.8323 22.4697 43.8323C23.5488 43.8323 24.4204 44.2058 25.0845 44.9529C25.7534 45.7 26.0879 46.6936 26.0879 47.9338V48.0291C26.0879 48.8005 25.939 49.4939 25.6411 50.1091C25.3481 50.7195 24.9258 51.1956 24.374 51.5374C23.8271 51.8792 23.1973 52.05 22.4844 52.05C21.4102 52.05 20.5386 51.6765 19.8696 50.9294C19.2056 50.1824 18.8735 49.1936 18.8735 47.9631V47.8679ZM20.2358 48.0291C20.2358 48.908 20.4385 49.6135 20.8438 50.1458C21.2539 50.678 21.8008 50.9441 22.4844 50.9441C23.1729 50.9441 23.7197 50.6755 24.125 50.1384C24.5303 49.5964 24.7329 48.8396 24.7329 47.8679C24.7329 46.9988 24.5254 46.2957 24.1104 45.7585C23.7002 45.2166 23.1533 44.9456 22.4697 44.9456C21.8008 44.9456 21.2612 45.2117 20.8511 45.7439C20.4409 46.2761 20.2358 47.0378 20.2358 48.0291ZM31.6177 45.1946C31.4126 45.1604 31.1904 45.1433 30.9512 45.1433C30.0625 45.1433 29.4595 45.5217 29.1421 46.2786V51.9036H27.7871V43.9788H29.1055L29.1274 44.8943C29.5718 44.1863 30.2017 43.8323 31.0171 43.8323C31.2808 43.8323 31.481 43.8665 31.6177 43.9348V45.1946ZM36.7007 45.1946C36.4956 45.1604 36.2734 45.1433 36.0342 45.1433C35.1455 45.1433 34.5425 45.5217 34.2251 46.2786V51.9036H32.8701V43.9788H34.1885L34.2104 44.8943C34.6548 44.1863 35.2847 43.8323 36.1001 43.8323C36.3638 43.8323 36.564 43.8665 36.7007 43.9348V45.1946ZM42.5527 51.9036C42.4746 51.7473 42.4111 51.469 42.3623 51.0686C41.7324 51.7229 40.9805 52.05 40.1064 52.05C39.3252 52.05 38.6831 51.8303 38.1802 51.3909C37.6821 50.9465 37.4331 50.385 37.4331 49.7063C37.4331 48.8811 37.7456 48.2415 38.3706 47.7874C39.0005 47.3284 39.8843 47.0989 41.022 47.0989H42.3403V46.4763C42.3403 46.0027 42.1987 45.6267 41.9155 45.3484C41.6323 45.0652 41.2148 44.9236 40.6631 44.9236C40.1797 44.9236 39.7744 45.0457 39.4473 45.2898C39.1201 45.5339 38.9565 45.8293 38.9565 46.176H37.5942C37.5942 45.7805 37.7334 45.3997 38.0117 45.0334C38.2949 44.6624 38.6758 44.3694 39.1543 44.1545C39.6377 43.9397 40.1675 43.8323 40.7437 43.8323C41.6567 43.8323 42.3721 44.0618 42.8896 44.5208C43.4072 44.9749 43.6758 45.6023 43.6953 46.4031V50.0505C43.6953 50.7781 43.7881 51.3567 43.9736 51.7864V51.9036H42.5527ZM40.3042 50.8708C40.729 50.8708 41.1318 50.761 41.5127 50.5413C41.8936 50.3215 42.1694 50.0359 42.3403 49.6843V48.0583H41.2783C39.6182 48.0583 38.7881 48.5442 38.7881 49.5159C38.7881 49.9407 38.9297 50.2727 39.2129 50.512C39.4961 50.7512 39.8599 50.8708 40.3042 50.8708ZM49.6499 45.1946C49.4448 45.1604 49.2227 45.1433 48.9834 45.1433C48.0947 45.1433 47.4917 45.5217 47.1743 46.2786V51.9036H45.8193V43.9788H47.1377L47.1597 44.8943C47.604 44.1863 48.2339 43.8323 49.0493 43.8323C49.313 43.8323 49.5132 43.8665 49.6499 43.9348V45.1946ZM57.9116 52.05C56.8374 52.05 55.9634 51.6985 55.2896 50.9954C54.6157 50.2874 54.2788 49.3425 54.2788 48.1609V47.9119C54.2788 47.1257 54.4277 46.425 54.7256 45.8098C55.0283 45.1897 55.4482 44.7063 55.9854 44.3596C56.5273 44.0081 57.1133 43.8323 57.7432 43.8323C58.7734 43.8323 59.5742 44.1716 60.1455 44.8503C60.7168 45.5291 61.0024 46.5007 61.0024 47.7654V48.3293H55.6338C55.6533 49.1106 55.8804 49.7429 56.3149 50.2263C56.7544 50.7048 57.311 50.9441 57.9849 50.9441C58.4634 50.9441 58.8687 50.8464 59.2007 50.6511C59.5327 50.4558 59.8232 50.197 60.0723 49.8748L60.8999 50.5193C60.2358 51.5398 59.2397 52.05 57.9116 52.05ZM57.7432 44.9456C57.1963 44.9456 56.7373 45.1458 56.3662 45.5461C55.9951 45.9417 55.7656 46.4983 55.6777 47.2161H59.6475V47.1135C59.6084 46.425 59.4229 45.8928 59.0908 45.5168C58.7588 45.136 58.3096 44.9456 57.7432 44.9456ZM68.019 51.9036H66.6128V41.2395H68.019V51.9036ZM71.6665 43.9788L71.7104 44.9749C72.3159 44.2131 73.1069 43.8323 74.0835 43.8323C75.7583 43.8323 76.603 44.7771 76.6177 46.6667V51.9036H75.2627V46.6594C75.2578 46.0881 75.126 45.6658 74.8672 45.3923C74.6133 45.1189 74.2153 44.9822 73.6733 44.9822C73.2339 44.9822 72.8481 45.0994 72.5161 45.3337C72.1841 45.5681 71.9253 45.8757 71.7397 46.2566V51.9036H70.3848V43.9788H71.6665ZM81.2759 50.0652L83.2388 43.9788H84.623L81.7812 51.9036H80.7485L77.8774 43.9788H79.2617L81.2759 50.0652ZM89.1128 52.05C88.0386 52.05 87.1646 51.6985 86.4907 50.9954C85.8169 50.2874 85.48 49.3425 85.48 48.1609V47.9119C85.48 47.1257 85.6289 46.425 85.9268 45.8098C86.2295 45.1897 86.6494 44.7063 87.1865 44.3596C87.7285 44.0081 88.3145 43.8323 88.9443 43.8323C89.9746 43.8323 90.7754 44.1716 91.3467 44.8503C91.918 45.5291 92.2036 46.5007 92.2036 47.7654V48.3293H86.835C86.8545 49.1106 87.0815 49.7429 87.5161 50.2263C87.9556 50.7048 88.5122 50.9441 89.186 50.9441C89.6646 50.9441 90.0698 50.8464 90.4019 50.6511C90.7339 50.4558 91.0244 50.197 91.2734 49.8748L92.1011 50.5193C91.437 51.5398 90.4409 52.05 89.1128 52.05ZM88.9443 44.9456C88.3975 44.9456 87.9385 45.1458 87.5674 45.5461C87.1963 45.9417 86.9668 46.4983 86.8789 47.2161H90.8486V47.1135C90.8096 46.425 90.624 45.8928 90.292 45.5168C89.96 45.136 89.5107 44.9456 88.9443 44.9456ZM97.6089 45.1946C97.4038 45.1604 97.1816 45.1433 96.9424 45.1433C96.0537 45.1433 95.4507 45.5217 95.1333 46.2786V51.9036H93.7783V43.9788H95.0967L95.1187 44.8943C95.563 44.1863 96.1929 43.8323 97.0083 43.8323C97.272 43.8323 97.4722 43.8665 97.6089 43.9348V45.1946ZM101.066 42.0598V43.9788H102.545V45.0261H101.066V49.9407C101.066 50.2581 101.132 50.4973 101.264 50.6584C101.396 50.8147 101.62 50.8928 101.938 50.8928C102.094 50.8928 102.309 50.8635 102.582 50.8049V51.9036C102.226 52.0012 101.879 52.05 101.542 52.05C100.937 52.05 100.48 51.8669 100.172 51.5007C99.8647 51.1345 99.7109 50.6145 99.7109 49.9407V45.0261H98.2681V43.9788H99.7109V42.0598H101.066ZM105.607 51.9036H104.252V43.9788H105.607V51.9036ZM104.142 41.8767C104.142 41.657 104.208 41.4714 104.34 41.3201C104.477 41.1687 104.677 41.093 104.94 41.093C105.204 41.093 105.404 41.1687 105.541 41.3201C105.678 41.4714 105.746 41.657 105.746 41.8767C105.746 42.0964 105.678 42.2795 105.541 42.426C105.404 42.5725 105.204 42.6458 104.94 42.6458C104.677 42.6458 104.477 42.5725 104.34 42.426C104.208 42.2795 104.142 42.0964 104.142 41.8767ZM111.613 45.1946C111.408 45.1604 111.186 45.1433 110.946 45.1433C110.058 45.1433 109.455 45.5217 109.137 46.2786V51.9036H107.782V43.9788H109.101L109.123 44.8943C109.567 44.1863 110.197 43.8323 111.012 43.8323C111.276 43.8323 111.476 43.8665 111.613 43.9348V45.1946Z" fill="white"/>
<g clip-path="url(#clip0)">
<path d="M72.5252 23.1843V10.0788C72.5252 9.67183 72.1088 9.39062 71.5998 9.39062H68.0183C67.5093 9.39062 67.0651 9.67183 67.0651 10.0788V21.9041C66.4728 21.9189 65.8805 21.9781 65.3068 22.0891V13.9416C65.3068 13.5346 64.8718 13.2386 64.3628 13.2386H60.7813C60.2724 13.2386 59.8466 13.5272 59.8466 13.9416V24.9899C58.7454 26.2257 58.1531 27.7131 58.1623 29.2375C58.1623 33.2927 62.2713 36.5783 67.3335 36.5783C72.4049 36.5783 76.5139 33.2927 76.5139 29.2449C76.5139 26.8177 75.0239 24.5533 72.5252 23.1843ZM68.916 10.8706H70.6743V22.3999C70.1098 22.2223 69.5175 22.0891 68.916 22.0151V10.8706ZM61.6975 14.7186H63.4559V22.5997C62.8358 22.8291 62.2435 23.1103 61.6975 23.4433V14.7186ZM73.645 32.2197C72.3216 34.0031 69.9247 35.0909 67.3427 35.0909C63.2986 35.0909 60.0225 32.4639 60.0225 29.2375C60.0225 26.8695 61.8086 24.7309 64.5479 23.8281C64.659 23.8133 64.7608 23.7763 64.8533 23.7319C65.6492 23.4951 66.5006 23.3767 67.352 23.3767C67.5463 23.3767 67.7314 23.3841 67.9258 23.3989H67.935C69.0456 23.4655 70.1283 23.7393 71.0815 24.1981C74.5611 25.8483 75.7088 29.4373 73.645 32.2197Z" fill="white"/>
<path d="M67.3521 28.6381C66.7043 28.6381 66.186 28.2237 66.186 27.7057C66.186 27.1877 66.695 26.7733 67.3428 26.7659C67.9906 26.7659 68.5089 27.1877 68.5089 27.6983C68.5089 28.1053 68.9253 28.4383 69.4343 28.4383C69.9526 28.4383 70.369 28.1127 70.3783 27.6983C70.3783 26.7067 69.6194 25.8113 68.4626 25.4487V24.8345C68.4626 24.4275 68.0462 24.0945 67.5372 24.0945C67.0282 24.0945 66.6117 24.4275 66.6117 24.8345V25.3673C65.0015 25.7003 64.0297 27.0175 64.4462 28.3051C64.7794 29.3707 65.9732 30.1107 67.3428 30.1107C67.9814 30.1107 68.4996 30.5325 68.4996 31.0431C68.4996 31.5537 67.9721 31.9681 67.3336 31.9681C66.695 31.9681 66.1768 31.5463 66.1768 31.0357C66.1768 30.6287 65.7603 30.2957 65.2513 30.2957C64.7423 30.2957 64.3351 30.6213 64.3444 31.0283V31.0357C64.3536 32.1309 65.2791 33.0929 66.6025 33.3667V33.6997C66.6025 34.1067 67.0189 34.4397 67.5279 34.4397C68.0369 34.4397 68.4534 34.1067 68.4534 33.6997V33.2927C70.0081 32.8043 70.767 31.4057 70.1654 30.1699C69.712 29.2449 68.5922 28.6381 67.3521 28.6381Z" fill="white"/>
<path d="M49.8519 19.1587H46.2427C45.7337 19.1587 45.3173 19.4917 45.3173 19.8987V31.5167C45.3173 31.9237 45.7337 32.2567 46.2427 32.2567H49.8519C50.3609 32.2567 50.7774 31.9237 50.7774 31.5167V19.8987C50.7774 19.4917 50.3609 19.1587 49.8519 19.1587ZM48.9265 30.8507H47.1681V20.6387H48.9265V30.8507Z" fill="white"/>
<path d="M57.163 17.4567H53.5537C53.0447 17.4567 52.6283 17.7897 52.6283 18.1967V31.5907C52.6283 31.9977 53.0447 32.3307 53.5537 32.3307H57.163C57.672 32.3307 58.0884 31.9977 58.0884 31.5907V18.1967C58.0884 17.7897 57.672 17.4567 57.163 17.4567ZM56.2375 30.8507H54.4792V18.9367H56.2375V30.8507Z" fill="white"/>
<path d="M42.5409 25.5227H38.9317C38.4227 25.5227 38.0062 25.8557 38.0062 26.2627V31.5167C38.0062 31.9237 38.4227 32.2567 38.9317 32.2567H42.5409C43.0499 32.2567 43.4664 31.9237 43.4664 31.5167V26.2627C43.4664 25.8557 43.0499 25.5227 42.5409 25.5227ZM41.6155 30.8507H39.8571V27.0027H41.6155V30.8507Z" fill="white"/>
<path d="M72.3865 0L66.0564 0.00740002C65.5474 0 65.131 0.333001 65.1217 0.740002C65.1125 1.147 65.5289 1.48 66.0379 1.4874C66.0472 1.4874 66.0472 1.4874 66.0564 1.4874L70.1561 1.48L60.1151 9.47943L56.6076 6.69702C56.4318 6.56382 56.1912 6.49722 55.9506 6.50462C55.71 6.49722 55.4693 6.56382 55.2935 6.69702L37.525 20.9051C37.164 21.1937 37.164 21.6599 37.525 21.9411C37.7008 22.0817 37.9322 22.1557 38.182 22.1557C38.4319 22.1557 38.6633 22.0817 38.8391 21.9411L55.9598 8.25103L59.4673 11.0778C59.6338 11.2258 59.8744 11.3072 60.1243 11.3146C60.3742 11.3072 60.6056 11.2184 60.7814 11.0778L71.461 2.53081L71.4518 5.82382C71.4518 6.23822 71.859 6.57122 72.3772 6.58602C72.8955 6.57862 73.3026 6.23822 73.3026 5.82382L73.3119 0.747402C73.3119 0.340401 72.8955 0 72.3865 0Z" fill="white"/>
</g>
<defs>
<clipPath id="clip0">
<rect width="45.7447" height="36.5783" fill="white" transform="translate(34.0117)"/>
</clipPath>
</defs>
</svg>
