<svg width="285" height="23" viewBox="0 0 285 23" fill="none" xmlns="http://www.w3.org/2000/svg">
<path d="M48.8516 11.3203H50.4922L50.6191 21.5156H48.7246L48.8516 11.3203ZM50.6875 8.27344C50.6875 8.56641 50.5964 8.8138 50.4141 9.01562C50.2383 9.21745 49.9746 9.31836 49.623 9.31836C49.2715 9.31836 49.0046 9.21745 48.8223 9.01562C48.64 8.8138 48.5488 8.56641 48.5488 8.27344C48.5488 7.98047 48.64 7.73633 48.8223 7.54102C49.0046 7.3457 49.2715 7.24805 49.623 7.24805C49.9746 7.24805 50.2383 7.3457 50.4141 7.54102C50.5964 7.73633 50.6875 7.98047 50.6875 8.27344ZM66.5762 14.2891H60.6191L59.2812 18H57.3477L62.7773 3.78125H64.418L69.8574 18H67.9336L66.5762 14.2891ZM61.1855 12.7461H66.0195L63.5977 6.0957L61.1855 12.7461ZM85.4141 12.834C85.4141 14.4421 85.0462 15.7376 84.3105 16.7207C83.5749 17.7038 82.5788 18.1953 81.3223 18.1953C80.0397 18.1953 79.0306 17.7884 78.2949 16.9746V22.0625H76.4883V7.43359H78.1387L78.2266 8.60547C78.9622 7.69401 79.9844 7.23828 81.293 7.23828C82.5625 7.23828 83.5651 7.7168 84.3008 8.67383C85.043 9.63086 85.4141 10.9622 85.4141 12.668V12.834ZM83.6074 12.6289C83.6074 11.4375 83.3535 10.4967 82.8457 9.80664C82.3379 9.11654 81.6413 8.77148 80.7559 8.77148C79.6621 8.77148 78.8418 9.25651 78.2949 10.2266V15.2754C78.8353 16.2389 79.6621 16.7207 80.7754 16.7207C81.6413 16.7207 82.3281 16.3789 82.8359 15.6953C83.3503 15.0052 83.6074 13.9831 83.6074 12.6289ZM97.8262 9.05469C97.5527 9.00911 97.2565 8.98633 96.9375 8.98633C95.7526 8.98633 94.9486 9.49089 94.5254 10.5V18H92.7188V7.43359H94.4766L94.5059 8.6543C95.0983 7.71029 95.9382 7.23828 97.0254 7.23828C97.377 7.23828 97.6439 7.28385 97.8262 7.375V9.05469ZM108.686 18.1953C107.253 18.1953 106.088 17.7266 105.189 16.7891C104.291 15.8451 103.842 14.5853 103.842 13.0098V12.6777C103.842 11.6296 104.04 10.6953 104.438 9.875C104.841 9.04818 105.401 8.40365 106.117 7.94141C106.84 7.47266 107.621 7.23828 108.461 7.23828C109.835 7.23828 110.902 7.69076 111.664 8.5957C112.426 9.50065 112.807 10.7962 112.807 12.4824V13.2344H105.648C105.674 14.276 105.977 15.1191 106.557 15.7637C107.143 16.4017 107.885 16.7207 108.783 16.7207C109.421 16.7207 109.962 16.5905 110.404 16.3301C110.847 16.0697 111.234 15.7246 111.566 15.2949L112.67 16.1543C111.785 17.515 110.456 18.1953 108.686 18.1953ZM108.461 8.72266C107.732 8.72266 107.12 8.98958 106.625 9.52344C106.13 10.0508 105.824 10.793 105.707 11.75H111V11.6133C110.948 10.6953 110.701 9.98568 110.258 9.48438C109.815 8.97656 109.216 8.72266 108.461 8.72266ZM121.615 7.43359L121.674 8.76172C122.481 7.74609 123.536 7.23828 124.838 7.23828C127.071 7.23828 128.197 8.49805 128.217 11.0176V18H126.41V11.0078C126.404 10.2461 126.228 9.68294 125.883 9.31836C125.544 8.95378 125.014 8.77148 124.291 8.77148C123.705 8.77148 123.191 8.92773 122.748 9.24023C122.305 9.55273 121.96 9.96289 121.713 10.4707V18H119.906V7.43359H121.615ZM135.502 12.6289C135.502 11.0078 135.886 9.70573 136.654 8.72266C137.423 7.73307 138.428 7.23828 139.672 7.23828C140.909 7.23828 141.889 7.66146 142.611 8.50781V3H144.418V18H142.758L142.67 16.8672C141.947 17.7526 140.941 18.1953 139.652 18.1953C138.428 18.1953 137.429 17.694 136.654 16.6914C135.886 15.6888 135.502 14.3802 135.502 12.7656V12.6289ZM137.309 12.834C137.309 14.0319 137.556 14.9694 138.051 15.6465C138.546 16.3236 139.229 16.6621 140.102 16.6621C141.247 16.6621 142.084 16.1478 142.611 15.1191V10.2656C142.071 9.26953 141.241 8.77148 140.121 8.77148C139.236 8.77148 138.546 9.11328 138.051 9.79688C137.556 10.4805 137.309 11.4928 137.309 12.834ZM156.615 18.1953C155.183 18.1953 154.018 17.7266 153.119 16.7891C152.221 15.8451 151.771 14.5853 151.771 13.0098V12.6777C151.771 11.6296 151.97 10.6953 152.367 9.875C152.771 9.04818 153.331 8.40365 154.047 7.94141C154.77 7.47266 155.551 7.23828 156.391 7.23828C157.764 7.23828 158.832 7.69076 159.594 8.5957C160.355 9.50065 160.736 10.7962 160.736 12.4824V13.2344H153.578C153.604 14.276 153.907 15.1191 154.486 15.7637C155.072 16.4017 155.814 16.7207 156.713 16.7207C157.351 16.7207 157.891 16.5905 158.334 16.3301C158.777 16.0697 159.164 15.7246 159.496 15.2949L160.6 16.1543C159.714 17.515 158.386 18.1953 156.615 18.1953ZM156.391 8.72266C155.661 8.72266 155.049 8.98958 154.555 9.52344C154.06 10.0508 153.754 10.793 153.637 11.75H158.93V11.6133C158.878 10.6953 158.63 9.98568 158.188 9.48438C157.745 8.97656 157.146 8.72266 156.391 8.72266ZM184.32 18C184.216 17.7917 184.132 17.4206 184.066 16.8867C183.227 17.7591 182.224 18.1953 181.059 18.1953C180.017 18.1953 179.161 17.9023 178.49 17.3164C177.826 16.724 177.494 15.9753 177.494 15.0703C177.494 13.9701 177.911 13.1172 178.744 12.5117C179.584 11.8997 180.762 11.5938 182.279 11.5938H184.037V10.7637C184.037 10.1322 183.848 9.63086 183.471 9.25977C183.093 8.88216 182.536 8.69336 181.801 8.69336C181.156 8.69336 180.616 8.85612 180.18 9.18164C179.743 9.50716 179.525 9.90104 179.525 10.3633H177.709C177.709 9.83594 177.895 9.32812 178.266 8.83984C178.643 8.34505 179.151 7.95443 179.789 7.66797C180.434 7.38151 181.14 7.23828 181.908 7.23828C183.126 7.23828 184.079 7.54427 184.77 8.15625C185.46 8.76172 185.818 9.59831 185.844 10.666V15.5293C185.844 16.4993 185.967 17.2708 186.215 17.8438V18H184.32ZM181.322 16.623C181.889 16.623 182.426 16.4766 182.934 16.1836C183.441 15.8906 183.809 15.5098 184.037 15.041V12.873H182.621C180.408 12.873 179.301 13.5208 179.301 14.8164C179.301 15.3828 179.49 15.8255 179.867 16.1445C180.245 16.4635 180.73 16.623 181.322 16.623ZM193.236 12.6289C193.236 10.9688 193.617 9.6569 194.379 8.69336C195.141 7.72331 196.163 7.23828 197.445 7.23828C198.695 7.23828 199.682 7.6582 200.404 8.49805L200.482 7.43359H202.143V22.0625H200.336V17.0234C199.607 17.8047 198.637 18.1953 197.426 18.1953C196.15 18.1953 195.131 17.7005 194.369 16.7109C193.614 15.7148 193.236 14.3965 193.236 12.7559V12.6289ZM195.043 12.834C195.043 14.0449 195.297 14.9954 195.805 15.6855C196.319 16.3757 197.009 16.7207 197.875 16.7207C198.949 16.7207 199.77 16.2454 200.336 15.2949V10.1191C199.763 9.18815 198.949 8.72266 197.895 8.72266C197.022 8.72266 196.329 9.07096 195.814 9.76758C195.3 10.4577 195.043 11.4798 195.043 12.834ZM216.566 16.9551C215.863 17.7819 214.831 18.1953 213.471 18.1953C212.344 18.1953 211.485 17.8698 210.893 17.2188C210.307 16.5612 210.01 15.5911 210.004 14.3086V7.43359H211.811V14.2598C211.811 15.8613 212.462 16.6621 213.764 16.6621C215.144 16.6621 216.062 16.1478 216.518 15.1191V7.43359H218.324V18H216.605L216.566 16.9551ZM228.041 18H226.225V7.43359H228.041V18ZM228.061 3.00977H230.248L227.631 5.88086H226.176L228.061 3.00977ZM238.041 13.9863H236.41L236.283 3.78125H238.178L238.041 13.9863ZM236.215 17.0918C236.215 16.7988 236.303 16.5547 236.479 16.3594C236.661 16.1576 236.928 16.0566 237.279 16.0566C237.631 16.0566 237.898 16.1576 238.08 16.3594C238.262 16.5547 238.354 16.7988 238.354 17.0918C238.354 17.3848 238.262 17.6289 238.08 17.8242C237.898 18.013 237.631 18.1074 237.279 18.1074C236.928 18.1074 236.661 18.013 236.479 17.8242C236.303 17.6289 236.215 17.3848 236.215 17.0918Z" fill="#056DAE"/>
<path d="M47.1914 19.9531H239.799V20.9297H47.1914V19.9531Z" fill="#056DAE"/>
<path d="M275.423 22.8889C280.627 22.8889 284.846 18.6605 284.846 13.4444C284.846 8.22842 280.627 4 275.423 4C270.219 4 266 8.22842 266 13.4444C266 18.6605 270.219 22.8889 275.423 22.8889Z" fill="#FFE14D"/>
<path d="M284.846 13.4444C284.846 8.23676 280.619 4 275.423 4V22.8889C280.619 22.8889 284.846 18.6521 284.846 13.4444Z" fill="#FFBB33"/>
<path d="M275.423 20.6384C271.465 20.6384 268.245 17.4111 268.245 13.4444C268.245 9.47777 271.465 6.25043 275.423 6.25043C279.381 6.25043 282.601 9.47777 282.601 13.4444C282.601 17.4111 279.381 20.6384 275.423 20.6384Z" fill="#FFBB33"/>
<path d="M282.601 13.4444C282.601 9.47777 279.381 6.25043 275.423 6.25043V20.6384C279.381 20.6384 282.601 17.4111 282.601 13.4444Z" fill="#E68A2E"/>
<path d="M275.975 12.9305V10.7426C276.61 10.8988 277.079 11.3083 277.079 11.779C277.079 12.0849 277.326 12.3324 277.632 12.3324C277.937 12.3324 278.184 12.0849 278.184 11.779C278.184 10.7098 277.234 9.8158 275.975 9.61024V9.01206C275.975 8.70619 275.728 8.45868 275.423 8.45868C275.118 8.45868 274.871 8.70619 274.871 9.01206V9.61024C273.612 9.8158 272.662 10.7098 272.662 11.779C272.662 12.8482 273.612 13.7422 274.871 13.9477V16.1357C274.236 15.9795 273.767 15.57 273.767 15.0993C273.767 14.7934 273.52 14.5459 273.214 14.5459C272.909 14.5459 272.662 14.7934 272.662 15.0993C272.662 16.1685 273.612 17.0625 274.871 17.2681V17.8716C274.871 18.1775 275.118 18.425 275.423 18.425C275.728 18.425 275.975 18.1775 275.975 17.8716V17.2681C277.234 17.0625 278.184 16.1685 278.184 15.0993C278.184 14.0301 277.234 13.1361 275.975 12.9305V12.9305ZM273.767 11.779C273.767 11.3083 274.236 10.8988 274.871 10.7426V12.8154C274.236 12.6592 273.767 12.2497 273.767 11.779V11.779ZM275.975 16.1357V14.0629C276.61 14.2191 277.079 14.6286 277.079 15.0993C277.079 15.57 276.61 15.9795 275.975 16.1357Z" fill="#FFE14D"/>
<path d="M275.975 17.8716V17.2681C277.234 17.0625 278.184 16.1685 278.184 15.0993C278.184 14.0301 277.234 13.1361 275.975 12.9305V10.7426C276.61 10.8988 277.079 11.3083 277.079 11.779C277.079 12.0849 277.326 12.3324 277.632 12.3324C277.937 12.3324 278.184 12.0849 278.184 11.779C278.184 10.7098 277.234 9.8158 275.975 9.61024V9.01206C275.975 8.70619 275.728 8.45868 275.423 8.45868V18.425C275.728 18.425 275.975 18.1775 275.975 17.8716ZM275.975 14.0629C276.61 14.2191 277.079 14.6286 277.079 15.0993C277.079 15.57 276.61 15.9795 275.975 16.1356V14.0629Z" fill="#FFBB33"/>
<path d="M9.42308 22.8889C14.6273 22.8889 18.8462 18.6605 18.8462 13.4444C18.8462 8.22842 14.6273 4 9.42308 4C4.21885 4 0 8.22842 0 13.4444C0 18.6605 4.21885 22.8889 9.42308 22.8889Z" fill="#FFE14D"/>
<path d="M18.8461 13.4444C18.8461 8.23676 14.6189 4 9.42303 4V22.8889C14.6189 22.8889 18.8461 18.6521 18.8461 13.4444Z" fill="#FFBB33"/>
<path d="M9.4231 20.6384C5.4654 20.6384 2.24536 17.4111 2.24536 13.4444C2.24536 9.47777 5.4654 6.25043 9.4231 6.25043C13.3808 6.25043 16.6008 9.47777 16.6008 13.4444C16.6008 17.4111 13.3808 20.6384 9.4231 20.6384Z" fill="#FFBB33"/>
<path d="M16.6008 13.4444C16.6008 9.47777 13.3808 6.25043 9.4231 6.25043V20.6384C13.3808 20.6384 16.6008 17.4111 16.6008 13.4444Z" fill="#E68A2E"/>
<path d="M9.97515 12.9305V10.7426C10.6102 10.8988 11.0794 11.3083 11.0794 11.779C11.0794 12.0849 11.3264 12.3324 11.6316 12.3324C11.9367 12.3324 12.1837 12.0849 12.1837 11.779C12.1837 10.7098 11.234 9.8158 9.97515 9.61024V9.01206C9.97515 8.70619 9.7282 8.45868 9.42302 8.45868C9.11784 8.45868 8.87089 8.70619 8.87089 9.01206V9.61024C7.61206 9.8158 6.66235 10.7098 6.66235 11.779C6.66235 12.8482 7.61206 13.7422 8.87089 13.9477V16.1357C8.23586 15.9795 7.76662 15.57 7.76662 15.0993C7.76662 14.7934 7.51967 14.5459 7.21449 14.5459C6.9093 14.5459 6.66235 14.7934 6.66235 15.0993C6.66235 16.1685 7.61206 17.0625 8.87089 17.2681V17.8716C8.87089 18.1775 9.11784 18.425 9.42302 18.425C9.7282 18.425 9.97515 18.1775 9.97515 17.8716V17.2681C11.234 17.0625 12.1837 16.1685 12.1837 15.0993C12.1837 14.0301 11.234 13.1361 9.97515 12.9305V12.9305ZM7.76662 11.779C7.76662 11.3083 8.23586 10.8988 8.87089 10.7426V12.8154C8.23586 12.6592 7.76662 12.2497 7.76662 11.779V11.779ZM9.97515 16.1357V14.0629C10.6102 14.2191 11.0794 14.6286 11.0794 15.0993C11.0794 15.57 10.6102 15.9795 9.97515 16.1357Z" fill="#FFE14D"/>
<path d="M9.97523 17.8716V17.2681C11.2341 17.0625 12.1838 16.1685 12.1838 15.0993C12.1838 14.0301 11.2341 13.1361 9.97523 12.9305V10.7426C10.6103 10.8988 11.0795 11.3083 11.0795 11.779C11.0795 12.0849 11.3264 12.3324 11.6316 12.3324C11.9368 12.3324 12.1838 12.0849 12.1838 11.779C12.1838 10.7098 11.2341 9.8158 9.97523 9.61024V9.01206C9.97523 8.70619 9.72828 8.45868 9.4231 8.45868V18.425C9.72828 18.425 9.97523 18.1775 9.97523 17.8716ZM9.97523 14.0629C10.6103 14.2191 11.0795 14.6286 11.0795 15.0993C11.0795 15.57 10.6103 15.9795 9.97523 16.1356V14.0629Z" fill="#FFBB33"/>
</svg>
