<svg width="523" height="515" viewBox="0 0 523 515" fill="none" xmlns="http://www.w3.org/2000/svg">
<path fill-rule="evenodd" clip-rule="evenodd" d="M82.4265 61.876C64.0224 84.1581 61.1042 105.48 72.7381 127.762L105.681 170.394L42.7131 193.636C13.6479 197.514 -0.891259 218.823 0.0814732 253.699C-0.891259 287.602 6.86466 322.491 22.3635 360.271C36.9026 383.526 52.4015 395.147 67.9004 395.147L135.719 375.77V451.332C133.787 469.749 140.557 483.316 155.096 492.031C179.311 507.53 219.037 514.326 275.235 514.326C318.826 510.448 340.149 487.194 341.108 443.589V407.741L406.022 432.928C428.304 439.698 446.708 436.806 462.22 423.24C495.163 396.107 515.5 353.488 522.283 292.453C524.216 270.158 512.595 254.672 487.407 248.848L438.965 229.471L482.557 175.206L495.15 145.181C495.15 135.492 489.34 121.926 479.651 105.467C463.18 79.2944 434.115 55.0799 396.334 28.9328C367.268 13.434 344.986 18.2718 327.542 42.4993L295.572 79.3074L250.035 19.2444C234.536 -0.13243 212.254 -4.01039 184.148 3.74553C142.489 19.2444 108.574 37.6485 82.4265 61.876ZM171.555 132.6L160.894 115.156C200.62 84.1581 245.184 74.4697 292.653 84.1581L272.304 109.345L259.71 140.343L247.117 119.994C240.333 108.373 226.767 106.427 206.43 112.238L171.555 132.6ZM151.218 220.756L132.814 226.566C120.22 230.444 113.437 243.038 113.437 264.36C115.37 282.764 117.315 294.385 120.22 299.223L100.844 307.951C79.5213 270.158 82.4395 225.593 108.6 173.273L130.882 206.217L151.218 220.756ZM226.78 198.487C247.13 182.015 258.75 163.611 262.628 145.207C267.479 186.866 300.409 213.026 360.472 223.687C323.664 250.807 312.03 287.628 325.597 335.11C286.843 310.883 245.184 310.883 203.512 335.11C215.133 278.912 200.607 242.091 160.881 220.782C183.176 222.701 204.485 215.918 226.78 198.487ZM407.955 218.823L371.133 215.918L390.51 188.785C390.51 173.286 377.917 153.91 353.702 132.587L365.336 115.143C385.673 131.615 400.212 147.113 407.968 160.68L437.033 229.471L407.955 218.823ZM406.022 297.303L426.372 307.964C408.927 356.393 380.835 388.377 341.108 405.808V377.716C342.081 359.312 338.203 347.691 329.488 341.867L353.715 349.623C363.404 353.501 373.092 349.623 383.753 338.962C395.361 331.219 402.144 316.68 406.022 297.303ZM176.392 362.217C184.148 359.312 191.891 351.569 199.647 341.88V370.946C195.769 392.255 217.079 402.916 262.615 402.916V423.253C222.889 428.103 182.203 410.659 138.599 371.905L176.392 362.217Z" fill="#EA2228"/>
</svg>
