<svg width="44" height="44" viewBox="0 0 44 44" fill="none" xmlns="http://www.w3.org/2000/svg">
<path d="M21.3007 18.3989V19.2516C20.8206 19.4207 20.4158 19.7543 20.158 20.1932C19.9003 20.6322 19.8062 21.1482 19.8925 21.6499C19.9787 22.1515 20.2398 22.6065 20.6293 22.9342C21.0189 23.2618 21.5118 23.441 22.0208 23.4401C22.1633 23.4401 22.3025 23.4823 22.4209 23.5614C22.5394 23.6406 22.6317 23.7531 22.6862 23.8846C22.7407 24.0162 22.755 24.161 22.7272 24.3007C22.6994 24.4404 22.6308 24.5688 22.5301 24.6695C22.4294 24.7702 22.301 24.8388 22.1613 24.8666C22.0216 24.8944 21.8768 24.8801 21.7452 24.8256C21.6137 24.7711 21.5012 24.6788 21.422 24.5603C21.3429 24.4419 21.3007 24.3027 21.3007 24.1602H19.8604C19.8622 24.6055 20.0016 25.0393 20.2594 25.4023C20.5172 25.7653 20.8809 26.0398 21.3007 26.1882V27.0409H22.741V26.1882C23.2211 26.0191 23.6259 25.6855 23.8836 25.2466C24.1414 24.8076 24.2355 24.2916 24.1492 23.7899C24.063 23.2883 23.8019 22.8333 23.4124 22.5057C23.0228 22.178 22.5299 21.9988 22.0208 21.9997C21.8784 21.9997 21.7392 21.9575 21.6207 21.8784C21.5023 21.7992 21.41 21.6868 21.3555 21.5552C21.301 21.4236 21.2867 21.2788 21.3145 21.1391C21.3423 20.9994 21.4109 20.8711 21.5116 20.7703C21.6123 20.6696 21.7406 20.601 21.8803 20.5733C22.02 20.5455 22.1648 20.5597 22.2964 20.6142C22.428 20.6687 22.5405 20.7611 22.6196 20.8795C22.6988 20.9979 22.741 21.1371 22.741 21.2796H24.1813C24.1795 20.8343 24.0401 20.4005 23.7823 20.0375C23.5245 19.6745 23.1608 19.4 22.741 19.2516V18.3989H21.3007Z" fill="white"/>
<path d="M26.3416 13.358C27.6781 13.3565 28.9594 12.8248 29.9045 11.8798C30.8496 10.9347 31.3812 9.65335 31.3827 8.31683C31.3827 8.12583 31.3068 7.94265 31.1718 7.80759C31.0367 7.67254 30.8536 7.59666 30.6626 7.59666H26.3416C25.6703 7.59629 25.0057 7.73058 24.3872 7.99158C23.7687 8.25259 23.2088 8.63501 22.7407 9.11621V6.15633H26.3416C27.6781 6.15481 28.9594 5.6232 29.9045 4.67813C30.8496 3.73306 31.3812 2.45171 31.3827 1.11518C31.3827 0.924184 31.3068 0.741008 31.1718 0.605951C31.0367 0.470894 30.8536 0.39502 30.6626 0.39502H26.3416C25.4703 0.39519 24.6141 0.621598 23.8567 1.05208C23.0992 1.48256 22.4665 2.10235 22.0206 2.85078C21.5746 2.10235 20.9419 1.48256 20.1845 1.05208C19.4271 0.621598 18.5708 0.39519 17.6996 0.39502H13.3786C13.1876 0.39502 13.0044 0.470894 12.8694 0.605951C12.7343 0.741008 12.6584 0.924184 12.6584 1.11518C12.66 2.45171 13.1916 3.73306 14.1367 4.67813C15.0817 5.6232 16.3631 6.15481 17.6996 6.15633H21.3004V9.11621C20.8323 8.63501 20.2725 8.25259 19.654 7.99158C19.0355 7.73058 18.3709 7.59629 17.6996 7.59666H13.3786C13.1876 7.59666 13.0044 7.67254 12.8694 7.80759C12.7343 7.94265 12.6584 8.12583 12.6584 8.31683C12.66 9.65335 13.1916 10.9347 14.1367 11.8798C15.0817 12.8248 16.3631 13.3565 17.6996 13.358H21.3004V14.8343C19.2703 15.0196 17.3897 15.9805 16.0499 17.517C14.7101 19.0534 14.0142 21.0473 14.107 23.0838C14.1997 25.1203 15.074 27.0426 16.5479 28.4509C18.0219 29.8592 19.982 30.6451 22.0206 30.6451C24.0592 30.6451 26.0193 29.8592 27.4932 28.4509C28.9672 27.0426 29.8414 25.1203 29.9342 23.0838C30.0269 21.0473 29.331 19.0534 27.9913 17.517C26.6515 15.9805 24.7709 15.0196 22.7407 14.8343V13.358H26.3416ZM26.3416 9.03699H29.8704C29.7032 9.84976 29.261 10.5801 28.6182 11.1048C27.9754 11.6295 27.1713 11.9166 26.3416 11.9176H22.8128C22.9799 11.1049 23.4222 10.3746 24.0649 9.84985C24.7077 9.32512 25.5118 9.03804 26.3416 9.03699ZM26.3416 1.83535H29.8704C29.7032 2.64812 29.261 3.37841 28.6182 3.90314C27.9754 4.42787 27.1713 4.71496 26.3416 4.716H22.8128C22.9799 3.90324 23.4222 3.17294 24.0649 2.64821C24.7077 2.12348 25.5118 1.8364 26.3416 1.83535ZM17.6996 4.716C16.8698 4.71496 16.0658 4.42787 15.423 3.90314C14.7802 3.37841 14.3379 2.64812 14.1708 1.83535H17.6996C18.5294 1.8364 19.3334 2.12348 19.9762 2.64821C20.619 3.17294 21.0613 3.90324 21.2284 4.716H17.6996ZM17.6996 11.9176C16.8698 11.9166 16.0658 11.6295 15.423 11.1048C14.7802 10.5801 14.3379 9.84976 14.1708 9.03699H17.6996C18.5294 9.03804 19.3334 9.32512 19.9762 9.84985C20.619 10.3746 21.0613 11.1049 21.2284 11.9176H17.6996ZM28.5021 22.7201C28.5021 24.002 28.1219 25.2552 27.4097 26.321C26.6975 27.3869 25.6853 28.2176 24.5009 28.7082C23.3166 29.1988 22.0134 29.3271 20.7561 29.077C19.4988 28.827 18.3439 28.2097 17.4375 27.3032C16.531 26.3968 15.9137 25.2419 15.6636 23.9846C15.4136 22.7273 15.5419 21.4241 16.0325 20.2398C16.523 19.0554 17.3538 18.0432 18.4197 17.331C19.4855 16.6188 20.7387 16.2386 22.0206 16.2386C23.7388 16.2413 25.3858 16.925 26.6007 18.14C27.8157 19.3549 28.4994 21.0019 28.5021 22.7201Z" fill="white"/>
<path d="M1.85596 0.39502H3.29629V1.83535H1.85596V0.39502Z" fill="white"/>
<path d="M1.85596 3.27588H3.29629V4.71621H1.85596V3.27588Z" fill="white"/>
<path d="M0.415771 1.83521H1.8561V3.27553H0.415771V1.83521Z" fill="white"/>
<path d="M3.29663 1.83521H4.73696V3.27553H3.29663V1.83521Z" fill="white"/>
<path d="M6.177 9.03711H7.61733V10.4774H6.177V9.03711Z" fill="white"/>
<path d="M6.177 11.9175H7.61733V13.3578H6.177V11.9175Z" fill="white"/>
<path d="M4.73682 10.4773H6.17714V11.9176H4.73682V10.4773Z" fill="white"/>
<path d="M7.61743 10.4773H9.05776V11.9176H7.61743V10.4773Z" fill="white"/>
<path d="M1.85596 17.679H3.29629V19.1193H1.85596V17.679Z" fill="white"/>
<path d="M1.85596 20.5596H3.29629V21.9999H1.85596V20.5596Z" fill="white"/>
<path d="M0.415771 19.1194H1.8561V20.5597H0.415771V19.1194Z" fill="white"/>
<path d="M3.29663 19.1194H4.73696V20.5597H3.29663V19.1194Z" fill="white"/>
<path d="M40.7451 0.39502H42.1854V1.83535H40.7451V0.39502Z" fill="white"/>
<path d="M40.7451 3.27588H42.1854V4.71621H40.7451V3.27588Z" fill="white"/>
<path d="M42.1853 1.83521H43.6256V3.27553H42.1853V1.83521Z" fill="white"/>
<path d="M39.3044 1.83521H40.7448V3.27553H39.3044V1.83521Z" fill="white"/>
<path d="M36.4241 9.03711H37.8644V10.4774H36.4241V9.03711Z" fill="white"/>
<path d="M36.4241 11.9175H37.8644V13.3578H36.4241V11.9175Z" fill="white"/>
<path d="M37.8643 10.4773H39.3046V11.9176H37.8643V10.4773Z" fill="white"/>
<path d="M34.9836 10.4773H36.424V11.9176H34.9836V10.4773Z" fill="white"/>
<path d="M40.7451 17.679H42.1854V19.1193H40.7451V17.679Z" fill="white"/>
<path d="M40.7451 20.5596H42.1854V21.9999H40.7451V20.5596Z" fill="white"/>
<path d="M42.1853 19.1194H43.6256V20.5597H42.1853V19.1194Z" fill="white"/>
<path d="M39.3044 19.1194H40.7448V20.5597H39.3044V19.1194Z" fill="white"/>
<path d="M43.5176 29.2303C43.0386 28.405 42.2527 27.8025 41.3313 27.5543C40.4099 27.306 39.4277 27.4322 38.5989 27.9052L29.5824 33.112C28.909 32.4526 28.0043 32.083 27.0619 32.0822H18.7151L16.5979 29.9577C16.1289 29.4887 15.5719 29.1169 14.959 28.8635C14.346 28.6102 13.6891 28.4803 13.0258 28.4813H6.17709V27.041C6.17709 26.85 6.10121 26.6668 5.96615 26.5317C5.8311 26.3967 5.64792 26.3208 5.45692 26.3208H1.13594C0.944936 26.3208 0.76176 26.3967 0.626703 26.5317C0.491646 26.6668 0.415771 26.85 0.415771 27.041V42.8847C0.415771 43.0757 0.491646 43.2589 0.626703 43.3939C0.76176 43.529 0.944936 43.6049 1.13594 43.6049H5.45692C5.64792 43.6049 5.8311 43.529 5.96615 43.3939C6.10121 43.2589 6.17709 43.0757 6.17709 42.8847V40.9618L14.9559 43.468C15.2772 43.5573 15.609 43.6033 15.9425 43.6049H24.8509C25.4831 43.6054 26.1042 43.439 26.6514 43.1223L42.1997 34.149C43.0267 33.6715 43.6302 32.885 43.8773 31.9626C44.1245 31.0402 43.9951 30.0573 43.5176 29.2303ZM4.73676 42.1645H1.8561V27.7611H4.73676V42.1645ZM42.4878 31.5852C42.4145 31.8594 42.2877 32.1164 42.1147 32.3414C41.9416 32.5663 41.7258 32.7548 41.4795 32.8959L25.9312 41.8765C25.6018 42.0637 25.2298 42.1629 24.8509 42.1645H15.9425C15.7425 42.1651 15.5435 42.136 15.352 42.0781L6.17709 39.4639V29.9216H13.0258C13.4999 29.9196 13.9695 30.0121 14.4073 30.1939C14.8451 30.3757 15.2421 30.643 15.5752 30.9803L17.9086 33.3136C18.0459 33.4463 18.229 33.5211 18.4199 33.5225H27.0619C27.3423 33.521 27.6203 33.575 27.8798 33.6813C28.1394 33.7875 28.3753 33.9441 28.5742 34.1418C28.6668 34.2372 28.7533 34.3382 28.8335 34.4443C29.0851 34.8085 29.2207 35.2403 29.2223 35.683C29.2206 36.2555 28.9925 36.804 28.5877 37.2088C28.1829 37.6136 27.6343 37.8418 27.0619 37.8435H18.4199V39.2838H27.0619C27.6541 39.2874 28.2381 39.144 28.7613 38.8663C29.2845 38.5887 29.7306 38.1856 30.0596 37.6931C30.3887 37.2006 30.5903 36.6341 30.6466 36.0445C30.7028 35.4549 30.6118 34.8605 30.3818 34.3147L39.319 29.1583C39.6889 28.9445 40.1137 28.8452 40.54 28.8728C40.9662 28.9005 41.3747 29.0539 41.7138 29.3136C42.053 29.5733 42.3075 29.9278 42.4452 30.3321C42.583 30.7364 42.5978 31.1725 42.4878 31.5852Z" fill="white"/>
</svg>
