<svg width="59" height="59" viewBox="0 0 59 59" fill="none" xmlns="http://www.w3.org/2000/svg">
<path d="M48.6868 31.1838C48.2126 31.1838 47.8282 31.5683 47.8282 32.0424C47.8282 32.6436 47.3391 33.1327 46.7379 33.1327C46.1369 33.1327 45.6477 32.6436 45.6477 32.0424C45.6477 31.5681 45.2633 31.1838 44.7891 31.1838C44.3149 31.1838 43.9305 31.5683 43.9305 32.0424C43.9305 33.5905 45.19 34.8499 46.7379 34.8499C48.2859 34.8499 49.5454 33.5904 49.5454 32.0424C49.5454 31.568 49.161 31.1838 48.6868 31.1838Z" fill="#056DAE"/>
<path d="M56.7465 31.3242L54.3298 30.55C54.0203 30.4508 53.7763 30.2037 53.6773 29.889C53.168 28.2696 52.3994 26.7494 51.3928 25.3702C50.9341 24.7416 50.4239 24.1414 49.8666 23.5699C50.2232 22.0058 50.417 20.2357 50.3919 18.7065C50.3559 16.5187 49.9187 15.2356 49.0554 14.7834C48.5904 14.5396 47.1753 13.7989 39.5161 17.305C39.3347 17.3879 39.1653 17.4902 39.0084 17.6072C38.4921 17.4685 37.9643 17.3401 37.4333 17.2249C37.3694 17.2109 37.3034 17.1986 37.239 17.185C37.8597 15.8292 38.2221 14.3566 38.2902 12.8364C38.3114 12.3626 37.9446 11.9613 37.4708 11.9402C36.9982 11.9167 36.5957 12.2857 36.5746 12.7596C36.4627 15.2591 35.4258 17.6109 33.6551 19.3817C32.5972 20.4397 31.3584 21.2082 30.0381 21.6922C27.7486 21.3709 25.4164 21.3709 23.1268 21.6922C21.8065 21.2082 20.5678 20.4397 19.5099 19.3817C17.6207 17.4926 16.5803 14.9808 16.5803 12.3091C16.5803 9.63728 17.6207 7.12563 19.5099 5.23647C21.399 3.34721 23.9109 2.30675 26.5825 2.30675C29.2541 2.30675 31.766 3.34721 33.6551 5.23647C34.4143 5.99564 35.0416 6.86197 35.5197 7.81116C35.733 8.23476 36.2494 8.4053 36.6729 8.19189C37.0965 7.97871 37.2669 7.46234 37.0536 7.03886C36.4932 5.92581 35.7584 4.91094 34.8696 4.02202C32.656 1.80848 29.713 0.589417 26.5826 0.589417C23.4523 0.589417 20.5092 1.80848 18.2956 4.02202C16.0821 6.23567 14.863 9.17864 14.863 12.309C14.863 15.4393 16.0821 18.3824 18.2956 20.596C18.9342 21.2345 19.6288 21.7836 20.3635 22.2436C20.3638 22.2436 20.364 22.2435 20.3642 22.2435C19.8303 22.3822 19.3005 22.538 18.7765 22.7132C18.3268 22.8635 18.0841 23.3499 18.2345 23.7998C18.3847 24.2496 18.8714 24.4923 19.321 24.342C24.0037 22.7765 29.1616 22.7765 33.8442 24.342C33.9346 24.3722 34.0263 24.3865 34.1165 24.3865C34.4757 24.3865 34.8106 24.1592 34.9308 23.7998C35.0811 23.3501 34.8385 22.8635 34.3887 22.7132C33.8647 22.538 33.3349 22.3821 32.801 22.2435C32.8012 22.2435 32.8015 22.2436 32.8017 22.2436C33.5365 21.7836 34.2311 21.2345 34.8696 20.596C35.4345 20.0311 35.9331 19.4142 36.366 18.7587C36.6027 18.8046 36.8377 18.8528 37.0692 18.903C37.3775 18.97 37.6845 19.0419 37.9887 19.1174C37.9792 19.1547 37.9694 19.1919 37.9614 19.2298C37.5427 21.2171 37.5699 22.9746 38.0422 24.4534C38.4667 25.7826 39.2329 26.8595 40.3192 27.6543C41.5996 28.5909 43.1454 28.9955 44.5456 28.9955C45.5994 28.9955 46.5709 28.7662 47.2845 28.3621C48.0916 27.9049 48.7678 26.9417 49.303 25.4955C49.5504 25.7843 49.7849 26.0801 50.006 26.3829C50.9021 27.6106 51.5863 28.9637 52.0394 30.4044C52.3055 31.2505 52.966 31.9163 53.8062 32.1857L56.2229 32.9598C56.857 33.163 57.283 33.7466 57.283 34.4124V38.4197C57.283 39.0855 56.857 39.6692 56.2229 39.8724L52.3292 41.1195C51.7062 41.3192 51.179 41.7473 50.8447 42.3251C49.315 44.9688 46.91 47.1566 43.696 48.8276C43.3247 49.0208 43.0675 49.3664 42.99 49.776L41.743 56.3792C41.7085 56.5612 41.5491 56.6931 41.364 56.6931H37.3092C37.124 56.6931 36.9647 56.5611 36.9302 56.3792L36.2395 52.7299C36.1035 52.0118 35.4301 51.5349 34.7052 51.6447C32.9586 51.9088 31.1589 52.0426 29.3563 52.0426C28.0152 52.0426 26.6913 51.9678 25.421 51.8202C24.7187 51.7394 24.0644 52.2182 23.9331 52.9117L23.2768 56.3792C23.2423 56.5612 23.0829 56.6931 22.8978 56.6931H18.843C18.6578 56.6931 18.4985 56.5611 18.4635 56.3765L17.2628 50.1397C17.1855 49.7379 16.9331 49.3963 16.57 49.2023C11.0913 46.2776 8.19547 41.3912 8.19547 35.0717C8.19547 31.8788 8.89402 29.0554 10.2716 26.6798C11.5572 24.4628 13.4348 22.6297 15.8523 21.2314C16.2628 20.9939 16.403 20.4686 16.1657 20.058C15.9283 19.6476 15.403 19.5076 14.9925 19.7447C10.3048 22.4564 7.47756 26.6399 6.69915 31.9533V31.9532C6.61653 31.9457 6.53379 31.9386 6.4514 31.9301C6.46638 31.3568 6.36267 30.7783 6.13681 30.2169C5.63865 28.9786 4.61537 28.0848 3.52974 27.94C2.67424 27.8254 1.86011 28.1886 1.29512 28.9351C0.475918 30.0176 0.609475 30.8743 0.865641 31.4023C1.29812 32.2934 2.40978 32.9237 4.25457 33.32C4.20387 33.396 4.14809 33.4722 4.08702 33.5489C2.99702 34.9159 1.71284 35.2182 0.879008 35.2466C0.390875 35.2631 0 35.655 0 36.1435V36.1476C0 36.6294 0.380158 37.0224 0.861492 37.0444C0.923143 37.0473 0.987559 37.0488 1.05463 37.0488C2.10971 37.0488 3.80308 36.6596 5.42996 34.6196C5.68682 34.2977 5.89608 33.958 6.05695 33.607C6.21897 33.6253 6.37465 33.6409 6.52376 33.6548C6.52376 33.6544 6.52376 33.6542 6.52388 33.6539C6.49461 34.1192 6.47836 34.5913 6.47836 35.0717C6.47836 38.6472 7.33075 41.8351 9.01167 44.5474C10.5616 47.048 12.7806 49.0955 15.6094 50.6353L16.7767 56.6984C16.9645 57.6904 17.8334 58.4104 18.843 58.4104H22.8978C23.9073 58.4104 24.7763 57.6904 24.964 56.6984L25.5575 53.5631C26.79 53.6937 28.0661 53.7598 29.3562 53.7598C31.1262 53.7598 32.8941 53.6365 34.6171 53.3932L35.2427 56.6987C35.4305 57.6906 36.2995 58.4105 37.309 58.4105H41.3637C42.3733 58.4105 43.2423 57.6905 43.4301 56.6982L44.6443 50.2692C48.0746 48.4553 50.6603 46.0724 52.3309 43.1851C52.4513 42.977 52.6368 42.8243 52.8529 42.7551L56.7465 41.5079C58.0944 41.0759 59 39.8349 59 38.4195V34.4122C59 32.9969 58.0944 31.7559 56.7465 31.3242ZM48.5457 21.1193C48.2152 23.9456 47.3287 26.3632 46.438 26.8677C45.4255 27.4412 43.088 27.552 41.333 26.2681C39.5759 24.9828 38.991 22.6714 39.6415 19.5838C39.6415 19.5837 39.6415 19.5837 39.6415 19.5837C39.7069 19.2736 39.9272 19.0054 40.2309 18.8664C44.5296 16.8987 47.0079 16.2551 47.9286 16.2551C48.0676 16.2551 48.1711 16.2697 48.24 16.2967C48.5166 16.5914 48.8793 18.2671 48.5457 21.1193ZM2.41082 30.6525C2.32197 30.4692 2.5317 30.1472 2.66468 29.9713C2.87544 29.6929 3.06961 29.636 3.21631 29.636C3.2473 29.636 3.27623 29.6385 3.30273 29.6421C3.69753 29.6947 4.25065 30.1292 4.54369 30.8576C4.61272 31.029 4.70237 31.3131 4.72334 31.6673C3.5347 31.4211 2.61121 31.066 2.41082 30.6525Z" fill="#056DAE"/>
<path d="M27.4163 11.3249V8.2523C28.4759 8.32801 28.8695 8.81234 29.2328 8.81234C29.6869 8.81234 29.8988 8.23721 29.8988 7.94958C29.8988 7.20782 28.4456 6.89 27.4163 6.8597V6.45085C27.4163 6.26924 27.1892 6.10272 26.9622 6.10272C26.7047 6.10272 26.5231 6.26924 26.5231 6.45085V6.88977C25.0851 7.04119 23.6471 7.79805 23.6471 9.70529C23.6471 11.6428 25.1608 12.1878 26.5231 12.6721V16.2293C24.9791 16.1082 24.5705 15.0486 24.0709 15.0486C23.6925 15.0486 23.3747 15.5481 23.3747 15.9115C23.3747 16.6531 24.6462 17.6673 26.5231 17.6976V18.1668C26.5231 18.3484 26.7049 18.515 26.9622 18.515C27.1893 18.515 27.4163 18.3484 27.4163 18.1668V17.6522C29.0511 17.4251 30.1712 16.3958 30.1712 14.534C30.1712 12.4754 28.7332 11.8092 27.4163 11.3249ZM26.6139 11.0374C25.8117 10.7347 25.1608 10.4169 25.1608 9.55411C25.1608 8.76694 25.7663 8.38851 26.6139 8.28261V11.0374ZM27.3254 16.199V13.0051C28.067 13.323 28.6574 13.7468 28.6574 14.7004C28.6574 15.5633 28.1427 16.0477 27.3254 16.199Z" fill="#056DAE"/>
</svg>
