<svg width="23" height="23" viewBox="0 0 23 23" fill="none" xmlns="http://www.w3.org/2000/svg">
<circle cx="11.5" cy="11.5" r="11.5" fill="#3803CE"/>
<circle cx="11.5" cy="11.5" r="11.5" fill="url(#paint0_linear)"/>
<path d="M4.8252 15V7.89062H6.83203C7.45052 7.89062 7.9974 8.02734 8.47266 8.30078C8.94792 8.57422 9.31413 8.96322 9.57129 9.46777C9.83171 9.97233 9.96354 10.5518 9.9668 11.2061V11.6602C9.9668 12.3307 9.83659 12.9183 9.57617 13.4229C9.31901 13.9274 8.94954 14.3148 8.46777 14.585C7.98926 14.8551 7.43099 14.9935 6.79297 15H4.8252ZM5.7627 8.66211V14.2334H6.74902C7.47168 14.2334 8.0332 14.0088 8.43359 13.5596C8.83724 13.1104 9.03906 12.4707 9.03906 11.6406V11.2256C9.03906 10.4183 8.84863 9.79167 8.46777 9.3457C8.09017 8.89648 7.55306 8.66862 6.85645 8.66211H5.7627ZM12.5986 7.89062L14.9229 13.6914L17.2471 7.89062H18.4629V15H17.5254V12.2314L17.6133 9.24316L15.2793 15H14.5615L12.2324 9.25781L12.3252 12.2314V15H11.3877V7.89062H12.5986Z" fill="white"/>
<defs>
<linearGradient id="paint0_linear" x1="12" y1="3.5" x2="12" y2="23" gradientUnits="userSpaceOnUse">
<stop stop-color="#6909EE"/>
<stop offset="1" stop-color="white" stop-opacity="0"/>
</linearGradient>
</defs>
</svg>
