<svg width="329" height="171" viewBox="0 0 329 171" fill="none" xmlns="http://www.w3.org/2000/svg">
<g filter="url(#filter0_bdd)">
<rect x="69.4901" y="11" width="246" height="82" rx="5" fill="white"/>
</g>
<path d="M105.455 38.0728C105.455 37.5122 105.297 37.0679 104.983 36.7397C104.675 36.4048 104.149 36.0972 103.404 35.8169C102.659 35.5366 102.016 35.2598 101.476 34.9863C100.936 34.7061 100.471 34.3882 100.082 34.0327C99.6987 33.6704 99.3979 33.2466 99.1792 32.7612C98.9673 32.2759 98.8613 31.6982 98.8613 31.0283C98.8613 29.873 99.2305 28.9263 99.9688 28.188C100.707 27.4497 101.688 27.019 102.912 26.896V24.7017H104.552V26.9268C105.762 27.0977 106.709 27.6035 107.393 28.4443C108.076 29.2783 108.418 30.3618 108.418 31.6948H105.455C105.455 30.8745 105.284 30.2627 104.942 29.8594C104.607 29.4492 104.156 29.2441 103.588 29.2441C103.028 29.2441 102.594 29.4048 102.286 29.7261C101.979 30.0405 101.825 30.478 101.825 31.0386C101.825 31.5581 101.975 31.9751 102.276 32.2896C102.577 32.604 103.134 32.9253 103.947 33.2534C104.768 33.5815 105.441 33.8926 105.967 34.1865C106.494 34.4736 106.938 34.8018 107.3 35.1709C107.663 35.5332 107.939 35.9502 108.131 36.4219C108.322 36.8867 108.418 37.4302 108.418 38.0522C108.418 39.2144 108.056 40.1577 107.331 40.8823C106.606 41.6069 105.608 42.0342 104.337 42.1641V44.2046H102.707V42.1743C101.305 42.0239 100.218 41.5283 99.4458 40.6875C98.6802 39.8398 98.2974 38.7153 98.2974 37.314H101.261C101.261 38.1274 101.452 38.7529 101.835 39.1904C102.225 39.6211 102.782 39.8364 103.506 39.8364C104.108 39.8364 104.583 39.6792 104.932 39.3647C105.28 39.0435 105.455 38.6128 105.455 38.0728ZM110.869 34.6582L111.73 27.0703H120.097V29.5415H114.16L113.791 32.751C114.495 32.375 115.244 32.187 116.037 32.187C117.458 32.187 118.573 32.6279 119.379 33.5098C120.186 34.3916 120.589 35.6255 120.589 37.2114C120.589 38.1753 120.384 39.04 119.974 39.8057C119.571 40.5645 118.99 41.1558 118.231 41.5796C117.472 41.9966 116.577 42.2051 115.544 42.2051C114.642 42.2051 113.805 42.0239 113.032 41.6616C112.26 41.2925 111.648 40.7764 111.197 40.1133C110.752 39.4502 110.517 38.6948 110.489 37.8472H113.422C113.483 38.4692 113.699 38.9546 114.068 39.3032C114.444 39.645 114.933 39.8159 115.534 39.8159C116.204 39.8159 116.72 39.5767 117.083 39.0981C117.445 38.6128 117.626 37.9292 117.626 37.0474C117.626 36.1997 117.417 35.5503 117 35.0991C116.583 34.6479 115.992 34.4224 115.227 34.4224C114.522 34.4224 113.952 34.6069 113.514 34.9761L113.227 35.2427L110.869 34.6582ZM132.74 35.8271C132.74 37.8916 132.313 39.4707 131.458 40.5645C130.604 41.6582 129.353 42.2051 127.706 42.2051C126.079 42.2051 124.834 41.6685 123.973 40.5952C123.112 39.522 122.671 37.9839 122.65 35.981V33.2329C122.65 31.1479 123.081 29.5654 123.942 28.4854C124.811 27.4053 126.058 26.8652 127.685 26.8652C129.312 26.8652 130.556 27.4019 131.417 28.4751C132.279 29.5415 132.72 31.0762 132.74 33.0791V35.8271ZM129.777 32.8125C129.777 31.5752 129.606 30.6763 129.264 30.1157C128.929 29.5483 128.403 29.2646 127.685 29.2646C126.988 29.2646 126.472 29.5347 126.137 30.0747C125.809 30.6079 125.634 31.4453 125.614 32.5869V36.2168C125.614 37.4336 125.778 38.3394 126.106 38.9341C126.441 39.522 126.974 39.8159 127.706 39.8159C128.43 39.8159 128.953 39.5322 129.274 38.9648C129.596 38.3975 129.763 37.5293 129.777 36.3604V32.8125ZM145.209 35.8271C145.209 37.8916 144.782 39.4707 143.927 40.5645C143.073 41.6582 141.822 42.2051 140.174 42.2051C138.547 42.2051 137.303 41.6685 136.442 40.5952C135.581 39.522 135.14 37.9839 135.119 35.981V33.2329C135.119 31.1479 135.55 29.5654 136.411 28.4854C137.279 27.4053 138.527 26.8652 140.154 26.8652C141.781 26.8652 143.025 27.4019 143.886 28.4751C144.748 29.5415 145.188 31.0762 145.209 33.0791V35.8271ZM142.246 32.8125C142.246 31.5752 142.075 30.6763 141.733 30.1157C141.398 29.5483 140.872 29.2646 140.154 29.2646C139.457 29.2646 138.94 29.5347 138.605 30.0747C138.277 30.6079 138.103 31.4453 138.083 32.5869V36.2168C138.083 37.4336 138.247 38.3394 138.575 38.9341C138.91 39.522 139.443 39.8159 140.174 39.8159C140.899 39.8159 141.422 39.5322 141.743 38.9648C142.064 38.3975 142.232 37.5293 142.246 36.3604V32.8125ZM157.678 35.8271C157.678 37.8916 157.25 39.4707 156.396 40.5645C155.542 41.6582 154.291 42.2051 152.643 42.2051C151.016 42.2051 149.772 41.6685 148.911 40.5952C148.049 39.522 147.608 37.9839 147.588 35.981V33.2329C147.588 31.1479 148.019 29.5654 148.88 28.4854C149.748 27.4053 150.996 26.8652 152.623 26.8652C154.25 26.8652 155.494 27.4019 156.355 28.4751C157.216 29.5415 157.657 31.0762 157.678 33.0791V35.8271ZM154.714 32.8125C154.714 31.5752 154.543 30.6763 154.202 30.1157C153.867 29.5483 153.34 29.2646 152.623 29.2646C151.925 29.2646 151.409 29.5347 151.074 30.0747C150.746 30.6079 150.572 31.4453 150.551 32.5869V36.2168C150.551 37.4336 150.715 38.3394 151.043 38.9341C151.378 39.522 151.912 39.8159 152.643 39.8159C153.368 39.8159 153.891 39.5322 154.212 38.9648C154.533 38.3975 154.701 37.5293 154.714 36.3604V32.8125ZM160.169 40.5439C160.169 40.0723 160.327 39.6895 160.641 39.3955C160.962 39.1016 161.362 38.9546 161.841 38.9546C162.326 38.9546 162.726 39.1016 163.041 39.3955C163.362 39.6895 163.522 40.0723 163.522 40.5439C163.522 41.0088 163.365 41.3882 163.051 41.6821C162.736 41.9692 162.333 42.1128 161.841 42.1128C161.355 42.1128 160.956 41.9692 160.641 41.6821C160.327 41.3882 160.169 41.0088 160.169 40.5439ZM176.258 35.8271C176.258 37.8916 175.831 39.4707 174.976 40.5645C174.122 41.6582 172.871 42.2051 171.223 42.2051C169.596 42.2051 168.352 41.6685 167.491 40.5952C166.629 39.522 166.188 37.9839 166.168 35.981V33.2329C166.168 31.1479 166.599 29.5654 167.46 28.4854C168.328 27.4053 169.576 26.8652 171.203 26.8652C172.83 26.8652 174.074 27.4019 174.935 28.4751C175.796 29.5415 176.237 31.0762 176.258 33.0791V35.8271ZM173.294 32.8125C173.294 31.5752 173.124 30.6763 172.782 30.1157C172.447 29.5483 171.92 29.2646 171.203 29.2646C170.505 29.2646 169.989 29.5347 169.654 30.0747C169.326 30.6079 169.152 31.4453 169.131 32.5869V36.2168C169.131 37.4336 169.295 38.3394 169.624 38.9341C169.958 39.522 170.492 39.8159 171.223 39.8159C171.948 39.8159 172.471 39.5322 172.792 38.9648C173.113 38.3975 173.281 37.5293 173.294 36.3604V32.8125ZM188.727 35.8271C188.727 37.8916 188.299 39.4707 187.445 40.5645C186.59 41.6582 185.339 42.2051 183.692 42.2051C182.065 42.2051 180.821 41.6685 179.959 40.5952C179.098 39.522 178.657 37.9839 178.637 35.981V33.2329C178.637 31.1479 179.067 29.5654 179.929 28.4854C180.797 27.4053 182.044 26.8652 183.671 26.8652C185.298 26.8652 186.542 27.4019 187.404 28.4751C188.265 29.5415 188.706 31.0762 188.727 33.0791V35.8271ZM185.763 32.8125C185.763 31.5752 185.592 30.6763 185.25 30.1157C184.916 29.5483 184.389 29.2646 183.671 29.2646C182.974 29.2646 182.458 29.5347 182.123 30.0747C181.795 30.6079 181.621 31.4453 181.6 32.5869V36.2168C181.6 37.4336 181.764 38.3394 182.092 38.9341C182.427 39.522 182.96 39.8159 183.692 39.8159C184.417 39.8159 184.939 39.5322 185.261 38.9648C185.582 38.3975 185.75 37.5293 185.763 36.3604V32.8125ZM200.508 27.0703L204.343 37.8984L208.158 27.0703H212.198V42H209.111V37.9189L209.419 30.8745L205.389 42H203.277L199.257 30.8848L199.565 37.9189V42H196.489V27.0703H200.508ZM220.411 32.2178L223.21 27.0703H226.748L222.4 34.4736L226.861 42H223.282L220.411 36.7705L217.54 42H213.961L218.422 34.4736L214.074 27.0703H217.612L220.411 32.2178ZM240.56 42H237.484L231.496 32.1768V42H228.419V27.0703H231.496L237.494 36.9141V27.0703H240.56V42ZM253.388 42.2051C251.761 42.2051 250.435 41.7061 249.409 40.708C248.391 39.71 247.881 38.3804 247.881 36.7192V36.4321C247.881 35.3179 248.097 34.3232 248.527 33.4482C248.958 32.5664 249.566 31.8896 250.353 31.418C251.146 30.9395 252.048 30.7002 253.06 30.7002C254.577 30.7002 255.77 31.1787 256.638 32.1357C257.513 33.0928 257.951 34.4497 257.951 36.2065V37.4165H250.886C250.981 38.1411 251.269 38.7222 251.747 39.1597C252.232 39.5972 252.844 39.8159 253.583 39.8159C254.724 39.8159 255.616 39.4023 256.259 38.5752L257.715 40.2056C257.271 40.8345 256.669 41.3267 255.91 41.6821C255.151 42.0308 254.311 42.2051 253.388 42.2051ZM253.049 33.0996C252.461 33.0996 251.983 33.2979 251.614 33.6943C251.251 34.0908 251.019 34.6582 250.917 35.3965H255.039V35.1606C255.025 34.5044 254.847 33.9985 254.505 33.6431C254.164 33.2808 253.678 33.0996 253.049 33.0996ZM265.651 38.9341C265.651 38.5718 265.47 38.2881 265.108 38.083C264.752 37.8711 264.178 37.6831 263.385 37.519C260.747 36.9653 259.427 35.8442 259.427 34.1558C259.427 33.1714 259.834 32.3511 260.647 31.6948C261.468 31.0317 262.538 30.7002 263.857 30.7002C265.265 30.7002 266.39 31.0317 267.23 31.6948C268.078 32.3579 268.502 33.2192 268.502 34.2788H265.539C265.539 33.855 265.402 33.5063 265.128 33.2329C264.855 32.9526 264.428 32.8125 263.847 32.8125C263.348 32.8125 262.961 32.9253 262.688 33.1509C262.415 33.3765 262.278 33.6636 262.278 34.0122C262.278 34.3403 262.432 34.6069 262.739 34.812C263.054 35.0103 263.58 35.1846 264.318 35.335C265.057 35.4785 265.679 35.6426 266.185 35.8271C267.75 36.4014 268.533 37.396 268.533 38.811C268.533 39.8228 268.099 40.6431 267.23 41.272C266.362 41.894 265.241 42.2051 263.867 42.2051C262.938 42.2051 262.11 42.041 261.386 41.7129C260.668 41.3779 260.104 40.9233 259.694 40.3491C259.284 39.7681 259.079 39.1426 259.079 38.4727H261.888C261.916 38.999 262.11 39.4023 262.473 39.6826C262.835 39.9629 263.32 40.103 263.929 40.103C264.496 40.103 264.923 39.9971 265.21 39.7852C265.504 39.5664 265.651 39.2827 265.651 38.9341ZM270.604 40.5439C270.604 40.0723 270.761 39.6895 271.076 39.3955C271.397 39.1016 271.797 38.9546 272.275 38.9546C272.761 38.9546 273.161 39.1016 273.475 39.3955C273.796 39.6895 273.957 40.0723 273.957 40.5439C273.957 41.0088 273.8 41.3882 273.485 41.6821C273.171 41.9692 272.768 42.1128 272.275 42.1128C271.79 42.1128 271.39 41.9692 271.076 41.6821C270.761 41.3882 270.604 41.0088 270.604 40.5439ZM276.715 40.5439C276.715 40.0723 276.873 39.6895 277.187 39.3955C277.508 39.1016 277.908 38.9546 278.387 38.9546C278.872 38.9546 279.272 39.1016 279.586 39.3955C279.908 39.6895 280.068 40.0723 280.068 40.5439C280.068 41.0088 279.911 41.3882 279.597 41.6821C279.282 41.9692 278.879 42.1128 278.387 42.1128C277.901 42.1128 277.501 41.9692 277.187 41.6821C276.873 41.3882 276.715 41.0088 276.715 40.5439ZM282.827 40.5439C282.827 40.0723 282.984 39.6895 283.298 39.3955C283.62 39.1016 284.02 38.9546 284.498 38.9546C284.983 38.9546 285.383 39.1016 285.698 39.3955C286.019 39.6895 286.18 40.0723 286.18 40.5439C286.18 41.0088 286.022 41.3882 285.708 41.6821C285.394 41.9692 284.99 42.1128 284.498 42.1128C284.013 42.1128 283.613 41.9692 283.298 41.6821C282.984 41.3882 282.827 41.0088 282.827 40.5439Z" fill="#FD5E31"/>
<g filter="url(#filter1_d)">
<path d="M51.8201 115.131L69.6065 83.9998L81.0101 92.5L51.8201 115.131Z" fill="white"/>
</g>
<path d="M90.9121 65H89.6475V54.5H90.9121V65ZM92.6074 61.2334C92.6074 60.5088 92.7487 59.8571 93.0312 59.2783C93.3184 58.6995 93.7148 58.2529 94.2207 57.9385C94.7311 57.624 95.3122 57.4668 95.9639 57.4668C96.971 57.4668 97.7845 57.8154 98.4043 58.5127C99.0286 59.21 99.3408 60.1374 99.3408 61.2949V61.3838C99.3408 62.1038 99.2018 62.751 98.9238 63.3252C98.6504 63.8949 98.2562 64.3392 97.7412 64.6582C97.2308 64.9772 96.6429 65.1367 95.9775 65.1367C94.9749 65.1367 94.1615 64.7881 93.5371 64.0908C92.9173 63.3936 92.6074 62.4707 92.6074 61.3223V61.2334ZM93.8789 61.3838C93.8789 62.2041 94.068 62.8626 94.4463 63.3594C94.8291 63.8561 95.3395 64.1045 95.9775 64.1045C96.6201 64.1045 97.1305 63.8538 97.5088 63.3525C97.887 62.8467 98.0762 62.1403 98.0762 61.2334C98.0762 60.4222 97.8825 59.766 97.4951 59.2646C97.1123 58.7588 96.6019 58.5059 95.9639 58.5059C95.3395 58.5059 94.8359 58.7542 94.4531 59.251C94.0703 59.7477 93.8789 60.4587 93.8789 61.3838ZM104.092 61.2402C104.092 60.0781 104.358 59.1598 104.892 58.4854C105.425 57.8063 106.14 57.4668 107.038 57.4668C107.913 57.4668 108.604 57.7607 109.109 58.3486L109.164 57.6035H110.326V67.8438H109.062V64.3164C108.551 64.8633 107.872 65.1367 107.024 65.1367C106.131 65.1367 105.418 64.7904 104.885 64.0977C104.356 63.4004 104.092 62.4775 104.092 61.3291V61.2402ZM105.356 61.3838C105.356 62.2314 105.534 62.8968 105.89 63.3799C106.25 63.863 106.733 64.1045 107.339 64.1045C108.091 64.1045 108.665 63.7718 109.062 63.1064V59.4834C108.66 58.8317 108.091 58.5059 107.353 58.5059C106.742 58.5059 106.257 58.7497 105.896 59.2373C105.536 59.7204 105.356 60.4359 105.356 61.3838ZM116.923 64.2686C116.431 64.8473 115.708 65.1367 114.756 65.1367C113.967 65.1367 113.366 64.9089 112.951 64.4531C112.541 63.9928 112.334 63.3138 112.329 62.416V57.6035H113.594V62.3818C113.594 63.5029 114.049 64.0635 114.961 64.0635C115.927 64.0635 116.57 63.7035 116.889 62.9834V57.6035H118.153V65H116.95L116.923 64.2686ZM123.15 65.1367C122.148 65.1367 121.332 64.8086 120.703 64.1523C120.074 63.4915 119.76 62.6097 119.76 61.5068V61.2744C119.76 60.5407 119.899 59.8867 120.177 59.3125C120.459 58.7337 120.851 58.2826 121.353 57.959C121.858 57.6309 122.405 57.4668 122.993 57.4668C123.955 57.4668 124.702 57.7835 125.235 58.417C125.769 59.0505 126.035 59.9574 126.035 61.1377V61.6641H121.024C121.043 62.3932 121.255 62.9834 121.66 63.4346C122.07 63.8812 122.59 64.1045 123.219 64.1045C123.665 64.1045 124.044 64.0133 124.354 63.8311C124.663 63.6488 124.935 63.4072 125.167 63.1064L125.939 63.708C125.32 64.6605 124.39 65.1367 123.15 65.1367ZM122.993 58.5059C122.483 58.5059 122.054 58.6927 121.708 59.0664C121.362 59.4355 121.147 59.9551 121.065 60.625H124.771V60.5293C124.734 59.8867 124.561 59.39 124.251 59.0391C123.941 58.6836 123.522 58.5059 122.993 58.5059ZM132.242 58.499C132.803 57.8109 133.532 57.4668 134.43 57.4668C135.993 57.4668 136.781 58.3486 136.795 60.1123V65H135.53V60.1055C135.526 59.5723 135.403 59.1781 135.161 58.9229C134.924 58.6676 134.553 58.54 134.047 58.54C133.637 58.54 133.277 58.6494 132.967 58.8682C132.657 59.0869 132.415 59.374 132.242 59.7295V65H130.978V54.5H132.242V58.499ZM143.255 65C143.182 64.8542 143.123 64.5944 143.077 64.2207C142.489 64.8314 141.787 65.1367 140.972 65.1367C140.243 65.1367 139.643 64.9316 139.174 64.5215C138.709 64.1068 138.477 63.5827 138.477 62.9492C138.477 62.179 138.768 61.582 139.352 61.1582C139.939 60.7298 140.764 60.5156 141.826 60.5156H143.057V59.9346C143.057 59.4925 142.924 59.1416 142.66 58.8818C142.396 58.6175 142.006 58.4854 141.491 58.4854C141.04 58.4854 140.662 58.5993 140.356 58.8271C140.051 59.055 139.898 59.3307 139.898 59.6543H138.627C138.627 59.2852 138.757 58.9297 139.017 58.5879C139.281 58.2415 139.636 57.9681 140.083 57.7676C140.534 57.5671 141.029 57.4668 141.566 57.4668C142.419 57.4668 143.086 57.681 143.569 58.1094C144.052 58.5332 144.303 59.1188 144.321 59.8662V63.2705C144.321 63.9495 144.408 64.4896 144.581 64.8906V65H143.255ZM141.156 64.0361C141.553 64.0361 141.929 63.9336 142.284 63.7285C142.64 63.5234 142.897 63.2568 143.057 62.9287V61.4111H142.065C140.516 61.4111 139.741 61.8646 139.741 62.7715C139.741 63.168 139.873 63.4779 140.138 63.7012C140.402 63.9245 140.742 64.0361 141.156 64.0361ZM152.565 61.3838C152.565 62.514 152.306 63.4232 151.786 64.1113C151.267 64.7949 150.569 65.1367 149.694 65.1367C148.76 65.1367 148.038 64.8063 147.527 64.1455L147.466 65H146.304V54.5H147.568V58.417C148.079 57.7835 148.783 57.4668 149.681 57.4668C150.578 57.4668 151.283 57.8063 151.793 58.4854C152.308 59.1644 152.565 60.0941 152.565 61.2744V61.3838ZM151.301 61.2402C151.301 60.3789 151.134 59.7135 150.802 59.2441C150.469 58.7747 149.991 58.54 149.366 58.54C148.532 58.54 147.933 58.9274 147.568 59.7021V62.9014C147.956 63.6761 148.56 64.0635 149.38 64.0635C149.986 64.0635 150.458 63.8288 150.795 63.3594C151.132 62.89 151.301 62.1836 151.301 61.2402ZM157.74 58.7383C157.549 58.7064 157.341 58.6904 157.118 58.6904C156.289 58.6904 155.726 59.0436 155.43 59.75V65H154.165V57.6035H155.396L155.416 58.458C155.831 57.7972 156.419 57.4668 157.18 57.4668C157.426 57.4668 157.613 57.4987 157.74 57.5625V58.7383ZM160.283 65H159.012V57.6035H160.283V65ZM160.297 54.5068H161.828L159.996 56.5166H158.978L160.297 54.5068ZM166.935 65C166.862 64.8542 166.802 64.5944 166.757 64.2207C166.169 64.8314 165.467 65.1367 164.651 65.1367C163.922 65.1367 163.323 64.9316 162.854 64.5215C162.389 64.1068 162.156 63.5827 162.156 62.9492C162.156 62.179 162.448 61.582 163.031 61.1582C163.619 60.7298 164.444 60.5156 165.506 60.5156H166.736V59.9346C166.736 59.4925 166.604 59.1416 166.34 58.8818C166.076 58.6175 165.686 58.4854 165.171 58.4854C164.72 58.4854 164.341 58.5993 164.036 58.8271C163.731 59.055 163.578 59.3307 163.578 59.6543H162.307C162.307 59.2852 162.437 58.9297 162.696 58.5879C162.961 58.2415 163.316 57.9681 163.763 57.7676C164.214 57.5671 164.708 57.4668 165.246 57.4668C166.098 57.4668 166.766 57.681 167.249 58.1094C167.732 58.5332 167.983 59.1188 168.001 59.8662V63.2705C168.001 63.9495 168.088 64.4896 168.261 64.8906V65H166.935ZM164.836 64.0361C165.232 64.0361 165.608 63.9336 165.964 63.7285C166.319 63.5234 166.577 63.2568 166.736 62.9287V61.4111H165.745C164.196 61.4111 163.421 61.8646 163.421 62.7715C163.421 63.168 163.553 63.4779 163.817 63.7012C164.082 63.9245 164.421 64.0361 164.836 64.0361ZM174.29 63.0381C174.29 62.6963 174.16 62.432 173.9 62.2451C173.645 62.0537 173.196 61.8896 172.554 61.7529C171.916 61.6162 171.408 61.4521 171.029 61.2607C170.656 61.0693 170.378 60.8415 170.195 60.5771C170.018 60.3128 169.929 59.9984 169.929 59.6338C169.929 59.0277 170.184 58.515 170.694 58.0957C171.209 57.6764 171.866 57.4668 172.663 57.4668C173.502 57.4668 174.181 57.6833 174.7 58.1162C175.224 58.5492 175.486 59.1029 175.486 59.7773H174.215C174.215 59.431 174.067 59.1325 173.771 58.8818C173.479 58.6312 173.11 58.5059 172.663 58.5059C172.203 58.5059 171.843 58.6061 171.583 58.8066C171.323 59.0072 171.193 59.2692 171.193 59.5928C171.193 59.8981 171.314 60.1283 171.556 60.2832C171.797 60.4382 172.232 60.5863 172.861 60.7275C173.495 60.8688 174.007 61.0374 174.399 61.2334C174.791 61.4294 175.081 61.6663 175.268 61.9443C175.459 62.2178 175.555 62.5527 175.555 62.9492C175.555 63.61 175.29 64.141 174.762 64.542C174.233 64.9385 173.547 65.1367 172.704 65.1367C172.112 65.1367 171.588 65.0319 171.132 64.8223C170.676 64.6126 170.318 64.321 170.059 63.9473C169.803 63.569 169.676 63.1611 169.676 62.7236H170.94C170.963 63.1475 171.132 63.4847 171.446 63.7354C171.765 63.9814 172.185 64.1045 172.704 64.1045C173.183 64.1045 173.565 64.0088 173.853 63.8174C174.144 63.6214 174.29 63.3617 174.29 63.0381ZM180.374 61.2402C180.374 60.0872 180.641 59.1712 181.174 58.4922C181.707 57.8086 182.413 57.4668 183.293 57.4668C184.195 57.4668 184.899 57.7858 185.405 58.4238L185.467 57.6035H186.622V64.8223C186.622 65.7793 186.337 66.5335 185.768 67.085C185.202 67.6364 184.441 67.9121 183.484 67.9121C182.951 67.9121 182.429 67.7982 181.919 67.5703C181.409 67.3424 181.019 67.0303 180.75 66.6338L181.406 65.875C181.949 66.5449 182.612 66.8799 183.396 66.8799C184.011 66.8799 184.489 66.7067 184.831 66.3604C185.177 66.014 185.351 65.5264 185.351 64.8975V64.2617C184.845 64.8451 184.154 65.1367 183.279 65.1367C182.413 65.1367 181.712 64.7881 181.174 64.0908C180.641 63.3936 180.374 62.4434 180.374 61.2402ZM181.646 61.3838C181.646 62.2178 181.816 62.874 182.158 63.3525C182.5 63.8265 182.979 64.0635 183.594 64.0635C184.391 64.0635 184.977 63.7012 185.351 62.9766V59.5996C184.963 58.8932 184.382 58.54 183.607 58.54C182.992 58.54 182.511 58.7793 182.165 59.2578C181.819 59.7363 181.646 60.445 181.646 61.3838ZM193.103 65C193.03 64.8542 192.97 64.5944 192.925 64.2207C192.337 64.8314 191.635 65.1367 190.819 65.1367C190.09 65.1367 189.491 64.9316 189.021 64.5215C188.557 64.1068 188.324 63.5827 188.324 62.9492C188.324 62.179 188.616 61.582 189.199 61.1582C189.787 60.7298 190.612 60.5156 191.674 60.5156H192.904V59.9346C192.904 59.4925 192.772 59.1416 192.508 58.8818C192.243 58.6175 191.854 58.4854 191.339 58.4854C190.888 58.4854 190.509 58.5993 190.204 58.8271C189.899 59.055 189.746 59.3307 189.746 59.6543H188.475C188.475 59.2852 188.604 58.9297 188.864 58.5879C189.129 58.2415 189.484 57.9681 189.931 57.7676C190.382 57.5671 190.876 57.4668 191.414 57.4668C192.266 57.4668 192.934 57.681 193.417 58.1094C193.9 58.5332 194.151 59.1188 194.169 59.8662V63.2705C194.169 63.9495 194.256 64.4896 194.429 64.8906V65H193.103ZM191.004 64.0361C191.4 64.0361 191.776 63.9336 192.132 63.7285C192.487 63.5234 192.745 63.2568 192.904 62.9287V61.4111H191.913C190.364 61.4111 189.589 61.8646 189.589 62.7715C189.589 63.168 189.721 63.4779 189.985 63.7012C190.25 63.9245 190.589 64.0361 191.004 64.0361ZM197.348 57.6035L197.389 58.5332C197.954 57.8223 198.692 57.4668 199.604 57.4668C201.167 57.4668 201.955 58.3486 201.969 60.1123V65H200.704V60.1055C200.7 59.5723 200.576 59.1781 200.335 58.9229C200.098 58.6676 199.727 58.54 199.221 58.54C198.811 58.54 198.451 58.6494 198.141 58.8682C197.831 59.0869 197.589 59.374 197.416 59.7295V65H196.151V57.6035H197.348ZM208.442 65C208.369 64.8542 208.31 64.5944 208.265 64.2207C207.677 64.8314 206.975 65.1367 206.159 65.1367C205.43 65.1367 204.831 64.9316 204.361 64.5215C203.896 64.1068 203.664 63.5827 203.664 62.9492C203.664 62.179 203.956 61.582 204.539 61.1582C205.127 60.7298 205.952 60.5156 207.014 60.5156H208.244V59.9346C208.244 59.4925 208.112 59.1416 207.848 58.8818C207.583 58.6175 207.194 58.4854 206.679 58.4854C206.228 58.4854 205.849 58.5993 205.544 58.8271C205.239 59.055 205.086 59.3307 205.086 59.6543H203.814C203.814 59.2852 203.944 58.9297 204.204 58.5879C204.468 58.2415 204.824 57.9681 205.271 57.7676C205.722 57.5671 206.216 57.4668 206.754 57.4668C207.606 57.4668 208.274 57.681 208.757 58.1094C209.24 58.5332 209.491 59.1188 209.509 59.8662V63.2705C209.509 63.9495 209.595 64.4896 209.769 64.8906V65H208.442ZM206.344 64.0361C206.74 64.0361 207.116 63.9336 207.472 63.7285C207.827 63.5234 208.085 63.2568 208.244 62.9287V61.4111H207.253C205.703 61.4111 204.929 61.8646 204.929 62.7715C204.929 63.168 205.061 63.4779 205.325 63.7012C205.59 63.9245 205.929 64.0361 206.344 64.0361ZM211.184 61.2402C211.184 60.1055 211.452 59.194 211.99 58.5059C212.528 57.8132 213.232 57.4668 214.103 57.4668C214.968 57.4668 215.654 57.763 216.16 58.3555V54.5H217.425V65H216.263L216.201 64.207C215.695 64.8268 214.991 65.1367 214.089 65.1367C213.232 65.1367 212.533 64.7858 211.99 64.084C211.452 63.3822 211.184 62.4661 211.184 61.3359V61.2402ZM212.448 61.3838C212.448 62.2223 212.621 62.8786 212.968 63.3525C213.314 63.8265 213.793 64.0635 214.403 64.0635C215.205 64.0635 215.791 63.7035 216.16 62.9834V59.5859C215.782 58.8887 215.201 58.54 214.417 58.54C213.797 58.54 213.314 58.7793 212.968 59.2578C212.621 59.7363 212.448 60.445 212.448 61.3838ZM219.059 61.2334C219.059 60.5088 219.2 59.8571 219.482 59.2783C219.77 58.6995 220.166 58.2529 220.672 57.9385C221.182 57.624 221.763 57.4668 222.415 57.4668C223.422 57.4668 224.236 57.8154 224.855 58.5127C225.48 59.21 225.792 60.1374 225.792 61.2949V61.3838C225.792 62.1038 225.653 62.751 225.375 63.3252C225.102 63.8949 224.707 64.3392 224.192 64.6582C223.682 64.9772 223.094 65.1367 222.429 65.1367C221.426 65.1367 220.613 64.7881 219.988 64.0908C219.368 63.3936 219.059 62.4707 219.059 61.3223V61.2334ZM220.33 61.3838C220.33 62.2041 220.519 62.8626 220.897 63.3594C221.28 63.8561 221.791 64.1045 222.429 64.1045C223.071 64.1045 223.582 63.8538 223.96 63.3525C224.338 62.8467 224.527 62.1403 224.527 61.2334C224.527 60.4222 224.334 59.766 223.946 59.2646C223.563 58.7588 223.053 58.5059 222.415 58.5059C221.791 58.5059 221.287 58.7542 220.904 59.251C220.521 59.7477 220.33 60.4587 220.33 61.3838ZM235.157 63.0381C235.157 62.6963 235.027 62.432 234.768 62.2451C234.512 62.0537 234.063 61.8896 233.421 61.7529C232.783 61.6162 232.275 61.4521 231.896 61.2607C231.523 61.0693 231.245 60.8415 231.062 60.5771C230.885 60.3128 230.796 59.9984 230.796 59.6338C230.796 59.0277 231.051 58.515 231.562 58.0957C232.076 57.6764 232.733 57.4668 233.53 57.4668C234.369 57.4668 235.048 57.6833 235.567 58.1162C236.091 58.5492 236.354 59.1029 236.354 59.7773H235.082C235.082 59.431 234.934 59.1325 234.638 58.8818C234.346 58.6312 233.977 58.5059 233.53 58.5059C233.07 58.5059 232.71 58.6061 232.45 58.8066C232.19 59.0072 232.061 59.2692 232.061 59.5928C232.061 59.8981 232.181 60.1283 232.423 60.2832C232.664 60.4382 233.1 60.5863 233.729 60.7275C234.362 60.8688 234.875 61.0374 235.267 61.2334C235.659 61.4294 235.948 61.6663 236.135 61.9443C236.326 62.2178 236.422 62.5527 236.422 62.9492C236.422 63.61 236.158 64.141 235.629 64.542C235.1 64.9385 234.414 65.1367 233.571 65.1367C232.979 65.1367 232.455 65.0319 231.999 64.8223C231.543 64.6126 231.186 64.321 230.926 63.9473C230.671 63.569 230.543 63.1611 230.543 62.7236H231.808C231.83 63.1475 231.999 63.4847 232.313 63.7354C232.632 63.9814 233.052 64.1045 233.571 64.1045C234.05 64.1045 234.433 64.0088 234.72 63.8174C235.011 63.6214 235.157 63.3617 235.157 63.0381ZM239.443 65H238.179V57.6035H239.443V65ZM238.076 55.6416C238.076 55.4365 238.138 55.2633 238.261 55.1221C238.388 54.9808 238.575 54.9102 238.821 54.9102C239.067 54.9102 239.254 54.9808 239.382 55.1221C239.509 55.2633 239.573 55.4365 239.573 55.6416C239.573 55.8467 239.509 56.0176 239.382 56.1543C239.254 56.291 239.067 56.3594 238.821 56.3594C238.575 56.3594 238.388 56.291 238.261 56.1543C238.138 56.0176 238.076 55.8467 238.076 55.6416ZM246.211 58.499C246.771 57.8109 247.501 57.4668 248.398 57.4668C249.962 57.4668 250.75 58.3486 250.764 60.1123V65H249.499V60.1055C249.494 59.5723 249.371 59.1781 249.13 58.9229C248.893 58.6676 248.521 58.54 248.016 58.54C247.605 58.54 247.245 58.6494 246.936 58.8682C246.626 59.0869 246.384 59.374 246.211 59.7295V65H244.946V54.5H246.211V58.499ZM257.224 64.2686C256.731 64.8473 256.009 65.1367 255.057 65.1367C254.268 65.1367 253.667 64.9089 253.252 64.4531C252.842 63.9928 252.634 63.3138 252.63 62.416V57.6035H253.895V62.3818C253.895 63.5029 254.35 64.0635 255.262 64.0635C256.228 64.0635 256.87 63.7035 257.189 62.9834V57.6035H258.454V65H257.251L257.224 64.2686ZM266.644 61.3838C266.644 62.514 266.384 63.4232 265.864 64.1113C265.345 64.7949 264.647 65.1367 263.772 65.1367C262.838 65.1367 262.116 64.8063 261.605 64.1455L261.544 65H260.382V54.5H261.646V58.417C262.157 57.7835 262.861 57.4668 263.759 57.4668C264.657 57.4668 265.361 57.8063 265.871 58.4854C266.386 59.1644 266.644 60.0941 266.644 61.2744V61.3838ZM265.379 61.2402C265.379 60.3789 265.213 59.7135 264.88 59.2441C264.547 58.7747 264.069 58.54 263.444 58.54C262.61 58.54 262.011 58.9274 261.646 59.7021V62.9014C262.034 63.6761 262.638 64.0635 263.458 64.0635C264.064 64.0635 264.536 63.8288 264.873 63.3594C265.21 62.89 265.379 62.1836 265.379 61.2402ZM269.617 65H268.353V57.6035H269.617V65ZM268.25 55.6416C268.25 55.4365 268.312 55.2633 268.435 55.1221C268.562 54.9808 268.749 54.9102 268.995 54.9102C269.241 54.9102 269.428 54.9808 269.556 55.1221C269.683 55.2633 269.747 55.4365 269.747 55.6416C269.747 55.8467 269.683 56.0176 269.556 56.1543C269.428 56.291 269.241 56.3594 268.995 56.3594C268.749 56.3594 268.562 56.291 268.435 56.1543C268.312 56.0176 268.25 55.8467 268.25 55.6416ZM274.717 65.1367C273.714 65.1367 272.898 64.8086 272.27 64.1523C271.641 63.4915 271.326 62.6097 271.326 61.5068V61.2744C271.326 60.5407 271.465 59.8867 271.743 59.3125C272.026 58.7337 272.418 58.2826 272.919 57.959C273.425 57.6309 273.972 57.4668 274.56 57.4668C275.521 57.4668 276.269 57.7835 276.802 58.417C277.335 59.0505 277.602 59.9574 277.602 61.1377V61.6641H272.591C272.609 62.3932 272.821 62.9834 273.227 63.4346C273.637 63.8812 274.156 64.1045 274.785 64.1045C275.232 64.1045 275.61 64.0133 275.92 63.8311C276.23 63.6488 276.501 63.4072 276.733 63.1064L277.506 63.708C276.886 64.6605 275.956 65.1367 274.717 65.1367ZM274.56 58.5059C274.049 58.5059 273.621 58.6927 273.274 59.0664C272.928 59.4355 272.714 59.9551 272.632 60.625H276.337V60.5293C276.3 59.8867 276.127 59.39 275.817 59.0391C275.507 58.6836 275.088 58.5059 274.56 58.5059ZM282.646 58.7383C282.455 58.7064 282.248 58.6904 282.024 58.6904C281.195 58.6904 280.632 59.0436 280.336 59.75V65H279.071V57.6035H280.302L280.322 58.458C280.737 57.7972 281.325 57.4668 282.086 57.4668C282.332 57.4668 282.519 57.4987 282.646 57.5625V58.7383ZM288.108 65C288.035 64.8542 287.976 64.5944 287.931 64.2207C287.343 64.8314 286.641 65.1367 285.825 65.1367C285.096 65.1367 284.497 64.9316 284.027 64.5215C283.562 64.1068 283.33 63.5827 283.33 62.9492C283.33 62.179 283.622 61.582 284.205 61.1582C284.793 60.7298 285.618 60.5156 286.68 60.5156H287.91V59.9346C287.91 59.4925 287.778 59.1416 287.514 58.8818C287.249 58.6175 286.86 58.4854 286.345 58.4854C285.894 58.4854 285.515 58.5993 285.21 58.8271C284.905 59.055 284.752 59.3307 284.752 59.6543H283.48C283.48 59.2852 283.61 58.9297 283.87 58.5879C284.134 58.2415 284.49 57.9681 284.937 57.7676C285.388 57.5671 285.882 57.4668 286.42 57.4668C287.272 57.4668 287.94 57.681 288.423 58.1094C288.906 58.5332 289.157 59.1188 289.175 59.8662V63.2705C289.175 63.9495 289.261 64.4896 289.435 64.8906V65H288.108ZM286.01 64.0361C286.406 64.0361 286.782 63.9336 287.138 63.7285C287.493 63.5234 287.751 63.2568 287.91 62.9287V61.4111H286.919C285.369 61.4111 284.595 61.8646 284.595 62.7715C284.595 63.168 284.727 63.4779 284.991 63.7012C285.256 63.9245 285.595 64.0361 286.01 64.0361ZM295.464 63.0381C295.464 62.6963 295.334 62.432 295.074 62.2451C294.819 62.0537 294.37 61.8896 293.728 61.7529C293.09 61.6162 292.581 61.4521 292.203 61.2607C291.829 61.0693 291.551 60.8415 291.369 60.5771C291.191 60.3128 291.103 59.9984 291.103 59.6338C291.103 59.0277 291.358 58.515 291.868 58.0957C292.383 57.6764 293.039 57.4668 293.837 57.4668C294.675 57.4668 295.354 57.6833 295.874 58.1162C296.398 58.5492 296.66 59.1029 296.66 59.7773H295.389C295.389 59.431 295.241 59.1325 294.944 58.8818C294.653 58.6312 294.284 58.5059 293.837 58.5059C293.377 58.5059 293.017 58.6061 292.757 58.8066C292.497 59.0072 292.367 59.2692 292.367 59.5928C292.367 59.8981 292.488 60.1283 292.729 60.2832C292.971 60.4382 293.406 60.5863 294.035 60.7275C294.669 60.8688 295.181 61.0374 295.573 61.2334C295.965 61.4294 296.255 61.6663 296.441 61.9443C296.633 62.2178 296.729 62.5527 296.729 62.9492C296.729 63.61 296.464 64.141 295.936 64.542C295.407 64.9385 294.721 65.1367 293.878 65.1367C293.285 65.1367 292.761 65.0319 292.306 64.8223C291.85 64.6126 291.492 64.321 291.232 63.9473C290.977 63.569 290.85 63.1611 290.85 62.7236H292.114C292.137 63.1475 292.306 63.4847 292.62 63.7354C292.939 63.9814 293.358 64.1045 293.878 64.1045C294.356 64.1045 294.739 64.0088 295.026 63.8174C295.318 63.6214 295.464 63.3617 295.464 63.0381ZM126.568 81H125.304V73.6035H126.568V81ZM125.201 71.6416C125.201 71.4365 125.263 71.2633 125.386 71.1221C125.513 70.9808 125.7 70.9102 125.946 70.9102C126.192 70.9102 126.379 70.9808 126.507 71.1221C126.634 71.2633 126.698 71.4365 126.698 71.6416C126.698 71.8467 126.634 72.0176 126.507 72.1543C126.379 72.291 126.192 72.3594 125.946 72.3594C125.7 72.3594 125.513 72.291 125.386 72.1543C125.263 72.0176 125.201 71.8467 125.201 71.6416ZM129.795 73.6035L129.836 74.5332C130.401 73.8223 131.139 73.4668 132.051 73.4668C133.614 73.4668 134.402 74.3486 134.416 76.1123V81H133.151V76.1055C133.147 75.5723 133.024 75.1781 132.782 74.9229C132.545 74.6676 132.174 74.54 131.668 74.54C131.258 74.54 130.898 74.6494 130.588 74.8682C130.278 75.0869 130.036 75.374 129.863 75.7295V81H128.599V73.6035H129.795ZM138.764 79.2842L140.596 73.6035H141.888L139.235 81H138.271L135.592 73.6035H136.884L138.764 79.2842ZM146.078 81.1367C145.076 81.1367 144.26 80.8086 143.631 80.1523C143.002 79.4915 142.688 78.6097 142.688 77.5068V77.2744C142.688 76.5407 142.826 75.8867 143.104 75.3125C143.387 74.7337 143.779 74.2826 144.28 73.959C144.786 73.6309 145.333 73.4668 145.921 73.4668C146.882 73.4668 147.63 73.7835 148.163 74.417C148.696 75.0505 148.963 75.9574 148.963 77.1377V77.6641H143.952C143.97 78.3932 144.182 78.9834 144.588 79.4346C144.998 79.8812 145.518 80.1045 146.146 80.1045C146.593 80.1045 146.971 80.0133 147.281 79.8311C147.591 79.6488 147.862 79.4072 148.095 79.1064L148.867 79.708C148.247 80.6605 147.318 81.1367 146.078 81.1367ZM145.921 74.5059C145.41 74.5059 144.982 74.6927 144.636 75.0664C144.289 75.4355 144.075 75.9551 143.993 76.625H147.698V76.5293C147.662 75.8867 147.489 75.39 147.179 75.0391C146.869 74.6836 146.45 74.5059 145.921 74.5059ZM154.008 74.7383C153.816 74.7064 153.609 74.6904 153.386 74.6904C152.556 74.6904 151.993 75.0436 151.697 75.75V81H150.433V73.6035H151.663L151.684 74.458C152.098 73.7972 152.686 73.4668 153.447 73.4668C153.693 73.4668 153.88 73.4987 154.008 73.5625V74.7383ZM157.234 71.8125V73.6035H158.615V74.5811H157.234V79.168C157.234 79.4642 157.296 79.6875 157.419 79.8379C157.542 79.9837 157.752 80.0566 158.048 80.0566C158.194 80.0566 158.394 80.0293 158.649 79.9746V81C158.317 81.0911 157.993 81.1367 157.679 81.1367C157.114 81.1367 156.688 80.9658 156.4 80.624C156.113 80.2822 155.97 79.7969 155.97 79.168V74.5811H154.623V73.6035H155.97V71.8125H157.234ZM161.473 81H160.208V73.6035H161.473V81ZM160.105 71.6416C160.105 71.4365 160.167 71.2633 160.29 71.1221C160.418 70.9808 160.604 70.9102 160.851 70.9102C161.097 70.9102 161.284 70.9808 161.411 71.1221C161.539 71.2633 161.603 71.4365 161.603 71.6416C161.603 71.8467 161.539 72.0176 161.411 72.1543C161.284 72.291 161.097 72.3594 160.851 72.3594C160.604 72.3594 160.418 72.291 160.29 72.1543C160.167 72.0176 160.105 71.8467 160.105 71.6416ZM163.195 77.2402C163.195 76.1055 163.464 75.194 164.002 74.5059C164.54 73.8132 165.244 73.4668 166.114 73.4668C166.98 73.4668 167.666 73.763 168.172 74.3555V70.5H169.437V81H168.274L168.213 80.207C167.707 80.8268 167.003 81.1367 166.101 81.1367C165.244 81.1367 164.544 80.7858 164.002 80.084C163.464 79.3822 163.195 78.4661 163.195 77.3359V77.2402ZM164.46 77.3838C164.46 78.2223 164.633 78.8786 164.979 79.3525C165.326 79.8265 165.804 80.0635 166.415 80.0635C167.217 80.0635 167.803 79.7035 168.172 78.9834V75.5859C167.794 74.8887 167.213 74.54 166.429 74.54C165.809 74.54 165.326 74.7793 164.979 75.2578C164.633 75.7363 164.46 76.445 164.46 77.3838ZM171.07 77.2334C171.07 76.5088 171.212 75.8571 171.494 75.2783C171.781 74.6995 172.178 74.2529 172.684 73.9385C173.194 73.624 173.775 73.4668 174.427 73.4668C175.434 73.4668 176.247 73.8154 176.867 74.5127C177.492 75.21 177.804 76.1374 177.804 77.2949V77.3838C177.804 78.1038 177.665 78.751 177.387 79.3252C177.113 79.8949 176.719 80.3392 176.204 80.6582C175.694 80.9772 175.106 81.1367 174.44 81.1367C173.438 81.1367 172.624 80.7881 172 80.0908C171.38 79.3936 171.07 78.4707 171.07 77.3223V77.2334ZM172.342 77.3838C172.342 78.2041 172.531 78.8626 172.909 79.3594C173.292 79.8561 173.802 80.1045 174.44 80.1045C175.083 80.1045 175.593 79.8538 175.972 79.3525C176.35 78.8467 176.539 78.1403 176.539 77.2334C176.539 76.4222 176.345 75.766 175.958 75.2646C175.575 74.7588 175.065 74.5059 174.427 74.5059C173.802 74.5059 173.299 74.7542 172.916 75.251C172.533 75.7477 172.342 76.4587 172.342 77.3838ZM187.757 78.4365C187.757 78.0173 187.609 77.6641 187.312 77.377C187.021 77.0898 186.526 76.8301 185.829 76.5977C184.858 76.3014 184.15 75.9163 183.703 75.4424C183.261 74.9639 183.04 74.3577 183.04 73.624C183.04 72.8766 183.257 72.2637 183.689 71.7852C184.127 71.3066 184.726 71.0218 185.487 70.9307V69.4336H186.506V70.9375C187.271 71.0423 187.866 71.3636 188.29 71.9014C188.718 72.4391 188.933 73.1751 188.933 74.1094H187.675C187.675 73.4668 187.522 72.9564 187.217 72.5781C186.911 72.1999 186.499 72.0107 185.979 72.0107C185.437 72.0107 185.022 72.152 184.735 72.4346C184.448 72.7126 184.305 73.1022 184.305 73.6035C184.305 74.0684 184.455 74.4398 184.756 74.7178C185.061 74.9912 185.56 75.2419 186.253 75.4697C186.95 75.693 187.493 75.9414 187.88 76.2148C188.272 76.4837 188.559 76.7982 188.741 77.1582C188.928 77.5182 189.021 77.9398 189.021 78.4229C189.021 79.193 188.789 79.8128 188.324 80.2822C187.864 80.7516 187.217 81.0296 186.383 81.1162V82.4219H185.371V81.1162C184.523 81.0387 183.858 80.738 183.375 80.2139C182.896 79.6852 182.657 78.9697 182.657 78.0674H183.922C183.922 78.7008 184.088 79.1885 184.421 79.5303C184.754 79.8721 185.225 80.043 185.836 80.043C186.433 80.043 186.902 79.8994 187.244 79.6123C187.586 79.3252 187.757 78.9333 187.757 78.4365ZM194.183 81H192.911V72.5713L190.361 73.5078V72.3594L193.984 70.999H194.183V81ZM203.056 76.7549C203.056 78.236 202.803 79.3366 202.297 80.0566C201.791 80.7767 201 81.1367 199.925 81.1367C198.863 81.1367 198.077 80.7858 197.566 80.084C197.056 79.3776 196.792 78.3249 196.773 76.9258V75.2373C196.773 73.7744 197.026 72.6875 197.532 71.9766C198.038 71.2656 198.831 70.9102 199.911 70.9102C200.982 70.9102 201.771 71.2542 202.276 71.9424C202.782 72.626 203.042 73.6833 203.056 75.1143V76.7549ZM201.791 75.0254C201.791 73.9544 201.641 73.1751 201.34 72.6875C201.039 72.1953 200.563 71.9492 199.911 71.9492C199.264 71.9492 198.792 72.193 198.496 72.6807C198.2 73.1683 198.047 73.918 198.038 74.9297V76.9531C198.038 78.0286 198.193 78.8239 198.503 79.3389C198.817 79.8493 199.291 80.1045 199.925 80.1045C200.549 80.1045 201.012 79.863 201.312 79.3799C201.618 78.8968 201.777 78.1357 201.791 77.0967V75.0254ZM211.19 76.7549C211.19 78.236 210.938 79.3366 210.432 80.0566C209.926 80.7767 209.135 81.1367 208.06 81.1367C206.998 81.1367 206.212 80.7858 205.701 80.084C205.191 79.3776 204.926 78.3249 204.908 76.9258V75.2373C204.908 73.7744 205.161 72.6875 205.667 71.9766C206.173 71.2656 206.966 70.9102 208.046 70.9102C209.117 70.9102 209.905 71.2542 210.411 71.9424C210.917 72.626 211.177 73.6833 211.19 75.1143V76.7549ZM209.926 75.0254C209.926 73.9544 209.775 73.1751 209.475 72.6875C209.174 72.1953 208.698 71.9492 208.046 71.9492C207.399 71.9492 206.927 72.193 206.631 72.6807C206.335 73.1683 206.182 73.918 206.173 74.9297V76.9531C206.173 78.0286 206.328 78.8239 206.638 79.3389C206.952 79.8493 207.426 80.1045 208.06 80.1045C208.684 80.1045 209.146 79.863 209.447 79.3799C209.753 78.8968 209.912 78.1357 209.926 77.0967V75.0254ZM213.104 80.3369C213.104 80.1182 213.168 79.9359 213.296 79.79C213.428 79.6442 213.624 79.5713 213.884 79.5713C214.144 79.5713 214.34 79.6442 214.472 79.79C214.608 79.9359 214.677 80.1182 214.677 80.3369C214.677 80.5465 214.608 80.722 214.472 80.8633C214.34 81.0046 214.144 81.0752 213.884 81.0752C213.624 81.0752 213.428 81.0046 213.296 80.8633C213.168 80.722 213.104 80.5465 213.104 80.3369ZM223.017 76.7549C223.017 78.236 222.764 79.3366 222.258 80.0566C221.752 80.7767 220.961 81.1367 219.886 81.1367C218.824 81.1367 218.038 80.7858 217.527 80.084C217.017 79.3776 216.753 78.3249 216.734 76.9258V75.2373C216.734 73.7744 216.987 72.6875 217.493 71.9766C217.999 71.2656 218.792 70.9102 219.872 70.9102C220.943 70.9102 221.731 71.2542 222.237 71.9424C222.743 72.626 223.003 73.6833 223.017 75.1143V76.7549ZM221.752 75.0254C221.752 73.9544 221.602 73.1751 221.301 72.6875C221 72.1953 220.524 71.9492 219.872 71.9492C219.225 71.9492 218.753 72.193 218.457 72.6807C218.161 73.1683 218.008 73.918 217.999 74.9297V76.9531C217.999 78.0286 218.154 78.8239 218.464 79.3389C218.778 79.8493 219.252 80.1045 219.886 80.1045C220.51 80.1045 220.973 79.863 221.273 79.3799C221.579 78.8968 221.738 78.1357 221.752 77.0967V75.0254ZM231.151 76.7549C231.151 78.236 230.898 79.3366 230.393 80.0566C229.887 80.7767 229.096 81.1367 228.021 81.1367C226.959 81.1367 226.173 80.7858 225.662 80.084C225.152 79.3776 224.887 78.3249 224.869 76.9258V75.2373C224.869 73.7744 225.122 72.6875 225.628 71.9766C226.134 71.2656 226.927 70.9102 228.007 70.9102C229.078 70.9102 229.866 71.2542 230.372 71.9424C230.878 72.626 231.138 73.6833 231.151 75.1143V76.7549ZM229.887 75.0254C229.887 73.9544 229.736 73.1751 229.436 72.6875C229.135 72.1953 228.659 71.9492 228.007 71.9492C227.36 71.9492 226.888 72.193 226.592 72.6807C226.296 73.1683 226.143 73.918 226.134 74.9297V76.9531C226.134 78.0286 226.289 78.8239 226.599 79.3389C226.913 79.8493 227.387 80.1045 228.021 80.1045C228.645 80.1045 229.107 79.863 229.408 79.3799C229.714 78.8968 229.873 78.1357 229.887 77.0967V75.0254ZM241.077 81C241.004 80.8542 240.945 80.5944 240.899 80.2207C240.312 80.8314 239.61 81.1367 238.794 81.1367C238.065 81.1367 237.465 80.9316 236.996 80.5215C236.531 80.1068 236.299 79.5827 236.299 78.9492C236.299 78.179 236.59 77.582 237.174 77.1582C237.762 76.7298 238.587 76.5156 239.648 76.5156H240.879V75.9346C240.879 75.4925 240.747 75.1416 240.482 74.8818C240.218 74.6175 239.828 74.4854 239.313 74.4854C238.862 74.4854 238.484 74.5993 238.179 74.8271C237.873 75.055 237.721 75.3307 237.721 75.6543H236.449C236.449 75.2852 236.579 74.9297 236.839 74.5879C237.103 74.2415 237.459 73.9681 237.905 73.7676C238.356 73.5671 238.851 73.4668 239.389 73.4668C240.241 73.4668 240.909 73.681 241.392 74.1094C241.875 74.5332 242.125 75.1188 242.144 75.8662V79.2705C242.144 79.9495 242.23 80.4896 242.403 80.8906V81H241.077ZM238.979 80.0361C239.375 80.0361 239.751 79.9336 240.106 79.7285C240.462 79.5234 240.719 79.2568 240.879 78.9287V77.4111H239.888C238.338 77.4111 237.563 77.8646 237.563 78.7715C237.563 79.168 237.696 79.4779 237.96 79.7012C238.224 79.9245 238.564 80.0361 238.979 80.0361ZM246.437 79.1475L248.159 73.6035H249.513L246.539 82.1416C246.079 83.3721 245.347 83.9873 244.345 83.9873L244.105 83.9668L243.634 83.8779V82.8525L243.976 82.8799C244.404 82.8799 244.737 82.7933 244.974 82.6201C245.215 82.4469 245.413 82.1302 245.568 81.6699L245.849 80.918L243.21 73.6035H244.591L246.437 79.1475ZM253.621 81.1367C252.618 81.1367 251.803 80.8086 251.174 80.1523C250.545 79.4915 250.23 78.6097 250.23 77.5068V77.2744C250.23 76.5407 250.369 75.8867 250.647 75.3125C250.93 74.7337 251.322 74.2826 251.823 73.959C252.329 73.6309 252.876 73.4668 253.464 73.4668C254.425 73.4668 255.173 73.7835 255.706 74.417C256.239 75.0505 256.506 75.9574 256.506 77.1377V77.6641H251.495C251.513 78.3932 251.725 78.9834 252.131 79.4346C252.541 79.8812 253.061 80.1045 253.689 80.1045C254.136 80.1045 254.514 80.0133 254.824 79.8311C255.134 79.6488 255.405 79.4072 255.638 79.1064L256.41 79.708C255.79 80.6605 254.861 81.1367 253.621 81.1367ZM253.464 74.5059C252.953 74.5059 252.525 74.6927 252.179 75.0664C251.832 75.4355 251.618 75.9551 251.536 76.625H255.241V76.5293C255.205 75.8867 255.032 75.39 254.722 75.0391C254.412 74.6836 253.993 74.5059 253.464 74.5059ZM261.551 74.7383C261.359 74.7064 261.152 74.6904 260.929 74.6904C260.099 74.6904 259.536 75.0436 259.24 75.75V81H257.976V73.6035H259.206L259.227 74.458C259.641 73.7972 260.229 73.4668 260.99 73.4668C261.236 73.4668 261.423 73.4987 261.551 73.5625V74.7383Z" fill="#323232"/>
<defs>
<filter id="filter0_bdd" x="13.8601" y="-44.63" width="357.26" height="193.26" filterUnits="userSpaceOnUse" color-interpolation-filters="sRGB">
<feFlood flood-opacity="0" result="BackgroundImageFix"/>
<feGaussianBlur in="BackgroundImage" stdDeviation="27.815"/>
<feComposite in2="SourceAlpha" operator="in" result="effect1_backgroundBlur"/>
<feColorMatrix in="SourceAlpha" type="matrix" values="0 0 0 0 0 0 0 0 0 0 0 0 0 0 0 0 0 0 127 0"/>
<feOffset dy="2.55814"/>
<feGaussianBlur stdDeviation="6.39535"/>
<feColorMatrix type="matrix" values="0 0 0 0 0 0 0 0 0 0 0 0 0 0 0 0 0 0 0.3 0"/>
<feBlend mode="normal" in2="effect1_backgroundBlur" result="effect2_dropShadow"/>
<feColorMatrix in="SourceAlpha" type="matrix" values="0 0 0 0 0 0 0 0 0 0 0 0 0 0 0 0 0 0 127 0"/>
<feOffset/>
<feGaussianBlur stdDeviation="0.639535"/>
<feColorMatrix type="matrix" values="0 0 0 0 0 0 0 0 0 0 0 0 0 0 0 0 0 0 0.1 0"/>
<feBlend mode="normal" in2="effect2_dropShadow" result="effect3_dropShadow"/>
<feBlend mode="normal" in="SourceGraphic" in2="effect3_dropShadow" result="shape"/>
</filter>
<filter id="filter1_d" x="0.190144" y="28.3698" width="140.45" height="142.391" filterUnits="userSpaceOnUse" color-interpolation-filters="sRGB">
<feFlood flood-opacity="0" result="BackgroundImageFix"/>
<feColorMatrix in="SourceAlpha" type="matrix" values="0 0 0 0 0 0 0 0 0 0 0 0 0 0 0 0 0 0 127 0"/>
<feOffset dx="4"/>
<feGaussianBlur stdDeviation="27.815"/>
<feColorMatrix type="matrix" values="0 0 0 0 0 0 0 0 0 0 0 0 0 0 0 0 0 0 0.25 0"/>
<feBlend mode="normal" in2="BackgroundImageFix" result="effect1_dropShadow"/>
<feBlend mode="normal" in="SourceGraphic" in2="effect1_dropShadow" result="shape"/>
</filter>
</defs>
</svg>
