<svg width="267" height="174" viewBox="0 0 267 174" fill="none" xmlns="http://www.w3.org/2000/svg">
<g filter="url(#filter0_bdd)">
<rect x="71" y="11" width="183" height="82" rx="10.2326" fill="white"/>
</g>
<path d="M106.989 38.6338C106.989 38.1533 106.854 37.7725 106.585 37.4912C106.321 37.2041 105.87 36.9404 105.231 36.7002C104.593 36.46 104.042 36.2227 103.579 35.9883C103.116 35.748 102.718 35.4756 102.384 35.1709C102.056 34.8604 101.798 34.4971 101.61 34.0811C101.429 33.665 101.338 33.1699 101.338 32.5957C101.338 31.6055 101.654 30.7939 102.287 30.1611C102.92 29.5283 103.761 29.1592 104.81 29.0537V27.1729H106.216V29.0801C107.253 29.2266 108.064 29.6602 108.65 30.3809C109.236 31.0957 109.529 32.0244 109.529 33.167H106.989C106.989 32.4639 106.843 31.9395 106.55 31.5938C106.263 31.2422 105.876 31.0664 105.39 31.0664C104.909 31.0664 104.537 31.2041 104.273 31.4795C104.01 31.749 103.878 32.124 103.878 32.6045C103.878 33.0498 104.007 33.4072 104.265 33.6768C104.522 33.9463 105 34.2217 105.697 34.5029C106.4 34.7842 106.978 35.0508 107.429 35.3027C107.88 35.5488 108.261 35.8301 108.571 36.1465C108.882 36.457 109.119 36.8145 109.283 37.2188C109.447 37.6172 109.529 38.083 109.529 38.6162C109.529 39.6123 109.219 40.4209 108.598 41.042C107.977 41.6631 107.121 42.0293 106.031 42.1406V43.8896H104.634V42.1494C103.433 42.0205 102.501 41.5957 101.839 40.875C101.183 40.1484 100.854 39.1846 100.854 37.9834H103.395C103.395 38.6807 103.559 39.2168 103.887 39.5918C104.221 39.9609 104.698 40.1455 105.319 40.1455C105.835 40.1455 106.242 40.0107 106.541 39.7412C106.84 39.4658 106.989 39.0967 106.989 38.6338ZM111.63 35.707L112.368 29.2031H119.54V31.3213H114.451L114.135 34.0723C114.738 33.75 115.38 33.5889 116.06 33.5889C117.278 33.5889 118.233 33.9668 118.925 34.7227C119.616 35.4785 119.962 36.5361 119.962 37.8955C119.962 38.7217 119.786 39.4629 119.435 40.1191C119.089 40.7695 118.591 41.2764 117.94 41.6396C117.29 41.9971 116.522 42.1758 115.638 42.1758C114.864 42.1758 114.146 42.0205 113.484 41.71C112.822 41.3936 112.298 40.9512 111.911 40.3828C111.53 39.8145 111.328 39.167 111.305 38.4404H113.818C113.871 38.9736 114.056 39.3896 114.372 39.6885C114.694 39.9814 115.113 40.1279 115.629 40.1279C116.203 40.1279 116.646 39.9229 116.956 39.5127C117.267 39.0967 117.422 38.5107 117.422 37.7549C117.422 37.0283 117.243 36.4717 116.886 36.085C116.528 35.6982 116.021 35.5049 115.365 35.5049C114.762 35.5049 114.272 35.6631 113.897 35.9795L113.651 36.208L111.63 35.707ZM130.377 36.709C130.377 38.4785 130.011 39.832 129.278 40.7695C128.546 41.707 127.474 42.1758 126.062 42.1758C124.667 42.1758 123.601 41.7158 122.862 40.7959C122.124 39.876 121.746 38.5576 121.729 36.8408V34.4854C121.729 32.6982 122.098 31.3418 122.836 30.416C123.58 29.4902 124.649 29.0273 126.044 29.0273C127.438 29.0273 128.505 29.4873 129.243 30.4072C129.981 31.3213 130.359 32.6367 130.377 34.3535V36.709ZM127.837 34.125C127.837 33.0645 127.69 32.2939 127.397 31.8135C127.11 31.3271 126.659 31.084 126.044 31.084C125.446 31.084 125.004 31.3154 124.717 31.7783C124.436 32.2354 124.286 32.9531 124.269 33.9316V37.043C124.269 38.0859 124.409 38.8623 124.69 39.3721C124.978 39.876 125.435 40.1279 126.062 40.1279C126.683 40.1279 127.131 39.8848 127.406 39.3984C127.682 38.9121 127.825 38.168 127.837 37.166V34.125ZM141.064 36.709C141.064 38.4785 140.698 39.832 139.966 40.7695C139.233 41.707 138.161 42.1758 136.749 42.1758C135.354 42.1758 134.288 41.7158 133.55 40.7959C132.812 39.876 132.434 38.5576 132.416 36.8408V34.4854C132.416 32.6982 132.785 31.3418 133.523 30.416C134.268 29.4902 135.337 29.0273 136.731 29.0273C138.126 29.0273 139.192 29.4873 139.931 30.4072C140.669 31.3213 141.047 32.6367 141.064 34.3535V36.709ZM138.524 34.125C138.524 33.0645 138.378 32.2939 138.085 31.8135C137.798 31.3271 137.347 31.084 136.731 31.084C136.134 31.084 135.691 31.3154 135.404 31.7783C135.123 32.2354 134.974 32.9531 134.956 33.9316V37.043C134.956 38.0859 135.097 38.8623 135.378 39.3721C135.665 39.876 136.122 40.1279 136.749 40.1279C137.37 40.1279 137.818 39.8848 138.094 39.3984C138.369 38.9121 138.513 38.168 138.524 37.166V34.125ZM151.752 36.709C151.752 38.4785 151.386 39.832 150.653 40.7695C149.921 41.707 148.849 42.1758 147.437 42.1758C146.042 42.1758 144.976 41.7158 144.237 40.7959C143.499 39.876 143.121 38.5576 143.104 36.8408V34.4854C143.104 32.6982 143.473 31.3418 144.211 30.416C144.955 29.4902 146.024 29.0273 147.419 29.0273C148.813 29.0273 149.88 29.4873 150.618 30.4072C151.356 31.3213 151.734 32.6367 151.752 34.3535V36.709ZM149.212 34.125C149.212 33.0645 149.065 32.2939 148.772 31.8135C148.485 31.3271 148.034 31.084 147.419 31.084C146.821 31.084 146.379 31.3154 146.092 31.7783C145.811 32.2354 145.661 32.9531 145.644 33.9316V37.043C145.644 38.0859 145.784 38.8623 146.065 39.3721C146.353 39.876 146.81 40.1279 147.437 40.1279C148.058 40.1279 148.506 39.8848 148.781 39.3984C149.057 38.9121 149.2 38.168 149.212 37.166V34.125ZM153.888 40.752C153.888 40.3477 154.022 40.0195 154.292 39.7676C154.567 39.5156 154.91 39.3896 155.32 39.3896C155.736 39.3896 156.079 39.5156 156.349 39.7676C156.624 40.0195 156.762 40.3477 156.762 40.752C156.762 41.1504 156.627 41.4756 156.357 41.7275C156.088 41.9736 155.742 42.0967 155.32 42.0967C154.904 42.0967 154.562 41.9736 154.292 41.7275C154.022 41.4756 153.888 41.1504 153.888 40.752ZM167.678 36.709C167.678 38.4785 167.312 39.832 166.579 40.7695C165.847 41.707 164.774 42.1758 163.362 42.1758C161.968 42.1758 160.901 41.7158 160.163 40.7959C159.425 39.876 159.047 38.5576 159.029 36.8408V34.4854C159.029 32.6982 159.398 31.3418 160.137 30.416C160.881 29.4902 161.95 29.0273 163.345 29.0273C164.739 29.0273 165.806 29.4873 166.544 30.4072C167.282 31.3213 167.66 32.6367 167.678 34.3535V36.709ZM165.138 34.125C165.138 33.0645 164.991 32.2939 164.698 31.8135C164.411 31.3271 163.96 31.084 163.345 31.084C162.747 31.084 162.305 31.3154 162.018 31.7783C161.736 32.2354 161.587 32.9531 161.569 33.9316V37.043C161.569 38.0859 161.71 38.8623 161.991 39.3721C162.278 39.876 162.735 40.1279 163.362 40.1279C163.983 40.1279 164.432 39.8848 164.707 39.3984C164.982 38.9121 165.126 38.168 165.138 37.166V34.125ZM178.365 36.709C178.365 38.4785 177.999 39.832 177.267 40.7695C176.534 41.707 175.462 42.1758 174.05 42.1758C172.655 42.1758 171.589 41.7158 170.851 40.7959C170.112 39.876 169.734 38.5576 169.717 36.8408V34.4854C169.717 32.6982 170.086 31.3418 170.824 30.416C171.568 29.4902 172.638 29.0273 174.032 29.0273C175.427 29.0273 176.493 29.4873 177.231 30.4072C177.97 31.3213 178.348 32.6367 178.365 34.3535V36.709ZM175.825 34.125C175.825 33.0645 175.679 32.2939 175.386 31.8135C175.099 31.3271 174.647 31.084 174.032 31.084C173.435 31.084 172.992 31.3154 172.705 31.7783C172.424 32.2354 172.274 32.9531 172.257 33.9316V37.043C172.257 38.0859 172.397 38.8623 172.679 39.3721C172.966 39.876 173.423 40.1279 174.05 40.1279C174.671 40.1279 175.119 39.8848 175.395 39.3984C175.67 38.9121 175.813 38.168 175.825 37.166V34.125ZM188.464 29.2031L191.751 38.4844L195.021 29.2031H198.483V42H195.838V38.502L196.102 32.4639L192.647 42H190.837L187.392 32.4727L187.655 38.502V42H185.019V29.2031H188.464ZM205.523 33.6152L207.923 29.2031H210.955L207.229 35.5488L211.052 42H207.984L205.523 37.5176L203.062 42H199.995L203.818 35.5488L200.092 29.2031H203.124L205.523 33.6152ZM222.794 42H220.157L215.024 33.5801V42H212.388V29.2031H215.024L220.166 37.6406V29.2031H222.794V42Z" fill="#FECE00"/>
<path d="M91.9014 64H90.6763V59.728H86.0171V64H84.7983V54.7578H86.0171V58.7314H90.6763V54.7578H91.9014V64ZM98.1221 64C98.0544 63.8646 97.9993 63.6234 97.957 63.2764C97.4111 63.8434 96.7594 64.127 96.002 64.127C95.3249 64.127 94.7684 63.9365 94.3325 63.5557C93.9009 63.1706 93.6851 62.6839 93.6851 62.0957C93.6851 61.3805 93.9559 60.8262 94.4976 60.4326C95.0435 60.0348 95.8094 59.8359 96.7954 59.8359H97.938V59.2964C97.938 58.8859 97.8153 58.5601 97.5698 58.3188C97.3244 58.0734 96.9626 57.9507 96.4844 57.9507C96.0654 57.9507 95.7142 58.0565 95.4307 58.2681C95.1471 58.4797 95.0054 58.7357 95.0054 59.0361H93.8247C93.8247 58.6934 93.9453 58.3633 94.1865 58.0459C94.432 57.7243 94.762 57.4704 95.1768 57.2842C95.5957 57.098 96.0549 57.0049 96.5542 57.0049C97.3455 57.0049 97.9655 57.2038 98.4141 57.6016C98.8626 57.9951 99.0954 58.5389 99.1123 59.2329V62.394C99.1123 63.0246 99.1927 63.526 99.3535 63.8984V64H98.1221ZM96.1733 63.105C96.5415 63.105 96.8906 63.0098 97.2207 62.8193C97.5508 62.6289 97.7899 62.3813 97.938 62.0767V60.6675H97.0176C95.5788 60.6675 94.8594 61.0885 94.8594 61.9307C94.8594 62.2988 94.9821 62.5866 95.2275 62.7939C95.473 63.0013 95.7882 63.105 96.1733 63.105ZM106.768 60.6421C106.768 61.6916 106.526 62.5358 106.044 63.1748C105.562 63.8096 104.914 64.127 104.102 64.127C103.234 64.127 102.563 63.8201 102.089 63.2065L102.032 64H100.953V54.25H102.127V57.8872C102.601 57.299 103.255 57.0049 104.089 57.0049C104.923 57.0049 105.576 57.3201 106.05 57.9507C106.528 58.5812 106.768 59.4445 106.768 60.5405V60.6421ZM105.593 60.5088C105.593 59.709 105.439 59.0911 105.13 58.6553C104.821 58.2194 104.377 58.0015 103.797 58.0015C103.022 58.0015 102.466 58.3612 102.127 59.0806V62.0513C102.487 62.7707 103.048 63.1304 103.81 63.1304C104.372 63.1304 104.81 62.9124 105.124 62.4766C105.437 62.0407 105.593 61.3848 105.593 60.5088ZM111.573 58.1855C111.395 58.1559 111.202 58.1411 110.995 58.1411C110.225 58.1411 109.702 58.4691 109.427 59.125V64H108.253V57.1318H109.396L109.415 57.9253C109.8 57.3117 110.346 57.0049 111.052 57.0049C111.281 57.0049 111.454 57.0345 111.573 57.0938V58.1855ZM113.934 64H112.753V57.1318H113.934V64ZM113.947 54.2563H115.369L113.667 56.1226H112.722L113.947 54.2563ZM120.11 64C120.043 63.8646 119.988 63.6234 119.945 63.2764C119.399 63.8434 118.748 64.127 117.99 64.127C117.313 64.127 116.757 63.9365 116.321 63.5557C115.889 63.1706 115.673 62.6839 115.673 62.0957C115.673 61.3805 115.944 60.8262 116.486 60.4326C117.032 60.0348 117.798 59.8359 118.784 59.8359H119.926V59.2964C119.926 58.8859 119.804 58.5601 119.558 58.3188C119.313 58.0734 118.951 57.9507 118.473 57.9507C118.054 57.9507 117.702 58.0565 117.419 58.2681C117.135 58.4797 116.994 58.7357 116.994 59.0361H115.813C115.813 58.6934 115.934 58.3633 116.175 58.0459C116.42 57.7243 116.75 57.4704 117.165 57.2842C117.584 57.098 118.043 57.0049 118.542 57.0049C119.334 57.0049 119.954 57.2038 120.402 57.6016C120.851 57.9951 121.084 58.5389 121.101 59.2329V62.394C121.101 63.0246 121.181 63.526 121.342 63.8984V64H120.11ZM118.162 63.105C118.53 63.105 118.879 63.0098 119.209 62.8193C119.539 62.6289 119.778 62.3813 119.926 62.0767V60.6675H119.006C117.567 60.6675 116.848 61.0885 116.848 61.9307C116.848 62.2988 116.97 62.5866 117.216 62.7939C117.461 63.0013 117.777 63.105 118.162 63.105ZM126.94 62.1782C126.94 61.8608 126.82 61.6154 126.579 61.4419C126.342 61.2642 125.925 61.1118 125.328 60.9849C124.736 60.8579 124.264 60.7056 123.913 60.5278C123.566 60.3501 123.307 60.1385 123.138 59.8931C122.973 59.6476 122.891 59.3556 122.891 59.0171C122.891 58.4543 123.128 57.9782 123.602 57.5889C124.08 57.1995 124.689 57.0049 125.43 57.0049C126.208 57.0049 126.839 57.2059 127.321 57.6079C127.808 58.0099 128.051 58.5241 128.051 59.1504H126.871C126.871 58.8288 126.733 58.5516 126.458 58.3188C126.187 58.0861 125.844 57.9697 125.43 57.9697C125.002 57.9697 124.668 58.0628 124.427 58.249C124.186 58.4352 124.065 58.6785 124.065 58.979C124.065 59.2625 124.177 59.4762 124.401 59.6201C124.626 59.764 125.03 59.9015 125.614 60.0327C126.202 60.1639 126.678 60.3205 127.042 60.5024C127.406 60.6844 127.675 60.9045 127.848 61.1626C128.026 61.4165 128.115 61.7275 128.115 62.0957C128.115 62.7093 127.869 63.2023 127.378 63.5747C126.888 63.9429 126.251 64.127 125.468 64.127C124.918 64.127 124.431 64.0296 124.008 63.835C123.585 63.6403 123.252 63.3695 123.011 63.0225C122.774 62.6712 122.656 62.2925 122.656 61.8862H123.83C123.851 62.2798 124.008 62.5929 124.3 62.8257C124.596 63.0542 124.985 63.1685 125.468 63.1685C125.912 63.1685 126.268 63.0796 126.534 62.9019C126.805 62.7199 126.94 62.4787 126.94 62.1782ZM132.59 60.5088C132.59 59.4382 132.837 58.5876 133.333 57.957C133.828 57.3223 134.484 57.0049 135.3 57.0049C136.138 57.0049 136.792 57.3011 137.262 57.8936L137.319 57.1318H138.392V63.835C138.392 64.7236 138.127 65.424 137.598 65.936C137.073 66.4481 136.367 66.7041 135.478 66.7041C134.983 66.7041 134.498 66.5983 134.024 66.3867C133.55 66.1751 133.189 65.8853 132.939 65.5171L133.548 64.8125C134.052 65.4346 134.668 65.7456 135.396 65.7456C135.967 65.7456 136.411 65.5848 136.729 65.2632C137.05 64.9416 137.211 64.4888 137.211 63.9048V63.3145C136.741 63.8561 136.1 64.127 135.288 64.127C134.484 64.127 133.832 63.8032 133.333 63.1558C132.837 62.5083 132.59 61.626 132.59 60.5088ZM133.771 60.6421C133.771 61.4165 133.929 62.0259 134.247 62.4702C134.564 62.9103 135.008 63.1304 135.58 63.1304C136.32 63.1304 136.864 62.7939 137.211 62.1211V58.9854C136.851 58.3294 136.312 58.0015 135.592 58.0015C135.021 58.0015 134.575 58.2236 134.253 58.668C133.931 59.1123 133.771 59.7703 133.771 60.6421ZM144.409 64C144.341 63.8646 144.286 63.6234 144.244 63.2764C143.698 63.8434 143.047 64.127 142.289 64.127C141.612 64.127 141.056 63.9365 140.62 63.5557C140.188 63.1706 139.972 62.6839 139.972 62.0957C139.972 61.3805 140.243 60.8262 140.785 60.4326C141.331 60.0348 142.097 59.8359 143.083 59.8359H144.225V59.2964C144.225 58.8859 144.102 58.5601 143.857 58.3188C143.611 58.0734 143.25 57.9507 142.771 57.9507C142.353 57.9507 142.001 58.0565 141.718 58.2681C141.434 58.4797 141.292 58.7357 141.292 59.0361H140.112C140.112 58.6934 140.232 58.3633 140.474 58.0459C140.719 57.7243 141.049 57.4704 141.464 57.2842C141.883 57.098 142.342 57.0049 142.841 57.0049C143.633 57.0049 144.253 57.2038 144.701 57.6016C145.15 57.9951 145.382 58.5389 145.399 59.2329V62.394C145.399 63.0246 145.48 63.526 145.641 63.8984V64H144.409ZM142.46 63.105C142.829 63.105 143.178 63.0098 143.508 62.8193C143.838 62.6289 144.077 62.3813 144.225 62.0767V60.6675H143.305C141.866 60.6675 141.146 61.0885 141.146 61.9307C141.146 62.2988 141.269 62.5866 141.515 62.7939C141.76 63.0013 142.075 63.105 142.46 63.105ZM148.351 57.1318L148.389 57.9951C148.914 57.335 149.599 57.0049 150.446 57.0049C151.897 57.0049 152.629 57.8237 152.642 59.4614V64H151.468V59.4551C151.464 58.96 151.349 58.5939 151.125 58.3569C150.905 58.12 150.56 58.0015 150.09 58.0015C149.709 58.0015 149.375 58.103 149.087 58.3062C148.8 58.5093 148.575 58.7759 148.415 59.106V64H147.24V57.1318H148.351ZM158.653 64C158.586 63.8646 158.531 63.6234 158.488 63.2764C157.942 63.8434 157.291 64.127 156.533 64.127C155.856 64.127 155.3 63.9365 154.864 63.5557C154.432 63.1706 154.216 62.6839 154.216 62.0957C154.216 61.3805 154.487 60.8262 155.029 60.4326C155.575 60.0348 156.341 59.8359 157.327 59.8359H158.469V59.2964C158.469 58.8859 158.347 58.5601 158.101 58.3188C157.856 58.0734 157.494 57.9507 157.016 57.9507C156.597 57.9507 156.245 58.0565 155.962 58.2681C155.678 58.4797 155.537 58.7357 155.537 59.0361H154.356C154.356 58.6934 154.477 58.3633 154.718 58.0459C154.963 57.7243 155.293 57.4704 155.708 57.2842C156.127 57.098 156.586 57.0049 157.085 57.0049C157.877 57.0049 158.497 57.2038 158.945 57.6016C159.394 57.9951 159.627 58.5389 159.644 59.2329V62.394C159.644 63.0246 159.724 63.526 159.885 63.8984V64H158.653ZM156.705 63.105C157.073 63.105 157.422 63.0098 157.752 62.8193C158.082 62.6289 158.321 62.3813 158.469 62.0767V60.6675H157.549C156.11 60.6675 155.391 61.0885 155.391 61.9307C155.391 62.2988 155.513 62.5866 155.759 62.7939C156.004 63.0013 156.319 63.105 156.705 63.105ZM161.199 60.5088C161.199 59.4551 161.448 58.6087 161.948 57.9697C162.447 57.3265 163.101 57.0049 163.909 57.0049C164.713 57.0049 165.35 57.2799 165.82 57.8301V54.25H166.994V64H165.915L165.858 63.2637C165.388 63.8392 164.734 64.127 163.896 64.127C163.101 64.127 162.451 63.8011 161.948 63.1494C161.448 62.4977 161.199 61.6471 161.199 60.5977V60.5088ZM162.373 60.6421C162.373 61.4207 162.534 62.0301 162.855 62.4702C163.177 62.9103 163.621 63.1304 164.188 63.1304C164.933 63.1304 165.477 62.7961 165.82 62.1274V58.9727C165.469 58.3252 164.929 58.0015 164.201 58.0015C163.626 58.0015 163.177 58.2236 162.855 58.668C162.534 59.1123 162.373 59.7703 162.373 60.6421ZM168.511 60.5024C168.511 59.8296 168.642 59.2244 168.905 58.687C169.171 58.1496 169.54 57.7349 170.009 57.4429C170.483 57.1509 171.023 57.0049 171.628 57.0049C172.563 57.0049 173.319 57.3286 173.894 57.9761C174.474 58.6235 174.764 59.4847 174.764 60.5596V60.6421C174.764 61.3107 174.635 61.9116 174.376 62.4448C174.123 62.9738 173.757 63.3864 173.278 63.6826C172.804 63.9788 172.258 64.127 171.641 64.127C170.71 64.127 169.954 63.8032 169.375 63.1558C168.799 62.5083 168.511 61.6514 168.511 60.585V60.5024ZM169.692 60.6421C169.692 61.4038 169.868 62.0153 170.219 62.4766C170.574 62.9378 171.048 63.1685 171.641 63.1685C172.237 63.1685 172.711 62.9357 173.062 62.4702C173.414 62.0005 173.589 61.3446 173.589 60.5024C173.589 59.7492 173.41 59.1398 173.05 58.6743C172.694 58.2046 172.22 57.9697 171.628 57.9697C171.048 57.9697 170.581 58.2004 170.225 58.6616C169.87 59.1229 169.692 59.783 169.692 60.6421ZM183.46 62.1782C183.46 61.8608 183.339 61.6154 183.098 61.4419C182.861 61.2642 182.444 61.1118 181.848 60.9849C181.255 60.8579 180.783 60.7056 180.432 60.5278C180.085 60.3501 179.827 60.1385 179.658 59.8931C179.493 59.6476 179.41 59.3556 179.41 59.0171C179.41 58.4543 179.647 57.9782 180.121 57.5889C180.599 57.1995 181.209 57.0049 181.949 57.0049C182.728 57.0049 183.358 57.2059 183.841 57.6079C184.327 58.0099 184.571 58.5241 184.571 59.1504H183.39C183.39 58.8288 183.253 58.5516 182.978 58.3188C182.707 58.0861 182.364 57.9697 181.949 57.9697C181.522 57.9697 181.188 58.0628 180.946 58.249C180.705 58.4352 180.584 58.6785 180.584 58.979C180.584 59.2625 180.697 59.4762 180.921 59.6201C181.145 59.764 181.549 59.9015 182.133 60.0327C182.722 60.1639 183.198 60.3205 183.562 60.5024C183.925 60.6844 184.194 60.9045 184.368 61.1626C184.545 61.4165 184.634 61.7275 184.634 62.0957C184.634 62.7093 184.389 63.2023 183.898 63.5747C183.407 63.9429 182.77 64.127 181.987 64.127C181.437 64.127 180.951 64.0296 180.527 63.835C180.104 63.6403 179.772 63.3695 179.531 63.0225C179.294 62.6712 179.175 62.2925 179.175 61.8862H180.35C180.371 62.2798 180.527 62.5929 180.819 62.8257C181.116 63.0542 181.505 63.1685 181.987 63.1685C182.432 63.1685 182.787 63.0796 183.054 62.9019C183.325 62.7199 183.46 62.4787 183.46 62.1782ZM187.44 64H186.266V57.1318H187.44V64ZM186.17 55.3101C186.17 55.1196 186.228 54.9588 186.342 54.8276C186.46 54.6965 186.634 54.6309 186.862 54.6309C187.091 54.6309 187.264 54.6965 187.383 54.8276C187.501 54.9588 187.561 55.1196 187.561 55.3101C187.561 55.5005 187.501 55.6592 187.383 55.7861C187.264 55.9131 187.091 55.9766 186.862 55.9766C186.634 55.9766 186.46 55.9131 186.342 55.7861C186.228 55.6592 186.17 55.5005 186.17 55.3101ZM193.724 57.9634C194.245 57.3244 194.922 57.0049 195.755 57.0049C197.207 57.0049 197.939 57.8237 197.952 59.4614V64H196.777V59.4551C196.773 58.96 196.659 58.5939 196.435 58.3569C196.215 58.12 195.87 58.0015 195.4 58.0015C195.019 58.0015 194.685 58.103 194.397 58.3062C194.109 58.5093 193.885 58.7759 193.724 59.106V64H192.55V54.25H193.724V57.9634ZM203.95 63.3208C203.493 63.8582 202.822 64.127 201.938 64.127C201.206 64.127 200.647 63.9154 200.262 63.4922C199.881 63.0648 199.689 62.4342 199.685 61.6006V57.1318H200.859V61.5688C200.859 62.6099 201.282 63.1304 202.128 63.1304C203.026 63.1304 203.622 62.7961 203.918 62.1274V57.1318H205.093V64H203.976L203.95 63.3208ZM212.697 60.6421C212.697 61.6916 212.456 62.5358 211.974 63.1748C211.491 63.8096 210.844 64.127 210.031 64.127C209.164 64.127 208.493 63.8201 208.019 63.2065L207.962 64H206.883V54.25H208.057V57.8872C208.531 57.299 209.185 57.0049 210.019 57.0049C210.852 57.0049 211.506 57.3201 211.98 57.9507C212.458 58.5812 212.697 59.4445 212.697 60.5405V60.6421ZM211.523 60.5088C211.523 59.709 211.368 59.0911 211.06 58.6553C210.751 58.2194 210.306 58.0015 209.727 58.0015C208.952 58.0015 208.396 58.3612 208.057 59.0806V62.0513C208.417 62.7707 208.978 63.1304 209.739 63.1304C210.302 63.1304 210.74 62.9124 211.053 62.4766C211.366 62.0407 211.523 61.3848 211.523 60.5088ZM215.458 64H214.284V57.1318H215.458V64ZM214.189 55.3101C214.189 55.1196 214.246 54.9588 214.36 54.8276C214.479 54.6965 214.652 54.6309 214.881 54.6309C215.109 54.6309 215.283 54.6965 215.401 54.8276C215.52 54.9588 215.579 55.1196 215.579 55.3101C215.579 55.5005 215.52 55.6592 215.401 55.7861C215.283 55.9131 215.109 55.9766 214.881 55.9766C214.652 55.9766 214.479 55.9131 214.36 55.7861C214.246 55.6592 214.189 55.5005 214.189 55.3101ZM220.194 64.127C219.263 64.127 218.505 63.8223 217.921 63.2129C217.337 62.5993 217.045 61.7804 217.045 60.7563V60.5405C217.045 59.8592 217.174 59.252 217.433 58.7188C217.695 58.1813 218.059 57.7624 218.524 57.4619C218.994 57.1572 219.502 57.0049 220.048 57.0049C220.941 57.0049 221.635 57.299 222.13 57.8872C222.625 58.4754 222.873 59.3175 222.873 60.4136V60.9023H218.22C218.237 61.5794 218.433 62.1274 218.81 62.5464C219.191 62.9611 219.673 63.1685 220.257 63.1685C220.672 63.1685 221.023 63.0838 221.311 62.9146C221.599 62.7453 221.851 62.521 222.066 62.2417L222.784 62.8003C222.208 63.6847 221.345 64.127 220.194 64.127ZM220.048 57.9697C219.574 57.9697 219.176 58.1432 218.854 58.4902C218.533 58.833 218.334 59.3154 218.258 59.9375H221.698V59.8486C221.664 59.252 221.504 58.7907 221.216 58.4648C220.928 58.1348 220.539 57.9697 220.048 57.9697ZM227.557 58.1855C227.379 58.1559 227.187 58.1411 226.979 58.1411C226.209 58.1411 225.687 58.4691 225.412 59.125V64H224.237V57.1318H225.38L225.399 57.9253C225.784 57.3117 226.33 57.0049 227.037 57.0049C227.265 57.0049 227.439 57.0345 227.557 57.0938V58.1855ZM232.629 64C232.561 63.8646 232.506 63.6234 232.464 63.2764C231.918 63.8434 231.266 64.127 230.509 64.127C229.832 64.127 229.275 63.9365 228.839 63.5557C228.408 63.1706 228.192 62.6839 228.192 62.0957C228.192 61.3805 228.463 60.8262 229.004 60.4326C229.55 60.0348 230.316 59.8359 231.302 59.8359H232.445V59.2964C232.445 58.8859 232.322 58.5601 232.077 58.3188C231.831 58.0734 231.469 57.9507 230.991 57.9507C230.572 57.9507 230.221 58.0565 229.938 58.2681C229.654 58.4797 229.512 58.7357 229.512 59.0361H228.332C228.332 58.6934 228.452 58.3633 228.693 58.0459C228.939 57.7243 229.269 57.4704 229.684 57.2842C230.103 57.098 230.562 57.0049 231.061 57.0049C231.852 57.0049 232.472 57.2038 232.921 57.6016C233.369 57.9951 233.602 58.5389 233.619 59.2329V62.394C233.619 63.0246 233.7 63.526 233.86 63.8984V64H232.629ZM230.68 63.105C231.048 63.105 231.397 63.0098 231.728 62.8193C232.058 62.6289 232.297 62.3813 232.445 62.0767V60.6675H231.524C230.086 60.6675 229.366 61.0885 229.366 61.9307C229.366 62.2988 229.489 62.5866 229.734 62.7939C229.98 63.0013 230.295 63.105 230.68 63.105ZM239.459 62.1782C239.459 61.8608 239.338 61.6154 239.097 61.4419C238.86 61.2642 238.443 61.1118 237.847 60.9849C237.254 60.8579 236.782 60.7056 236.431 60.5278C236.084 60.3501 235.826 60.1385 235.657 59.8931C235.492 59.6476 235.409 59.3556 235.409 59.0171C235.409 58.4543 235.646 57.9782 236.12 57.5889C236.598 57.1995 237.208 57.0049 237.948 57.0049C238.727 57.0049 239.357 57.2059 239.84 57.6079C240.326 58.0099 240.57 58.5241 240.57 59.1504H239.389C239.389 58.8288 239.252 58.5516 238.977 58.3188C238.706 58.0861 238.363 57.9697 237.948 57.9697C237.521 57.9697 237.187 58.0628 236.945 58.249C236.704 58.4352 236.583 58.6785 236.583 58.979C236.583 59.2625 236.696 59.4762 236.92 59.6201C237.144 59.764 237.548 59.9015 238.132 60.0327C238.721 60.1639 239.197 60.3205 239.561 60.5024C239.924 60.6844 240.193 60.9045 240.367 61.1626C240.544 61.4165 240.633 61.7275 240.633 62.0957C240.633 62.7093 240.388 63.2023 239.897 63.5747C239.406 63.9429 238.769 64.127 237.986 64.127C237.436 64.127 236.95 64.0296 236.526 63.835C236.103 63.6403 235.771 63.3695 235.53 63.0225C235.293 62.6712 235.174 62.2925 235.174 61.8862H236.349C236.37 62.2798 236.526 62.5929 236.818 62.8257C237.115 63.0542 237.504 63.1685 237.986 63.1685C238.431 63.1685 238.786 63.0796 239.053 62.9019C239.324 62.7199 239.459 62.4787 239.459 62.1782ZM99.4932 79H98.3188V72.1318H99.4932V79ZM98.2236 70.3101C98.2236 70.1196 98.2808 69.9588 98.395 69.8276C98.5135 69.6965 98.687 69.6309 98.9155 69.6309C99.144 69.6309 99.3175 69.6965 99.436 69.8276C99.5545 69.9588 99.6138 70.1196 99.6138 70.3101C99.6138 70.5005 99.5545 70.6592 99.436 70.7861C99.3175 70.9131 99.144 70.9766 98.9155 70.9766C98.687 70.9766 98.5135 70.9131 98.395 70.7861C98.2808 70.6592 98.2236 70.5005 98.2236 70.3101ZM102.489 72.1318L102.527 72.9951C103.052 72.335 103.738 72.0049 104.584 72.0049C106.035 72.0049 106.768 72.8237 106.78 74.4614V79H105.606V74.4551C105.602 73.96 105.487 73.5939 105.263 73.3569C105.043 73.12 104.698 73.0015 104.229 73.0015C103.848 73.0015 103.513 73.103 103.226 73.3062C102.938 73.5093 102.714 73.7759 102.553 74.106V79H101.378V72.1318H102.489ZM110.817 77.4067L112.519 72.1318H113.718L111.255 79H110.36L107.872 72.1318H109.072L110.817 77.4067ZM117.609 79.127C116.678 79.127 115.921 78.8223 115.337 78.2129C114.753 77.5993 114.461 76.7804 114.461 75.7563V75.5405C114.461 74.8592 114.59 74.252 114.848 73.7188C115.111 73.1813 115.474 72.7624 115.94 72.4619C116.41 72.1572 116.917 72.0049 117.463 72.0049C118.356 72.0049 119.05 72.299 119.545 72.8872C120.041 73.4754 120.288 74.3175 120.288 75.4136V75.9023H115.635C115.652 76.5794 115.849 77.1274 116.226 77.5464C116.606 77.9611 117.089 78.1685 117.673 78.1685C118.088 78.1685 118.439 78.0838 118.727 77.9146C119.014 77.7453 119.266 77.521 119.482 77.2417L120.199 77.8003C119.624 78.6847 118.76 79.127 117.609 79.127ZM117.463 72.9697C116.989 72.9697 116.592 73.1432 116.27 73.4902C115.948 73.833 115.75 74.3154 115.673 74.9375H119.114V74.8486C119.08 74.252 118.919 73.7907 118.631 73.4648C118.344 73.1348 117.954 72.9697 117.463 72.9697ZM124.973 73.1855C124.795 73.1559 124.602 73.1411 124.395 73.1411C123.625 73.1411 123.102 73.4691 122.827 74.125V79H121.653V72.1318H122.795L122.814 72.9253C123.2 72.3117 123.745 72.0049 124.452 72.0049C124.681 72.0049 124.854 72.0345 124.973 72.0938V73.1855ZM127.969 70.4688V72.1318H129.251V73.0396H127.969V77.2988C127.969 77.5739 128.026 77.7812 128.14 77.9209C128.254 78.0563 128.449 78.124 128.724 78.124C128.86 78.124 129.046 78.0986 129.283 78.0479V79C128.974 79.0846 128.673 79.127 128.381 79.127C127.857 79.127 127.461 78.9683 127.194 78.6509C126.928 78.3335 126.794 77.8828 126.794 77.2988V73.0396H125.544V72.1318H126.794V70.4688H127.969ZM131.904 79H130.73V72.1318H131.904V79ZM130.635 70.3101C130.635 70.1196 130.692 69.9588 130.806 69.8276C130.925 69.6965 131.098 69.6309 131.327 69.6309C131.555 69.6309 131.729 69.6965 131.847 69.8276C131.966 69.9588 132.025 70.1196 132.025 70.3101C132.025 70.5005 131.966 70.6592 131.847 70.7861C131.729 70.9131 131.555 70.9766 131.327 70.9766C131.098 70.9766 130.925 70.9131 130.806 70.7861C130.692 70.6592 130.635 70.5005 130.635 70.3101ZM133.504 75.5088C133.504 74.4551 133.754 73.6087 134.253 72.9697C134.752 72.3265 135.406 72.0049 136.214 72.0049C137.018 72.0049 137.655 72.2799 138.125 72.8301V69.25H139.299V79H138.22L138.163 78.2637C137.693 78.8392 137.04 79.127 136.202 79.127C135.406 79.127 134.757 78.8011 134.253 78.1494C133.754 77.4977 133.504 76.6471 133.504 75.5977V75.5088ZM134.678 75.6421C134.678 76.4207 134.839 77.0301 135.161 77.4702C135.482 77.9103 135.927 78.1304 136.494 78.1304C137.238 78.1304 137.782 77.7961 138.125 77.1274V73.9727C137.774 73.3252 137.234 73.0015 136.506 73.0015C135.931 73.0015 135.482 73.2236 135.161 73.668C134.839 74.1123 134.678 74.7703 134.678 75.6421ZM140.816 75.5024C140.816 74.8296 140.948 74.2244 141.21 73.687C141.477 73.1496 141.845 72.7349 142.314 72.4429C142.788 72.1509 143.328 72.0049 143.933 72.0049C144.868 72.0049 145.624 72.3286 146.199 72.9761C146.779 73.6235 147.069 74.4847 147.069 75.5596V75.6421C147.069 76.3107 146.94 76.9116 146.682 77.4448C146.428 77.9738 146.062 78.3864 145.583 78.6826C145.11 78.9788 144.564 79.127 143.946 79.127C143.015 79.127 142.259 78.8032 141.68 78.1558C141.104 77.5083 140.816 76.6514 140.816 75.585V75.5024ZM141.997 75.6421C141.997 76.4038 142.173 77.0153 142.524 77.4766C142.879 77.9378 143.353 78.1685 143.946 78.1685C144.542 78.1685 145.016 77.9357 145.368 77.4702C145.719 77.0005 145.895 76.3446 145.895 75.5024C145.895 74.7492 145.715 74.1398 145.355 73.6743C145 73.2046 144.526 72.9697 143.933 72.9697C143.353 72.9697 142.886 73.2004 142.53 73.6616C142.175 74.1229 141.997 74.783 141.997 75.6421ZM156.311 76.6196C156.311 76.2303 156.174 75.9023 155.898 75.6357C155.628 75.3691 155.168 75.1279 154.521 74.9121C153.62 74.637 152.962 74.2795 152.547 73.8394C152.136 73.395 151.931 72.8322 151.931 72.1509C151.931 71.4569 152.132 70.8877 152.534 70.4434C152.94 69.999 153.497 69.7345 154.204 69.6499V68.2598H155.149V69.6562C155.86 69.7536 156.413 70.0519 156.806 70.5513C157.204 71.0506 157.403 71.734 157.403 72.6016H156.235C156.235 72.0049 156.093 71.5309 155.81 71.1797C155.526 70.8285 155.143 70.6528 154.661 70.6528C154.157 70.6528 153.772 70.784 153.505 71.0464C153.239 71.3045 153.105 71.6663 153.105 72.1318C153.105 72.5635 153.245 72.9084 153.524 73.1665C153.808 73.4204 154.271 73.6532 154.915 73.8647C155.562 74.0721 156.066 74.3027 156.425 74.5566C156.789 74.8063 157.056 75.0983 157.225 75.4326C157.399 75.7669 157.485 76.1584 157.485 76.6069C157.485 77.3221 157.27 77.8976 156.838 78.3335C156.41 78.7694 155.81 79.0275 155.035 79.1079V80.3203H154.096V79.1079C153.309 79.036 152.691 78.7567 152.242 78.27C151.798 77.7791 151.576 77.1147 151.576 76.2769H152.75C152.75 76.8651 152.904 77.3179 153.213 77.6353C153.522 77.9526 153.96 78.1113 154.527 78.1113C155.082 78.1113 155.518 77.978 155.835 77.7114C156.152 77.4448 156.311 77.0809 156.311 76.6196ZM162.278 79H161.097V71.1733L158.729 72.043V70.9766L162.094 69.7134H162.278V79ZM170.517 75.0581C170.517 76.4334 170.282 77.4554 169.812 78.124C169.343 78.7926 168.609 79.127 167.61 79.127C166.624 79.127 165.894 78.8011 165.42 78.1494C164.946 77.4935 164.701 76.516 164.684 75.2168V73.6489C164.684 72.2905 164.918 71.2812 165.388 70.6211C165.858 69.9609 166.594 69.6309 167.597 69.6309C168.592 69.6309 169.324 69.9504 169.793 70.5894C170.263 71.2241 170.504 72.2059 170.517 73.5347V75.0581ZM169.343 73.4521C169.343 72.4577 169.203 71.734 168.924 71.2812C168.645 70.8242 168.202 70.5957 167.597 70.5957C166.996 70.5957 166.558 70.8221 166.283 71.2749C166.008 71.7277 165.866 72.4238 165.858 73.3633V75.2422C165.858 76.2409 166.002 76.9793 166.29 77.4575C166.582 77.9315 167.022 78.1685 167.61 78.1685C168.19 78.1685 168.619 77.9442 168.898 77.4956C169.182 77.047 169.33 76.3403 169.343 75.3755V73.4521ZM178.071 75.0581C178.071 76.4334 177.836 77.4554 177.366 78.124C176.896 78.7926 176.162 79.127 175.164 79.127C174.178 79.127 173.448 78.8011 172.974 78.1494C172.5 77.4935 172.254 76.516 172.237 75.2168V73.6489C172.237 72.2905 172.472 71.2812 172.942 70.6211C173.412 69.9609 174.148 69.6309 175.151 69.6309C176.145 69.6309 176.877 69.9504 177.347 70.5894C177.817 71.2241 178.058 72.2059 178.071 73.5347V75.0581ZM176.896 73.4521C176.896 72.4577 176.757 71.734 176.478 71.2812C176.198 70.8242 175.756 70.5957 175.151 70.5957C174.55 70.5957 174.112 70.8221 173.837 71.2749C173.562 71.7277 173.42 72.4238 173.412 73.3633V75.2422C173.412 76.2409 173.556 76.9793 173.843 77.4575C174.135 77.9315 174.575 78.1685 175.164 78.1685C175.743 78.1685 176.173 77.9442 176.452 77.4956C176.736 77.047 176.884 76.3403 176.896 75.3755V73.4521ZM179.848 78.3843C179.848 78.1812 179.907 78.0119 180.026 77.8765C180.149 77.741 180.331 77.6733 180.572 77.6733C180.813 77.6733 180.995 77.741 181.118 77.8765C181.245 78.0119 181.308 78.1812 181.308 78.3843C181.308 78.5789 181.245 78.7419 181.118 78.873C180.995 79.0042 180.813 79.0698 180.572 79.0698C180.331 79.0698 180.149 79.0042 180.026 78.873C179.907 78.7419 179.848 78.5789 179.848 78.3843ZM189.052 75.0581C189.052 76.4334 188.817 77.4554 188.348 78.124C187.878 78.7926 187.144 79.127 186.145 79.127C185.159 79.127 184.429 78.8011 183.955 78.1494C183.481 77.4935 183.236 76.516 183.219 75.2168V73.6489C183.219 72.2905 183.454 71.2812 183.923 70.6211C184.393 69.9609 185.129 69.6309 186.132 69.6309C187.127 69.6309 187.859 69.9504 188.329 70.5894C188.798 71.2241 189.04 72.2059 189.052 73.5347V75.0581ZM187.878 73.4521C187.878 72.4577 187.738 71.734 187.459 71.2812C187.18 70.8242 186.737 70.5957 186.132 70.5957C185.531 70.5957 185.093 70.8221 184.818 71.2749C184.543 71.7277 184.402 72.4238 184.393 73.3633V75.2422C184.393 76.2409 184.537 76.9793 184.825 77.4575C185.117 77.9315 185.557 78.1685 186.145 78.1685C186.725 78.1685 187.154 77.9442 187.434 77.4956C187.717 77.047 187.865 76.3403 187.878 75.3755V73.4521ZM196.606 75.0581C196.606 76.4334 196.371 77.4554 195.901 78.124C195.432 78.7926 194.697 79.127 193.699 79.127C192.713 79.127 191.983 78.8011 191.509 78.1494C191.035 77.4935 190.789 76.516 190.772 75.2168V73.6489C190.772 72.2905 191.007 71.2812 191.477 70.6211C191.947 69.9609 192.683 69.6309 193.686 69.6309C194.681 69.6309 195.413 69.9504 195.882 70.5894C196.352 71.2241 196.593 72.2059 196.606 73.5347V75.0581ZM195.432 73.4521C195.432 72.4577 195.292 71.734 195.013 71.2812C194.733 70.8242 194.291 70.5957 193.686 70.5957C193.085 70.5957 192.647 70.8221 192.372 71.2749C192.097 71.7277 191.955 72.4238 191.947 73.3633V75.2422C191.947 76.2409 192.091 76.9793 192.378 77.4575C192.67 77.9315 193.111 78.1685 193.699 78.1685C194.278 78.1685 194.708 77.9442 194.987 77.4956C195.271 77.047 195.419 76.3403 195.432 75.3755V73.4521ZM205.823 79C205.755 78.8646 205.7 78.6234 205.658 78.2764C205.112 78.8434 204.46 79.127 203.703 79.127C203.026 79.127 202.469 78.9365 202.033 78.5557C201.602 78.1706 201.386 77.6839 201.386 77.0957C201.386 76.3805 201.657 75.8262 202.198 75.4326C202.744 75.0348 203.51 74.8359 204.496 74.8359H205.639V74.2964C205.639 73.8859 205.516 73.5601 205.271 73.3188C205.025 73.0734 204.663 72.9507 204.185 72.9507C203.766 72.9507 203.415 73.0565 203.131 73.2681C202.848 73.4797 202.706 73.7357 202.706 74.0361H201.525C201.525 73.6934 201.646 73.3633 201.887 73.0459C202.133 72.7243 202.463 72.4704 202.877 72.2842C203.296 72.098 203.756 72.0049 204.255 72.0049C205.046 72.0049 205.666 72.2038 206.115 72.6016C206.563 72.9951 206.796 73.5389 206.813 74.2329V77.394C206.813 78.0246 206.893 78.526 207.054 78.8984V79H205.823ZM203.874 78.105C204.242 78.105 204.591 78.0098 204.921 77.8193C205.251 77.6289 205.491 77.3813 205.639 77.0767V75.6675H204.718C203.279 75.6675 202.56 76.0885 202.56 76.9307C202.56 77.2988 202.683 77.5866 202.928 77.7939C203.174 78.0013 203.489 78.105 203.874 78.105ZM210.799 77.2798L212.399 72.1318H213.656L210.895 80.0601C210.467 81.2026 209.788 81.7739 208.857 81.7739L208.635 81.7549L208.197 81.6724V80.7202L208.514 80.7456C208.912 80.7456 209.221 80.6652 209.441 80.5044C209.665 80.3436 209.849 80.0495 209.993 79.6221L210.253 78.9238L207.803 72.1318H209.085L210.799 77.2798ZM217.471 79.127C216.54 79.127 215.782 78.8223 215.198 78.2129C214.614 77.5993 214.322 76.7804 214.322 75.7563V75.5405C214.322 74.8592 214.451 74.252 214.709 73.7188C214.972 73.1813 215.336 72.7624 215.801 72.4619C216.271 72.1572 216.779 72.0049 217.325 72.0049C218.218 72.0049 218.912 72.299 219.407 72.8872C219.902 73.4754 220.149 74.3175 220.149 75.4136V75.9023H215.497C215.514 76.5794 215.71 77.1274 216.087 77.5464C216.468 77.9611 216.95 78.1685 217.534 78.1685C217.949 78.1685 218.3 78.0838 218.588 77.9146C218.876 77.7453 219.127 77.521 219.343 77.2417L220.061 77.8003C219.485 78.6847 218.622 79.127 217.471 79.127ZM217.325 72.9697C216.851 72.9697 216.453 73.1432 216.131 73.4902C215.81 73.833 215.611 74.3154 215.535 74.9375H218.975V74.8486C218.941 74.252 218.78 73.7907 218.493 73.4648C218.205 73.1348 217.816 72.9697 217.325 72.9697ZM224.834 73.1855C224.656 73.1559 224.464 73.1411 224.256 73.1411C223.486 73.1411 222.964 73.4691 222.688 74.125V79H221.514V72.1318H222.657L222.676 72.9253C223.061 72.3117 223.607 72.0049 224.313 72.0049C224.542 72.0049 224.715 72.0345 224.834 72.0938V73.1855ZM225.158 78.3843C225.158 78.1812 225.217 78.0119 225.335 77.8765C225.458 77.741 225.64 77.6733 225.881 77.6733C226.123 77.6733 226.305 77.741 226.427 77.8765C226.554 78.0119 226.618 78.1812 226.618 78.3843C226.618 78.5789 226.554 78.7419 226.427 78.873C226.305 79.0042 226.123 79.0698 225.881 79.0698C225.64 79.0698 225.458 79.0042 225.335 78.873C225.217 78.7419 225.158 78.5789 225.158 78.3843Z" fill="#323232"/>
<g filter="url(#filter1_d)">
<path d="M57.829 115.131L71.0868 83.9998L79.5869 92.5L57.829 115.131Z" fill="white"/>
</g>
<defs>
<filter id="filter0_bdd" x="15.37" y="-44.63" width="294.26" height="193.26" filterUnits="userSpaceOnUse" color-interpolation-filters="sRGB">
<feFlood flood-opacity="0" result="BackgroundImageFix"/>
<feGaussianBlur in="BackgroundImage" stdDeviation="27.815"/>
<feComposite in2="SourceAlpha" operator="in" result="effect1_backgroundBlur"/>
<feColorMatrix in="SourceAlpha" type="matrix" values="0 0 0 0 0 0 0 0 0 0 0 0 0 0 0 0 0 0 127 0"/>
<feOffset dy="2.55814"/>
<feGaussianBlur stdDeviation="6.39535"/>
<feColorMatrix type="matrix" values="0 0 0 0 0 0 0 0 0 0 0 0 0 0 0 0 0 0 0.3 0"/>
<feBlend mode="normal" in2="effect1_backgroundBlur" result="effect2_dropShadow"/>
<feColorMatrix in="SourceAlpha" type="matrix" values="0 0 0 0 0 0 0 0 0 0 0 0 0 0 0 0 0 0 127 0"/>
<feOffset/>
<feGaussianBlur stdDeviation="0.639535"/>
<feColorMatrix type="matrix" values="0 0 0 0 0 0 0 0 0 0 0 0 0 0 0 0 0 0 0.1 0"/>
<feBlend mode="normal" in2="effect2_dropShadow" result="effect3_dropShadow"/>
<feBlend mode="normal" in="SourceGraphic" in2="effect3_dropShadow" result="shape"/>
</filter>
<filter id="filter1_d" x="0.369999" y="28.3698" width="140.022" height="145.109" filterUnits="userSpaceOnUse" color-interpolation-filters="sRGB">
<feFlood flood-opacity="0" result="BackgroundImageFix"/>
<feColorMatrix in="SourceAlpha" type="matrix" values="0 0 0 0 0 0 0 0 0 0 0 0 0 0 0 0 0 0 127 0"/>
<feOffset dx="4"/>
<feGaussianBlur stdDeviation="27.815"/>
<feColorMatrix type="matrix" values="0 0 0 0 0 0 0 0 0 0 0 0 0 0 0 0 0 0 0.25 0"/>
<feBlend mode="normal" in2="BackgroundImageFix" result="effect1_dropShadow"/>
<feBlend mode="normal" in="SourceGraphic" in2="effect1_dropShadow" result="shape"/>
</filter>
</defs>
</svg>
