<svg width="74" height="71" viewBox="0 0 74 71" fill="none" xmlns="http://www.w3.org/2000/svg">
<path d="M47.7482 0H29.9448C28.4556 0 27.2441 1.06479 27.2441 2.37375V20.5234C27.0856 20.7128 26.8218 21.0191 26.5636 21.3189C25.6075 22.4291 24.1626 24.1069 23.3009 25.2991C21.6018 27.6539 21.569 30.0068 23.1914 33.1669C23.2027 33.189 23.2151 33.2106 23.2285 33.2318C23.2285 33.2318 25.26 36.4609 25.3471 36.6023C25.86 37.4352 26.7184 38.8291 26.664 39.9248C26.6634 39.9375 26.6631 39.9502 26.6631 39.9631V42.5616C26.6631 43.9061 27.9077 45 29.4375 45H38.4738C40.0036 45 41.2482 43.9061 41.2482 42.5616L41.2397 40.2848C41.2402 39.4084 41.391 38.9467 41.5817 38.3625C41.712 37.9636 41.8595 37.5114 41.9654 36.8987C41.9681 36.8829 41.9704 36.867 41.9721 36.851C42.12 35.5016 41.721 34.1984 41.2986 32.8188C41.0589 32.0359 40.8032 31.2004 40.6201 30.2762H47.7483C49.2375 30.2762 50.449 29.2114 50.449 27.9025V19.0856C50.449 18.6003 50.0012 18.2067 49.449 18.2067C48.8968 18.2067 48.449 18.6003 48.449 19.0856V27.9024C48.449 28.242 48.1346 28.5183 47.7483 28.5183H45.3893V1.75781H47.7482C48.1345 1.75781 48.4489 2.03414 48.4489 2.37375V11.1906C48.4489 11.6759 48.8967 12.0695 49.4489 12.0695C50.0011 12.0695 50.4489 11.6759 50.4489 11.1906V2.37375C50.4489 1.06479 49.2374 0 47.7482 0V0ZM38.4737 43.2422H29.4374C29.0176 43.2422 28.663 42.9304 28.663 42.5616V39.9809C28.7317 38.4057 27.7147 36.7541 27.106 35.7656C27.0227 35.6304 24.9976 32.4113 24.9976 32.4113C23.6678 29.8068 23.6665 28.0746 24.9895 26.2412C25.5687 25.4398 26.4476 24.3818 27.2441 23.4461V27.9025C27.2441 29.2114 28.4556 30.2762 29.9448 30.2762H33.1511V33.209C33.1511 33.6944 33.5988 34.0879 34.1511 34.0879C34.7034 34.0879 35.1511 33.6944 35.1511 33.209V23.9537C35.1511 23.1608 35.885 22.5156 36.7872 22.5156C37.2261 22.5156 37.6402 22.668 37.9532 22.9448C38.2607 23.2167 38.4287 23.5731 38.4261 23.9484C38.424 24.2496 38.4188 26.2315 38.3787 27.1513C38.3432 27.9648 38.3824 28.7215 38.4675 29.4279C38.4695 29.4791 38.5471 29.9998 38.5824 30.2037C38.784 31.3671 39.0938 32.3828 39.3672 33.2755C39.7544 34.5402 40.0893 35.6337 39.9837 36.659C39.8976 37.1471 39.7817 37.5021 39.6591 37.8775C39.4529 38.5094 39.2396 39.1627 39.2396 40.2893C39.2396 40.2924 39.2396 40.2955 39.2397 40.2985L39.2481 42.5614C39.2481 42.9304 38.8935 43.2422 38.4737 43.2422V43.2422ZM43.3893 28.5184H40.3898C40.3641 28.1032 40.4241 24.2578 40.4261 23.9589C40.4318 23.112 40.0573 22.3117 39.3715 21.7055C38.6803 21.0944 37.7624 20.7578 36.7871 20.7578C34.7822 20.7578 33.151 22.1915 33.151 23.9537V28.5184H29.9447C29.5583 28.5184 29.244 28.2421 29.244 27.9025V2.37375C29.244 2.03414 29.5584 1.75781 29.9447 1.75781H43.3893V28.5184Z" fill="white"/>
<path d="M20.1763 59.0376V63H18.3232V52.3359H22.4028C23.5942 52.3359 24.5391 52.646 25.2373 53.2661C25.9404 53.8862 26.292 54.7065 26.292 55.7271C26.292 56.772 25.9478 57.585 25.2593 58.166C24.5757 58.7471 23.6162 59.0376 22.3809 59.0376H20.1763ZM20.1763 57.5508H22.4028C23.062 57.5508 23.5649 57.397 23.9116 57.0894C24.2583 56.7769 24.4316 56.3276 24.4316 55.7417C24.4316 55.1655 24.2559 54.7065 23.9043 54.3647C23.5527 54.0181 23.0693 53.8398 22.4541 53.8301H20.1763V57.5508ZM32.3931 63C32.3149 62.8486 32.2466 62.6021 32.188 62.2603C31.6216 62.8511 30.9282 63.1465 30.1079 63.1465C29.312 63.1465 28.6626 62.9194 28.1597 62.4653C27.6567 62.0112 27.4053 61.4497 27.4053 60.7808C27.4053 59.936 27.7178 59.2891 28.3428 58.8398C28.9727 58.3857 29.8711 58.1587 31.0381 58.1587H32.1294V57.6387C32.1294 57.2285 32.0146 56.9014 31.7852 56.6572C31.5557 56.4082 31.2065 56.2837 30.7378 56.2837C30.3325 56.2837 30.0005 56.3862 29.7417 56.5913C29.4829 56.7915 29.3535 57.0479 29.3535 57.3604H27.5737C27.5737 56.9258 27.7178 56.5205 28.0059 56.1445C28.2939 55.7637 28.6846 55.4658 29.1777 55.251C29.6758 55.0361 30.23 54.9287 30.8403 54.9287C31.7681 54.9287 32.5078 55.1631 33.0596 55.6318C33.6113 56.0957 33.8945 56.75 33.9092 57.5947V61.1689C33.9092 61.8818 34.0093 62.4507 34.2095 62.8755V63H32.3931ZM30.4375 61.7183C30.7891 61.7183 31.1187 61.6328 31.4263 61.4619C31.7388 61.291 31.9731 61.0615 32.1294 60.7734V59.2793H31.1699C30.5107 59.2793 30.0151 59.394 29.6831 59.6235C29.3511 59.853 29.1851 60.1777 29.1851 60.5977C29.1851 60.9395 29.2974 61.2129 29.522 61.418C29.7515 61.6182 30.0566 61.7183 30.4375 61.7183ZM35.4619 58.979C35.4619 57.7485 35.75 56.7671 36.3262 56.0347C36.9072 55.2974 37.6763 54.9287 38.6333 54.9287C39.5366 54.9287 40.2471 55.2437 40.7646 55.8735L40.8452 55.0752H42.4492V62.7583C42.4492 63.7983 42.1245 64.6187 41.4751 65.2192C40.8306 65.8198 39.959 66.1201 38.8604 66.1201C38.2793 66.1201 37.7104 65.998 37.1538 65.7539C36.6021 65.5146 36.1821 65.1997 35.894 64.8091L36.7363 63.7397C37.2832 64.3892 37.957 64.7139 38.7578 64.7139C39.3486 64.7139 39.8149 64.5527 40.1567 64.2305C40.4985 63.9131 40.6694 63.4443 40.6694 62.8242V62.2896C40.1567 62.8608 39.4731 63.1465 38.6187 63.1465C37.6909 63.1465 36.9316 62.7778 36.3408 62.0405C35.7549 61.3032 35.4619 60.2827 35.4619 58.979ZM37.2344 59.1328C37.2344 59.9287 37.3955 60.5562 37.7178 61.0151C38.0449 61.4692 38.4966 61.6963 39.0728 61.6963C39.7905 61.6963 40.3228 61.3887 40.6694 60.7734V57.2871C40.3325 56.6865 39.8052 56.3862 39.0874 56.3862C38.5015 56.3862 38.0449 56.6182 37.7178 57.082C37.3955 57.5459 37.2344 58.2295 37.2344 59.1328ZM49.019 63C48.9409 62.8486 48.8726 62.6021 48.814 62.2603C48.2476 62.8511 47.5542 63.1465 46.7339 63.1465C45.938 63.1465 45.2886 62.9194 44.7856 62.4653C44.2827 62.0112 44.0312 61.4497 44.0312 60.7808C44.0312 59.936 44.3438 59.2891 44.9688 58.8398C45.5986 58.3857 46.4971 58.1587 47.6641 58.1587H48.7554V57.6387C48.7554 57.2285 48.6406 56.9014 48.4111 56.6572C48.1816 56.4082 47.8325 56.2837 47.3638 56.2837C46.9585 56.2837 46.6265 56.3862 46.3677 56.5913C46.1089 56.7915 45.9795 57.0479 45.9795 57.3604H44.1997C44.1997 56.9258 44.3438 56.5205 44.6318 56.1445C44.9199 55.7637 45.3105 55.4658 45.8037 55.251C46.3018 55.0361 46.856 54.9287 47.4663 54.9287C48.394 54.9287 49.1338 55.1631 49.6855 55.6318C50.2373 56.0957 50.5205 56.75 50.5352 57.5947V61.1689C50.5352 61.8818 50.6353 62.4507 50.8354 62.8755V63H49.019ZM47.0635 61.7183C47.415 61.7183 47.7446 61.6328 48.0522 61.4619C48.3647 61.291 48.5991 61.0615 48.7554 60.7734V59.2793H47.7959C47.1367 59.2793 46.6411 59.394 46.3091 59.6235C45.9771 59.853 45.811 60.1777 45.811 60.5977C45.811 60.9395 45.9233 61.2129 46.1479 61.418C46.3774 61.6182 46.6826 61.7183 47.0635 61.7183ZM56.5483 56.7012C56.314 56.6621 56.0723 56.6426 55.8232 56.6426C55.0078 56.6426 54.4585 56.9551 54.1753 57.5801V63H52.3955V55.0752H54.0947L54.1387 55.9614C54.5684 55.2729 55.1641 54.9287 55.9258 54.9287C56.1797 54.9287 56.3896 54.9629 56.5557 55.0312L56.5483 56.7012Z" fill="white"/>
</svg>
