<svg id="ico-ahorro-o" xmlns="http://www.w3.org/2000/svg" viewBox="0 0 80 80">
    <path d="M27.71.21c8.24,0,14.92,6.36,14.92,14.2a13.56,13.56,0,0,1-1.55,6.3l.85-.08a20.34,20.34,0,0,0,1.83-4.7,27.42,27.42,0,0,1,9.6,2q4-3.18,5.33-4a11.58,11.58,0,0,1,6.39-2C67.21,11.87,63,21,64,22S74.67,33.16,74.67,40.25h3.2a2.08,2.08,0,0,1,2.13,2v6.08a2.08,2.08,0,0,1-2.13,2h-3.2q-4.26,15.21-16,20.27v8.11a1,1,0,0,1-1.07,1H49.09a1,1,0,0,1-1.06-1h0v-4c-1.42.67-4.27,1-8.53,1s-6.75-.34-7.46-1v4a1,1,0,0,1-1.07,1H22.45a1,1,0,0,1-1.07-1V71.68q-16-13.19-16-24.33s-3.2-2-5.33,1c0,0-1.07-4,5.33-7.09,0,0,2.13-11.15,10.65-16.22a19.56,19.56,0,0,0,4.27,3s.38-.32,1.1-.81a14.17,14.17,0,0,1-8.63-12.87C12.79,6.57,19.47.21,27.71.21ZM63.38,14.07a10.22,10.22,0,0,0-3.5,1.51c-.82.53-2.56,1.85-5.15,3.92l-1,.79-1.19-.46A27.9,27.9,0,0,0,45.35,18c-.13.42-.28.83-.42,1.22s-.34.88-.52,1.25h.74a1.34,1.34,0,1,1,0,2.67,43.36,43.36,0,0,0-23.72,7.49,1.42,1.42,0,0,1-.84.26,1.39,1.39,0,0,1-1.13-.54,1.2,1.2,0,0,1-.25-.55l.15.08A15.08,15.08,0,0,1,17,28.47c-.39-.27-.75-.55-1.11-.84a21.38,21.38,0,0,0-6.41,8.25A30.13,30.13,0,0,0,7.91,40c-.16.54-.3,1.08-.42,1.63l-.19,1-1,.45a11.46,11.46,0,0,0-2.53,1.59l0,0a7,7,0,0,1,1.73.44,7.39,7.39,0,0,1,.94.45l.07,0,0,0h0l1,.6v1.09c0,6.73,5,14.36,15.25,22.79l.73.61v7h6.4V69.82l3.62,3.45,0,0s0,0,.08,0a7.8,7.8,0,0,0,1.16.23,38.32,38.32,0,0,0,4.76.23c4,0,6.54-.3,7.57-.8l3.09-1.46v6.32h6.39v-8.4l1.25-.54C65,65.71,69.92,59.45,72.61,49.87L73,48.36h4.84V42.28H72.54v-2C72.54,37.64,70.85,34,68,30c-1.09-1.53-2.26-3-3.49-4.41-.64-.74-1.3-1.45-2-2.14-1-.91-1-1.86-.63-3.55.15-.79.31-1.37.82-3.2l.07-.23C63.07,15.4,63.26,14.65,63.38,14.07ZM27.71,2.24c-7.06,0-12.79,5.45-12.79,12.17a12.14,12.14,0,0,0,7.4,11l1.39.62a47.86,47.86,0,0,1,14.77-5l.55-1a11.63,11.63,0,0,0,1.47-5.67C40.5,7.69,34.77,2.24,27.71,2.24Zm.71,4.26V8.12a5.54,5.54,0,0,1,3.06,1.2l-.86,1a4.27,4.27,0,0,0-2.86-1.05c-1.64,0-2.32.69-2.32,1.59s.44,1.39,2.83,2.2c2.64.91,3.46,1.67,3.46,3.36s-1.21,2.84-3.31,3.05V21.1H27.14V19.46a5.77,5.77,0,0,1-3.37-1.54l.88-.94a4.7,4.7,0,0,0,3.18,1.36c1.58,0,2.57-.67,2.57-1.87,0-1-.66-1.57-2.85-2.32-2.57-.87-3.44-1.59-3.44-3.22s1.19-2.6,3-2.79V6.5Z" />
</svg>
