<svg width="68" height="68" viewBox="0 0 68 68" fill="none" xmlns="http://www.w3.org/2000/svg">
<circle cx="34" cy="34" r="34" fill="#00BDF2"/>
<path d="M49.6095 35.3699C49.2237 35.3699 48.911 35.6826 48.911 36.0684C48.911 36.5575 48.5131 36.9554 48.024 36.9554C47.535 36.9554 47.1371 36.5575 47.1371 36.0684C47.1371 35.6825 46.8243 35.3699 46.4385 35.3699C46.0527 35.3699 45.74 35.6826 45.74 36.0684C45.74 37.3278 46.7647 38.3524 48.024 38.3524C49.2834 38.3524 50.308 37.3278 50.308 36.0684C50.308 35.6824 49.9953 35.3699 49.6095 35.3699Z" fill="white"/>
<path d="M56.1666 35.484L54.2005 34.8542C53.9487 34.7735 53.7502 34.5725 53.6697 34.3165C53.2553 32.999 52.63 31.7622 51.8111 30.6402C51.4379 30.1287 51.0228 29.6404 50.5695 29.1755C50.8595 27.903 51.0172 26.4629 50.9968 25.2188C50.9675 23.4389 50.6118 22.395 49.9095 22.0271C49.5312 21.8288 48.3799 21.2261 42.1487 24.0786C42.0011 24.1461 41.8633 24.2292 41.7357 24.3245C41.3156 24.2116 40.8862 24.1072 40.4542 24.0134C40.4022 24.0021 40.3486 23.9921 40.2962 23.981C40.8011 22.8779 41.0959 21.6799 41.1513 20.4431C41.1686 20.0576 40.8702 19.7312 40.4847 19.7141C40.1002 19.6949 39.7728 19.9951 39.7556 20.3806C39.6646 22.4142 38.821 24.3275 37.3804 25.7682C36.5197 26.6289 35.5119 27.2541 34.4378 27.6478C32.5751 27.3865 30.6778 27.3865 28.8151 27.6478C27.7409 27.2541 26.7332 26.6289 25.8724 25.7682C24.3355 24.2312 23.489 22.1877 23.489 20.0142C23.489 17.8405 24.3355 15.7971 25.8724 14.2601C27.4094 12.7231 29.4529 11.8766 31.6264 11.8766C33.7999 11.8766 35.8435 12.7231 37.3804 14.2601C37.9981 14.8778 38.5084 15.5826 38.8974 16.3548C39.0709 16.6994 39.491 16.8382 39.8356 16.6646C40.1802 16.4911 40.3188 16.071 40.1453 15.7265C39.6894 14.821 39.0916 13.9953 38.3685 13.2721C36.5676 11.4713 34.1732 10.4795 31.6265 10.4795C29.0798 10.4795 26.6854 11.4713 24.8846 13.2721C23.0837 15.0731 22.092 17.4673 22.092 20.0141C22.092 22.5608 23.0837 24.9552 24.8846 26.756C25.4041 27.2755 25.9692 27.7222 26.5669 28.0964C26.5671 28.0964 26.5673 28.0963 26.5675 28.0963C26.1332 28.2092 25.7021 28.336 25.2758 28.4785C24.9099 28.6008 24.7125 28.9965 24.8348 29.3625C24.9571 29.7284 25.353 29.9259 25.7188 29.8036C29.5284 28.53 33.7247 28.53 37.5343 29.8036C37.6078 29.8282 37.6824 29.8398 37.7558 29.8398C38.048 29.8398 38.3205 29.6549 38.4182 29.3625C38.5406 28.9966 38.3432 28.6008 37.9773 28.4785C37.551 28.336 37.1199 28.2091 36.6856 28.0963C36.6857 28.0963 36.6859 28.0964 36.6861 28.0964C37.284 27.7222 37.849 27.2755 38.3685 26.756C38.828 26.2964 39.2337 25.7946 39.5859 25.2612C39.7785 25.2987 39.9696 25.3378 40.158 25.3787C40.4088 25.4332 40.6586 25.4917 40.9061 25.5531C40.8983 25.5835 40.8903 25.6137 40.8839 25.6446C40.5432 27.2613 40.5653 28.6912 40.9496 29.8943C41.295 30.9757 41.9183 31.8518 42.8021 32.4984C43.8438 33.2604 45.1013 33.5895 46.2405 33.5895C47.0978 33.5895 47.8882 33.403 48.4687 33.0742C49.1253 32.7023 49.6755 31.9186 50.1109 30.7421C50.3122 30.977 50.503 31.2177 50.6828 31.464C51.4119 32.4628 51.9685 33.5637 52.3371 34.7357C52.5536 35.4241 53.091 35.9658 53.7745 36.1849L55.7406 36.8147C56.2565 36.98 56.6031 37.4548 56.6031 37.9965V41.2567C56.6031 41.7984 56.2565 42.2732 55.7406 42.4385L52.5729 43.4532C52.0661 43.6156 51.6372 43.9639 51.3652 44.434C50.1207 46.5848 48.164 48.3646 45.5492 49.7241C45.2472 49.8813 45.0379 50.1625 44.9749 50.4957L43.9604 55.8678C43.9323 56.0158 43.8027 56.1232 43.652 56.1232H40.3533C40.2026 56.1232 40.0729 56.0157 40.0449 55.8678L39.483 52.8988C39.3723 52.3147 38.8245 51.9267 38.2348 52.016C36.8138 52.2309 35.3496 52.3397 33.8831 52.3397C32.792 52.3397 31.7149 52.2789 30.6815 52.1588C30.1101 52.0931 29.5778 52.4826 29.471 53.0468L28.937 55.8678C28.909 56.0158 28.7793 56.1232 28.6287 56.1232H25.3299C25.1792 56.1232 25.0496 56.0158 25.0212 55.8656L24.0443 50.7916C23.9814 50.4647 23.7761 50.1868 23.4807 50.029C19.0234 47.6495 16.6675 43.6741 16.6675 38.5329C16.6675 35.9352 17.2358 33.6383 18.3566 31.7055C19.4025 29.9019 20.93 28.4106 22.8968 27.2729C23.2307 27.0797 23.3448 26.6524 23.1517 26.3184C22.9586 25.9844 22.5313 25.8705 22.1973 26.0635C18.3836 28.2696 16.0834 31.6731 15.4502 35.9959V35.9958C15.3829 35.9897 15.3156 35.9839 15.2486 35.977C15.2608 35.5106 15.1764 35.0399 14.9927 34.5832C14.5874 33.5757 13.7549 32.8486 12.8717 32.7308C12.1757 32.6376 11.5133 32.9331 11.0537 33.5404C10.3872 34.4211 10.4958 35.118 10.7043 35.5476C11.0561 36.2726 11.9605 36.7854 13.4613 37.1078C13.4201 37.1696 13.3747 37.2316 13.325 37.294C12.4382 38.4061 11.3935 38.652 10.7151 38.6752C10.318 38.6886 10 39.0074 10 39.4048V39.4082C10 39.8002 10.3093 40.1199 10.7009 40.1378C10.751 40.1401 10.8034 40.1413 10.858 40.1413C11.7164 40.1413 13.094 39.8247 14.4176 38.1651C14.6266 37.9032 14.7968 37.6268 14.9277 37.3412C15.0595 37.3561 15.1862 37.3689 15.3075 37.3801C15.3075 37.3798 15.3075 37.3797 15.3076 37.3794C15.2837 37.7579 15.2705 38.142 15.2705 38.5329C15.2705 41.4417 15.964 44.0353 17.3315 46.2419C18.5925 48.2763 20.3978 49.9421 22.6992 51.1948L23.6489 56.1275C23.8016 56.9345 24.5086 57.5203 25.3299 57.5203H28.6287C29.45 57.5203 30.157 56.9345 30.3097 56.1275L30.7925 53.5767C31.7953 53.683 32.8335 53.7368 33.883 53.7368C35.323 53.7368 36.7613 53.6365 38.1631 53.4385L38.672 56.1277C38.8248 56.9347 39.5318 57.5203 40.3531 57.5203H43.6518C44.4732 57.5203 45.1802 56.9346 45.333 56.1273L46.3208 50.8969C49.1116 49.4212 51.2151 47.4826 52.5743 45.1336C52.6723 44.9643 52.8231 44.8401 52.999 44.7837L56.1666 43.7691C57.2632 43.4176 58 42.408 58 41.2565V37.9963C58 36.8449 57.2632 35.8353 56.1666 35.484ZM49.4948 27.1818C49.2259 29.4811 48.5047 31.448 47.78 31.8584C46.9563 32.325 45.0546 32.4151 43.6268 31.3707C42.1973 30.325 41.7215 28.4445 42.2507 25.9326C42.2507 25.9325 42.2507 25.9325 42.2507 25.9325C42.3039 25.6802 42.4832 25.462 42.7302 25.3489C46.2274 23.748 48.2437 23.2244 48.9928 23.2244C49.1058 23.2244 49.19 23.2363 49.2461 23.2583C49.4711 23.4981 49.7662 24.8613 49.4948 27.1818ZM11.9613 34.9376C11.8891 34.7885 12.0597 34.5265 12.1679 34.3834C12.3393 34.1569 12.4973 34.1106 12.6167 34.1106C12.6419 34.1106 12.6654 34.1127 12.687 34.1156C13.0082 34.1584 13.4582 34.5118 13.6966 35.1044C13.7527 35.2439 13.8257 35.475 13.8427 35.7632C12.8757 35.5629 12.1244 35.274 11.9613 34.9376Z" fill="white"/>
<path d="M32.3047 19.2135V16.7137C33.1667 16.7753 33.487 17.1693 33.7825 17.1693C34.1519 17.1693 34.3244 16.7014 34.3244 16.4674C34.3244 15.864 33.1421 15.6054 32.3047 15.5807V15.2481C32.3047 15.1004 32.1199 14.9649 31.9352 14.9649C31.7258 14.9649 31.578 15.1004 31.578 15.2481V15.6052C30.4081 15.7284 29.2382 16.3442 29.2382 17.8958C29.2382 19.4721 30.4697 19.9155 31.578 20.3095V23.2035C30.3219 23.1049 29.9894 22.2429 29.583 22.2429C29.2752 22.2429 29.0166 22.6493 29.0166 22.9449C29.0166 23.5483 30.051 24.3734 31.578 24.398V24.7798C31.578 24.9275 31.7259 25.063 31.9352 25.063C32.12 25.063 32.3047 24.9275 32.3047 24.7798V24.3611C33.6347 24.1763 34.546 23.3389 34.546 21.8242C34.546 20.1495 33.3761 19.6075 32.3047 19.2135ZM31.6519 18.9796C30.9992 18.7333 30.4697 18.4747 30.4697 17.7728C30.4697 17.1324 30.9623 16.8245 31.6519 16.7384V18.9796V18.9796ZM32.2307 23.1788V20.5804C32.8341 20.839 33.3144 21.1838 33.3144 21.9596C33.3144 22.6617 32.8957 23.0557 32.2307 23.1788Z" fill="white"/>
</svg>
