<svg width="120" height="120" viewBox="0 0 120 120" fill="none" xmlns="http://www.w3.org/2000/svg">
<g clip-path="url(#clip0)">
<path d="M61.9991 18.0007H1.99997C0.895487 18.0007 0 18.8962 0 20.0007V36.0005C0 37.105 0.895487 38.0004 1.99997 38.0004H61.9991C63.1036 38.0004 63.9991 37.105 63.9991 36.0005V20.0007C63.9991 18.896 63.1036 18.0007 61.9991 18.0007ZM59.9991 34.0005H3.99994V22.0007H59.9991V34.0005Z" fill="#9B9B9B"/>
<path d="M53.9992 19.9998H49.9993V35.9995H53.9992V19.9998Z" fill="#9B9B9B"/>
<path d="M43.9993 19.9998H39.9994V35.9995H43.9993V19.9998Z" fill="#9B9B9B"/>
<path d="M33.9994 19.9998H29.9995V35.9995H33.9994V19.9998Z" fill="#9B9B9B"/>
<path d="M23.9998 19.9998H19.9998V35.9995H23.9998V19.9998Z" fill="#9B9B9B"/>
<path d="M13.9998 19.9998H9.99982V35.9995H13.9998V19.9998Z" fill="#9B9B9B"/>
<path d="M64.759 2.00098H4.75986C3.65537 2.00098 2.75989 2.89646 2.75989 4.00095V20.0007C2.75989 21.1052 3.65537 22.0007 4.75986 22.0007H64.759C65.8635 22.0007 66.759 21.1052 66.759 20.0007V4.00095C66.759 2.89621 65.8635 2.00098 64.759 2.00098ZM62.759 18.0007H6.75983V6.00092H62.759V18.0007Z" fill="#9B9B9B"/>
<path d="M56.7592 4H52.7592V19.9998H56.7592V4Z" fill="#9B9B9B"/>
<path d="M46.7592 4H42.7593V19.9998H46.7592V4Z" fill="#9B9B9B"/>
<path d="M36.7595 4H32.7596V19.9998H36.7595V4Z" fill="#9B9B9B"/>
<path d="M26.7596 4H22.7596V19.9998H26.7596V4Z" fill="#9B9B9B"/>
<path d="M16.7598 4H12.7598V19.9998H16.7598V4Z" fill="#9B9B9B"/>
<path d="M67.999 34.0005H7.99985C6.89536 34.0005 5.99988 34.896 5.99988 36.0005V52.0002C5.99988 53.1047 6.89536 54.0002 7.99985 54.0002H67.999C69.1035 54.0002 69.999 53.1047 69.999 52.0002V36.0005C69.999 34.8957 69.1035 34.0005 67.999 34.0005ZM65.999 50.0002H9.99982V38.0004H65.999V50.0002Z" fill="#9B9B9B"/>
<path d="M59.9991 35.9995H55.9991V51.9993H59.9991V35.9995Z" fill="#9B9B9B"/>
<path d="M49.9993 35.9995H45.9993V51.9993H49.9993V35.9995Z" fill="#9B9B9B"/>
<path d="M39.9996 35.9995H35.9996V51.9993H39.9996V35.9995Z" fill="#9B9B9B"/>
<path d="M29.9996 35.9995H25.9997V51.9993H29.9996V35.9995Z" fill="#9B9B9B"/>
<path d="M19.9997 35.9995H15.9998V51.9993H19.9997V35.9995Z" fill="#9B9B9B"/>
<path d="M63.999 50.0002H3.99985C2.89536 50.0002 1.99988 50.8957 1.99988 52.0002V68C1.99988 69.1045 2.89536 70 3.99985 70H63.999C65.1035 70 65.9989 69.1045 65.9989 68V52.0002C65.9989 50.8955 65.1035 50.0002 63.999 50.0002ZM61.999 66H5.99982V54.0002H61.999V66Z" fill="#9B9B9B"/>
<path d="M55.9991 51.9993H51.9991V67.999H55.9991V51.9993Z" fill="#9B9B9B"/>
<path d="M45.9994 51.9993H41.9995V67.999H45.9994V51.9993Z" fill="#9B9B9B"/>
<path d="M35.9994 51.9993H31.9995V67.999H35.9994V51.9993Z" fill="#9B9B9B"/>
<path d="M25.9996 51.9993H21.9997V67.999H25.9996V51.9993Z" fill="#9B9B9B"/>
<path d="M15.9998 51.9993H11.9998V67.999H15.9998V51.9993Z" fill="#9B9B9B"/>
<path d="M65.9991 66H5.99991C4.89543 66 3.99994 66.8955 3.99994 68V83.9997C3.99994 85.1042 4.89543 85.9997 5.99991 85.9997H65.9991C67.1035 85.9997 67.999 85.1042 67.999 83.9997V68C67.999 66.8952 67.1035 66 65.9991 66ZM63.9991 81.9998H7.99988V69.9999H63.9991V81.9998Z" fill="#9B9B9B"/>
<path d="M57.9992 67.999H53.9993V83.9988H57.9992V67.999Z" fill="#9B9B9B"/>
<path d="M47.9994 67.999H43.9995V83.9988H47.9994V67.999Z" fill="#9B9B9B"/>
<path d="M37.9994 67.999H33.9995V83.9988H37.9994V67.999Z" fill="#9B9B9B"/>
<path d="M27.9996 67.999H23.9996V83.9988H27.9996V67.999Z" fill="#9B9B9B"/>
<path d="M17.9998 67.999H13.9999V83.9988H17.9998V67.999Z" fill="#9B9B9B"/>
<path d="M69.9989 81.9998H9.99979C8.8953 81.9998 7.99982 82.8952 7.99982 83.9997V99.9995C7.99982 101.104 8.8953 101.999 9.99979 101.999H69.9989C71.1034 101.999 71.9989 101.104 71.9989 99.9995V83.9997C71.9989 82.895 71.1034 81.9998 69.9989 81.9998ZM67.9989 97.9995H11.9998V85.9997H67.9989V97.9995Z" fill="#9B9B9B"/>
<path d="M61.9991 83.9988H57.9992V99.9985H61.9991V83.9988Z" fill="#9B9B9B"/>
<path d="M51.9993 83.9988H47.9994V99.9985H51.9993V83.9988Z" fill="#9B9B9B"/>
<path d="M41.9993 83.9988H37.9994V99.9985H41.9993V83.9988Z" fill="#9B9B9B"/>
<path d="M31.9995 83.9988H27.9996V99.9985H31.9995V83.9988Z" fill="#9B9B9B"/>
<path d="M21.9997 83.9988H17.9998V99.9985H21.9997V83.9988Z" fill="#9B9B9B"/>
<path d="M64.759 97.9998H4.75986C3.65537 97.9998 2.75989 98.8952 2.75989 99.9997V115.999C2.75989 117.104 3.65537 117.999 4.75986 117.999H64.759C65.8635 117.999 66.759 117.104 66.759 115.999V99.9997C66.759 98.895 65.8635 97.9998 64.759 97.9998ZM62.759 114H6.75983V102H62.759V114Z" fill="#9B9B9B"/>
<path d="M56.7592 99.9985H52.7592V115.998H56.7592V99.9985Z" fill="#9B9B9B"/>
<path d="M46.7592 99.9985H42.7593V115.998H46.7592V99.9985Z" fill="#9B9B9B"/>
<path d="M36.7595 99.9985H32.7596V115.998H36.7595V99.9985Z" fill="#9B9B9B"/>
<path d="M26.7596 99.9985H22.7596V115.998H26.7596V99.9985Z" fill="#9B9B9B"/>
<path d="M16.7598 99.9985H12.7598V115.998H16.7598V99.9985Z" fill="#9B9B9B"/>
<path d="M113.598 66.7999C102.995 52.6616 82.9373 49.7964 68.799 60.4L71.1989 63.6C81.1543 56.1333 94.8431 56.1333 104.798 63.6C117.17 72.8783 119.676 90.4283 110.398 102.799C101.12 115.17 83.57 117.678 71.1989 108.399L68.799 111.599C74.3284 115.772 81.0715 118.02 87.9987 117.999C94.9223 117.999 101.659 115.753 107.198 111.599C121.337 100.996 124.202 80.9382 113.598 66.7999Z" fill="#9B9B9B"/>
<path d="M113.598 20.8004C102.994 6.66214 82.9372 3.79693 68.799 14.4005L71.1989 17.6005C81.1543 10.1338 94.8431 10.1338 104.798 17.6005C117.169 26.8788 119.677 44.4288 110.398 56.7999L113.598 59.1999C122.131 47.8223 122.131 32.1783 113.598 20.8004Z" fill="#9B9B9B"/>
<path d="M87.1988 66H84.7988C79.6881 66.0227 75.2932 69.6249 74.2672 74.6314C73.0697 80.4745 76.8357 86.182 82.6788 87.3795L88.5388 88.5394C91.687 89.1882 93.9509 91.9526 93.9662 95.1671C93.9842 98.9225 90.9542 101.981 87.1988 101.999H84.7988C81.0434 101.999 77.9989 98.9548 77.9989 95.1993V93.9994H73.999V95.1993C73.999 101.164 78.8341 105.999 84.7988 105.999H87.1988C92.3094 105.976 96.7044 102.374 97.7304 97.3678C98.9279 91.5246 95.1619 85.8172 89.3187 84.6195L83.4588 83.4595C80.3106 82.8108 78.0467 80.0463 78.0314 76.8318C78.0134 73.0764 81.0434 70.0174 84.7988 69.9997H87.1988C90.9542 69.9997 93.9987 73.0442 93.9987 76.7996V77.9996H97.9986V76.7999C97.9986 70.8352 93.1634 66 87.1988 66Z" fill="#9B9B9B"/>
<path d="M87.9987 63.999H83.9987V107.998H87.9987V63.999Z" fill="#9B9B9B"/>
<path d="M77.9989 49.2005V48.0005H73.999V49.2005C73.9977 53.1504 76.1529 56.7859 79.6189 58.6803L81.5388 55.2004C79.3494 53.9992 77.9914 51.6977 77.9989 49.2005Z" fill="#9B9B9B"/>
<path d="M97.9985 32.0006V30.8006C97.9985 24.8359 93.1633 20.0007 87.1987 20.0007H84.7987C79.9241 20.1485 75.7534 23.5449 74.6211 28.2884C73.2364 34.09 76.8171 39.9157 82.6188 41.3004L88.4787 42.4604C90.0809 42.7621 91.5214 43.6296 92.5376 44.9044C94.8783 47.8411 94.3953 52.1193 91.4586 54.4602L93.9986 57.5402C95.9063 55.9715 97.2188 53.7965 97.7173 51.3773C98.9208 45.5354 95.1606 39.8239 89.3187 38.6205L83.4587 37.4605C80.3105 36.8117 78.0466 34.0473 78.0313 30.8328C78.0133 27.0774 81.0433 24.0184 84.7987 24.0007H87.1987C90.9541 24.0007 93.9986 27.0451 93.9986 30.8006V32.0006H97.9985Z" fill="#9B9B9B"/>
<path d="M87.9987 17.9998H83.9987V56.0592H87.9987V17.9998Z" fill="#9B9B9B"/>
</g>
<defs>
<clipPath id="clip0">
<rect width="120" height="120" fill="white"/>
</clipPath>
</defs>
</svg>
