<svg width="74" height="71" viewBox="0 0 74 71" fill="none" xmlns="http://www.w3.org/2000/svg">
<path d="M13.0498 53.8301H9.72461V63H7.88623V53.8301H4.59033V52.3359H13.0498V53.8301ZM17.9497 56.7012C17.7153 56.6621 17.4736 56.6426 17.2246 56.6426C16.4092 56.6426 15.8599 56.9551 15.5767 57.5801V63H13.7969V55.0752H15.4961L15.54 55.9614C15.9697 55.2729 16.5654 54.9287 17.3271 54.9287C17.5811 54.9287 17.791 54.9629 17.957 55.0312L17.9497 56.7012ZM23.5894 63C23.5112 62.8486 23.4429 62.6021 23.3843 62.2603C22.8179 62.8511 22.1245 63.1465 21.3042 63.1465C20.5083 63.1465 19.8589 62.9194 19.356 62.4653C18.853 62.0112 18.6016 61.4497 18.6016 60.7808C18.6016 59.936 18.9141 59.2891 19.5391 58.8398C20.1689 58.3857 21.0674 58.1587 22.2344 58.1587H23.3257V57.6387C23.3257 57.2285 23.2109 56.9014 22.9814 56.6572C22.752 56.4082 22.4028 56.2837 21.9341 56.2837C21.5288 56.2837 21.1968 56.3862 20.938 56.5913C20.6792 56.7915 20.5498 57.0479 20.5498 57.3604H18.77C18.77 56.9258 18.9141 56.5205 19.2021 56.1445C19.4902 55.7637 19.8809 55.4658 20.374 55.251C20.8721 55.0361 21.4263 54.9287 22.0366 54.9287C22.9644 54.9287 23.7041 55.1631 24.2559 55.6318C24.8076 56.0957 25.0908 56.75 25.1055 57.5947V61.1689C25.1055 61.8818 25.2056 62.4507 25.4058 62.8755V63H23.5894ZM21.6338 61.7183C21.9854 61.7183 22.3149 61.6328 22.6226 61.4619C22.9351 61.291 23.1694 61.0615 23.3257 60.7734V59.2793H22.3662C21.707 59.2793 21.2114 59.394 20.8794 59.6235C20.5474 59.853 20.3813 60.1777 20.3813 60.5977C20.3813 60.9395 20.4937 61.2129 20.7183 61.418C20.9478 61.6182 21.2529 61.7183 21.6338 61.7183ZM28.6211 55.0752L28.6724 55.9907C29.2583 55.2827 30.0273 54.9287 30.9795 54.9287C32.6299 54.9287 33.4697 55.8735 33.499 57.7632V63H31.7192V57.8657C31.7192 57.3628 31.6094 56.9917 31.3896 56.7524C31.1748 56.5083 30.8208 56.3862 30.3276 56.3862C29.6099 56.3862 29.0752 56.7109 28.7236 57.3604V63H26.9438V55.0752H28.6211ZM39.7612 60.8467C39.7612 60.5293 39.6294 60.2876 39.3657 60.1216C39.1069 59.9556 38.6748 59.8091 38.0693 59.6821C37.4639 59.5552 36.9585 59.394 36.5532 59.1987C35.6646 58.769 35.2202 58.1465 35.2202 57.3311C35.2202 56.6475 35.5083 56.0762 36.0845 55.6172C36.6606 55.1582 37.3931 54.9287 38.2817 54.9287C39.229 54.9287 39.9932 55.1631 40.5742 55.6318C41.1602 56.1006 41.4531 56.7085 41.4531 57.4556H39.6733C39.6733 57.1138 39.5464 56.8306 39.2925 56.606C39.0386 56.3765 38.7017 56.2617 38.2817 56.2617C37.8911 56.2617 37.5713 56.3521 37.3223 56.5327C37.0781 56.7134 36.9561 56.9551 36.9561 57.2578C36.9561 57.5312 37.0708 57.7437 37.3003 57.895C37.5298 58.0464 37.9937 58.2002 38.6919 58.3564C39.3901 58.5078 39.937 58.6909 40.3325 58.9058C40.7329 59.1157 41.0283 59.3696 41.2188 59.6675C41.4141 59.9653 41.5117 60.3267 41.5117 60.7515C41.5117 61.4644 41.2163 62.043 40.6255 62.4873C40.0347 62.9268 39.2607 63.1465 38.3037 63.1465C37.6543 63.1465 37.0757 63.0293 36.5679 62.7949C36.0601 62.5605 35.6646 62.2383 35.3813 61.8281C35.0981 61.418 34.9565 60.9761 34.9565 60.5024H36.6851C36.7095 60.9224 36.8682 61.2471 37.1611 61.4766C37.4541 61.7012 37.8423 61.8135 38.3257 61.8135C38.7944 61.8135 39.1509 61.7256 39.395 61.5498C39.6392 61.3691 39.7612 61.1348 39.7612 60.8467ZM43.6943 63V56.3936H42.4858V55.0752H43.6943V54.3501C43.6943 53.4712 43.9385 52.7925 44.4268 52.314C44.915 51.8354 45.5986 51.5962 46.4775 51.5962C46.79 51.5962 47.1221 51.6401 47.4736 51.728L47.4297 53.1196C47.2344 53.0806 47.0073 53.061 46.7485 53.061C45.8989 53.061 45.4741 53.498 45.4741 54.3721V55.0752H47.0854V56.3936H45.4741V63H43.6943ZM51.6997 63.1465C50.5718 63.1465 49.6562 62.7925 48.9531 62.0845C48.2549 61.3716 47.9058 60.4243 47.9058 59.2427V59.0229C47.9058 58.2319 48.0571 57.5264 48.3599 56.9062C48.6675 56.2812 49.0972 55.7954 49.6489 55.4487C50.2007 55.1021 50.8159 54.9287 51.4946 54.9287C52.5737 54.9287 53.4062 55.2729 53.9922 55.9614C54.583 56.6499 54.8784 57.624 54.8784 58.8838V59.6016H49.7002C49.7539 60.2559 49.9712 60.7734 50.3521 61.1543C50.7378 61.5352 51.2212 61.7256 51.8022 61.7256C52.6177 61.7256 53.2817 61.396 53.7944 60.7368L54.7539 61.6523C54.4365 62.126 54.0117 62.4946 53.4795 62.7583C52.9521 63.0171 52.3589 63.1465 51.6997 63.1465ZM51.4873 56.3569C50.999 56.3569 50.6035 56.5278 50.3008 56.8696C50.0029 57.2114 49.8125 57.6875 49.7295 58.2979H53.1206V58.166C53.0815 57.5703 52.9229 57.1211 52.6445 56.8184C52.3662 56.5107 51.9805 56.3569 51.4873 56.3569ZM60.4155 56.7012C60.1812 56.6621 59.9395 56.6426 59.6904 56.6426C58.875 56.6426 58.3257 56.9551 58.0425 57.5801V63H56.2627V55.0752H57.9619L58.0059 55.9614C58.4355 55.2729 59.0312 54.9287 59.793 54.9287C60.0469 54.9287 60.2568 54.9629 60.4229 55.0312L60.4155 56.7012ZM63.4331 63H61.6533V55.0752H63.4331V63ZM61.5435 53.0171C61.5435 52.7437 61.6289 52.5166 61.7998 52.3359C61.9756 52.1553 62.2246 52.0649 62.5469 52.0649C62.8691 52.0649 63.1182 52.1553 63.2939 52.3359C63.4697 52.5166 63.5576 52.7437 63.5576 53.0171C63.5576 53.2856 63.4697 53.5103 63.2939 53.6909C63.1182 53.8667 62.8691 53.9546 62.5469 53.9546C62.2246 53.9546 61.9756 53.8667 61.7998 53.6909C61.6289 53.5103 61.5435 53.2856 61.5435 53.0171ZM69.5269 56.7012C69.2925 56.6621 69.0508 56.6426 68.8018 56.6426C67.9863 56.6426 67.437 56.9551 67.1538 57.5801V63H65.374V55.0752H67.0732L67.1172 55.9614C67.5469 55.2729 68.1426 54.9287 68.9043 54.9287C69.1582 54.9287 69.3682 54.9629 69.5342 55.0312L69.5269 56.7012Z" fill="white"/>
<path d="M13 22.5003C13 31.5377 18.5641 39.7159 27.1749 43.335C27.4629 43.4561 27.7632 43.5134 28.0585 43.5134C28.9101 43.5134 29.7218 43.0371 30.0846 42.2384C30.5731 41.1628 30.0628 39.9098 28.9444 39.4398C21.9432 36.4971 17.4193 29.8479 17.4193 22.5003C17.4193 16.6814 20.2583 11.3027 24.9162 7.85391L24.3486 10.5585C24.1072 11.7091 24.8812 12.8302 26.0775 13.0625C26.2251 13.0911 26.372 13.1048 26.5168 13.1048C27.5471 13.1048 28.4689 12.4082 28.6805 11.3995L30.226 4.0333C30.2272 4.02791 30.2275 4.02253 30.2285 4.01714C30.238 3.97095 30.2442 3.92433 30.2503 3.87757C30.2534 3.85433 30.2579 3.83109 30.2601 3.80786C30.2643 3.76237 30.2655 3.71646 30.2668 3.67055C30.2676 3.64604 30.2699 3.62138 30.2696 3.59701C30.2693 3.55804 30.266 3.51893 30.2633 3.47982C30.2612 3.44893 30.2607 3.41762 30.2574 3.38701C30.2542 3.35796 30.2481 3.32877 30.2434 3.29973C30.2372 3.25934 30.2319 3.21867 30.2232 3.179C30.2184 3.15675 30.2112 3.13493 30.2056 3.11268C30.1939 3.06635 30.1823 3.02001 30.1674 2.97467C30.1605 2.95398 30.1518 2.93372 30.1443 2.91317C30.1275 2.86712 30.1105 2.82121 30.0905 2.77643C30.0883 2.77162 30.0871 2.76666 30.0849 2.76184C30.0756 2.74172 30.0643 2.72344 30.0547 2.70374C30.0357 2.66534 30.0169 2.62694 29.9956 2.58967C29.9786 2.55949 29.9597 2.53087 29.9411 2.50182C29.9226 2.47277 29.9043 2.44358 29.8844 2.41539C29.8617 2.3835 29.8377 2.35304 29.8134 2.32257C29.7946 2.29877 29.7759 2.27482 29.7558 2.25172C29.7297 2.22168 29.7026 2.1932 29.6749 2.16472C29.6533 2.14247 29.6321 2.12023 29.6095 2.09883C29.5823 2.07318 29.5543 2.04881 29.526 2.02458C29.4999 2.00233 29.4739 1.98023 29.4469 1.95926C29.4202 1.93857 29.393 1.9193 29.3654 1.90003C29.3344 1.87792 29.303 1.85624 29.2704 1.83584C29.2447 1.81954 29.2183 1.80452 29.1918 1.78936C29.1566 1.7691 29.1212 1.74912 29.0845 1.73084C29.0571 1.7171 29.0293 1.70477 29.0016 1.69216C28.9652 1.67572 28.929 1.65928 28.8914 1.64469C28.8584 1.63193 28.8251 1.62088 28.7917 1.60955C28.7582 1.59835 28.7254 1.58673 28.6912 1.57696C28.6483 1.56463 28.6046 1.55485 28.5608 1.54493C28.5393 1.54011 28.5189 1.5336 28.4972 1.52935L20.8397 0.042504C19.6428 -0.190023 18.478 0.554885 18.2364 1.70548C17.995 2.85621 18.769 3.97719 19.9653 4.20943L22.046 4.61341C16.4201 8.85969 13 15.4155 13 22.5003Z" fill="#FFFCFC"/>
<path d="M32.8296 28.1458C32.4812 27.7974 32.1805 27.4964 31.7259 27.4964C30.9421 27.4964 30.3107 28.3424 30.3107 29.0428C30.3107 30.3475 32.4367 32.2273 35.817 32.4485V33.3575C35.817 33.947 36.3658 34.4265 37.0399 34.4265C37.6182 34.4265 38.2627 33.9875 38.2627 33.3575V32.3064C41.2462 31.7472 42.9441 29.7037 42.9441 26.6322C42.9441 22.6253 40.0871 21.3538 38.2627 20.7001V15.1538C39.1336 15.2822 39.6996 15.5596 40.134 15.7726C40.4778 15.9412 40.7496 16.0744 41.0601 16.0744C41.9203 16.0744 42.4484 15.1732 42.4484 14.5271C42.4484 13.2046 40.1203 12.5515 38.2627 12.3829V11.6445C38.2627 11.0134 37.6182 10.5735 37.0399 10.5735C36.3658 10.5735 35.817 11.0539 35.817 11.6445V12.4506C32.6237 12.8353 30.8061 14.661 30.8061 17.5207C30.8061 21.1157 33.5273 22.1503 35.817 22.9285V29.6288C34.1258 29.4429 33.3567 28.6732 32.8296 28.1458ZM38.1806 23.8415C39.3466 24.4459 40.0033 25.2345 40.0033 26.7913C40.0033 28.2015 39.4055 29.0827 38.1806 29.4679V23.8415ZM33.7189 17.3623C33.7189 16.1798 34.4429 15.4538 35.8733 15.1984V19.881C34.5783 19.3755 33.7189 18.7671 33.7189 17.3623Z" fill="#FFFCFC"/>
<path d="M44.3104 5.56066C51.3115 8.50346 55.8354 15.1527 55.8354 22.5003C55.8354 28.3186 52.9969 33.6967 48.3401 37.1455L48.9075 34.4418C49.1491 33.291 48.3751 32.1701 47.1788 31.9377C45.9825 31.7053 44.8171 32.4501 44.5757 33.6005L43.0298 40.9666C43.0288 40.9717 43.0284 40.9768 43.0273 40.9819C43.018 41.0272 43.012 41.073 43.006 41.119C43.003 41.1411 42.9989 41.1631 42.9965 41.1852C42.9915 41.2354 42.9898 41.2861 42.9884 41.3368C42.988 41.355 42.9864 41.3729 42.9864 41.3909C42.9864 41.4424 42.9899 41.4941 42.994 41.5457C42.9954 41.5632 42.9955 41.5808 42.9974 41.5984C43.0023 41.6456 43.0105 41.6928 43.0188 41.7399C43.0226 41.7621 43.0254 41.7844 43.03 41.8064C43.0384 41.8461 43.0496 41.8853 43.0603 41.9247C43.0684 41.9543 43.0756 41.9842 43.0849 42.0134C43.0952 42.0459 43.1082 42.0779 43.1204 42.1102C43.1338 42.1456 43.1466 42.1811 43.1618 42.2158C43.1651 42.2233 43.1674 42.2308 43.1707 42.2383C43.1929 42.2875 43.2172 42.3354 43.2427 42.382C43.2427 42.3821 43.2428 42.3821 43.2428 42.3824C43.2748 42.4405 43.3099 42.496 43.3465 42.5502C43.3495 42.5544 43.3517 42.559 43.3547 42.5632C43.3597 42.5704 43.3656 42.577 43.3707 42.5842C43.4027 42.6294 43.4361 42.673 43.4715 42.7154C43.4788 42.7245 43.4862 42.7334 43.4936 42.7422C43.5808 42.8435 43.6764 42.9356 43.7795 43.0184C43.7888 43.0257 43.7982 43.0328 43.8073 43.04C43.8512 43.0739 43.8962 43.1062 43.9423 43.1367C43.9529 43.1438 43.9635 43.1511 43.9742 43.1579C44.0295 43.1931 44.0858 43.2262 44.1436 43.2564C44.1497 43.2595 44.156 43.2621 44.1619 43.2652C44.2132 43.2911 44.2653 43.3149 44.3182 43.337C44.3354 43.3441 44.3528 43.3511 44.3704 43.3577C44.419 43.3766 44.4683 43.3937 44.5183 43.4093C44.5309 43.4133 44.5433 43.4177 44.556 43.4215C44.619 43.4398 44.6827 43.4552 44.7472 43.4681C44.7509 43.4688 44.7544 43.4701 44.7581 43.4708L52.4162 44.9576C52.5638 44.9863 52.7108 45 52.8556 45C53.8857 45 54.8076 44.3033 55.0193 43.2947C55.2609 42.1439 54.4867 41.023 53.2906 40.7907L51.2089 40.3866C56.8344 36.1405 60.2542 29.5849 60.2542 22.5004C60.2542 13.463 54.6902 5.28492 46.0793 1.66552C44.9614 1.1955 43.6584 1.68635 43.1698 2.76212C42.6811 3.83789 43.192 5.09065 44.3104 5.56066Z" fill="#FFFCFC"/>
</svg>
