<svg width="28" height="27" viewBox="0 0 28 27" fill="none" xmlns="http://www.w3.org/2000/svg">
<g filter="url(#filter0_d)">
<path d="M16.6677 8.67063L12.7118 5.9462C12.5666 5.84649 12.3739 5.83148 12.2148 5.90896C12.0544 5.98584 11.9542 6.142 11.9542 6.31078V11.7579C11.9542 11.9284 12.0544 12.084 12.2148 12.1609C12.2826 12.1933 12.3568 12.2095 12.4316 12.2095C12.5292 12.2095 12.6281 12.1801 12.7118 12.1218L16.6677 9.39979C16.7926 9.3127 16.8655 9.17816 16.8655 9.03521C16.8661 8.88986 16.7913 8.75592 16.6677 8.67063Z" fill="#056DAE"/>
<path d="M13.5258 0C8.26399 0 4 4.03981 4 9.025C4 14.0084 8.26399 18.047 13.5258 18.047C18.7864 18.047 23.051 14.0078 23.051 9.025C23.0516 4.03981 18.7864 0 13.5258 0ZM13.5258 16.5412C9.14392 16.5412 5.59123 13.1771 5.59123 9.025C5.59123 4.87468 9.14392 1.50637 13.5258 1.50637C17.9071 1.50637 21.4591 4.87408 21.4591 9.025C21.4598 13.1771 17.9071 16.5412 13.5258 16.5412Z" fill="#056DAE"/>
</g>
<defs>
<filter id="filter0_d" x="0" y="0" width="27.051" height="26.047" filterUnits="userSpaceOnUse" color-interpolation-filters="sRGB">
<feFlood flood-opacity="0" result="BackgroundImageFix"/>
<feColorMatrix in="SourceAlpha" type="matrix" values="0 0 0 0 0 0 0 0 0 0 0 0 0 0 0 0 0 0 127 0"/>
<feOffset dy="4"/>
<feGaussianBlur stdDeviation="2"/>
<feColorMatrix type="matrix" values="0 0 0 0 0 0 0 0 0 0 0 0 0 0 0 0 0 0 0.25 0"/>
<feBlend mode="normal" in2="BackgroundImageFix" result="effect1_dropShadow"/>
<feBlend mode="normal" in="SourceGraphic" in2="effect1_dropShadow" result="shape"/>
</filter>
</defs>
</svg>
