<?xml version="1.0" standalone="no"?>
<!DOCTYPE svg PUBLIC "-//W3C//DTD SVG 20010904//EN"
 "http://www.w3.org/TR/2001/REC-SVG-20010904/DTD/svg10.dtd">
<svg version="1.0" xmlns="http://www.w3.org/2000/svg"
 width="523.000000pt" height="523.000000pt" viewBox="0 0 523.000000 523.000000"
 preserveAspectRatio="xMidYMid meet">
<metadata>
Created by potrace 1.11, written by Peter Selinger 2001-2013
</metadata>
<g transform="translate(0.000000,523.000000) scale(0.100000,-0.100000)"
fill="#000000" stroke="none">
<path d="M1914 5170 c-71 -16 -241 -79 -344 -128 -19 -9 -37 -17 -40 -17 -11
-1 -256 -128 -282 -146 -14 -11 -29 -19 -32 -19 -5 0 -101 -60 -131 -82 -5 -4
-46 -34 -90 -67 -44 -32 -98 -75 -120 -95 -22 -19 -43 -36 -47 -36 -5 0 -8 -5
-8 -11 0 -7 -8 -19 -18 -28 -45 -39 -121 -198 -137 -286 -7 -40 -7 -132 0
-170 14 -69 59 -177 87 -206 7 -8 40 -50 73 -94 33 -44 63 -82 66 -85 3 -3 41
-51 84 -108 63 -82 76 -105 64 -113 -8 -5 -16 -9 -19 -10 -23 -4 -40 -9 -74
-24 -22 -9 -47 -18 -57 -20 -9 -2 -36 -12 -61 -23 -24 -12 -57 -24 -73 -28
-17 -4 -46 -14 -65 -23 -19 -8 -37 -15 -40 -16 -3 0 -57 -19 -120 -41 -63 -23
-137 -47 -165 -53 -187 -45 -306 -176 -352 -391 -16 -75 -8 -454 12 -575 22
-132 27 -156 60 -280 62 -236 127 -396 202 -498 138 -190 315 -288 440 -246
21 7 43 14 48 15 6 1 37 10 70 20 33 10 65 19 70 20 30 9 88 25 150 43 39 11
97 27 130 36 33 9 79 23 103 31 23 8 46 14 51 14 4 0 8 -195 8 -432 0 -238 3
-451 7 -473 27 -155 169 -277 421 -363 52 -17 74 -24 130 -38 56 -14 238 -44
295 -50 25 -2 70 -6 100 -9 159 -16 421 -23 480 -13 25 3 63 9 85 13 123 19
254 82 346 166 73 67 143 199 165 307 2 12 7 34 11 50 3 15 8 137 10 272 3
135 6 246 8 248 3 3 159 -56 222 -84 17 -8 34 -14 37 -14 7 0 270 -103 321
-125 134 -59 311 -73 435 -36 223 68 495 383 633 736 36 90 91 272 102 332 3
18 12 62 20 98 9 35 14 68 13 72 -1 4 1 22 5 38 45 210 19 347 -85 453 -41 42
-168 112 -202 112 -14 0 -123 41 -211 79 -11 5 -51 21 -90 36 -38 15 -83 33
-100 40 -16 7 -51 21 -77 32 l-47 19 155 195 c86 106 172 214 192 238 75 89
93 121 153 265 55 131 61 153 55 193 -6 42 -71 222 -85 233 -3 3 -19 31 -36
63 -66 128 -257 347 -420 482 -33 28 -65 55 -72 61 -6 6 -56 44 -110 85 -54
41 -99 77 -101 82 -2 4 -10 7 -17 7 -7 0 -15 3 -17 8 -4 11 -96 75 -150 105
-74 41 -175 69 -263 72 -155 6 -257 -48 -394 -211 -45 -54 -95 -113 -110 -129
-14 -17 -53 -62 -86 -100 -33 -38 -76 -87 -96 -109 l-36 -38 -54 73 c-29 41
-56 76 -59 79 -3 3 -25 32 -49 65 -25 33 -47 62 -50 65 -4 3 -53 68 -111 145
-57 77 -109 146 -114 154 -13 16 -99 102 -118 117 -35 28 -109 63 -164 77 -79
20 -221 19 -320 -3z m840 -794 c17 -3 56 -8 87 -12 31 -3 62 -10 69 -14 8 -5
-20 -47 -88 -131 -64 -79 -108 -144 -122 -179 -11 -30 -27 -68 -34 -85 -8 -16
-24 -58 -37 -92 -13 -35 -28 -63 -34 -63 -5 1 -37 46 -70 102 -70 117 -86 136
-140 169 -35 21 -51 24 -135 23 -52 -1 -115 -7 -140 -13 -39 -10 -199 -97
-280 -150 -26 -18 -108 -61 -115 -61 -2 0 -20 28 -41 63 -21 34 -44 72 -51 84
-13 20 -11 24 34 57 26 20 53 39 58 44 6 4 17 11 25 15 19 9 53 30 60 38 5 5
180 93 190 95 3 0 19 6 35 13 17 6 41 16 55 21 14 6 34 12 45 15 11 3 45 12
75 20 30 9 69 18 85 20 17 3 41 7 55 10 14 3 59 9 100 12 41 3 76 6 77 7 5 4
207 -3 237 -8z m1065 -481 c30 -27 61 -58 70 -68 9 -10 35 -39 59 -65 85 -94
131 -176 233 -417 55 -132 120 -286 144 -342 24 -57 41 -103 37 -103 -4 0 -50
16 -102 36 -146 55 -172 63 -215 68 -59 7 -202 18 -263 21 -29 1 -55 5 -58 8
-6 6 34 69 48 75 4 2 8 8 8 14 0 6 13 27 28 47 16 20 45 59 64 88 34 49 35 55
27 100 -11 60 -43 135 -80 191 -16 24 -29 45 -29 47 0 3 -14 21 -68 83 -12 15
-59 64 -103 108 l-81 81 58 86 58 86 56 -47 c30 -26 79 -69 109 -97z m-1185
-206 c-9 -16 61 -204 99 -262 21 -34 43 -63 48 -65 5 -2 9 -8 9 -13 0 -11 132
-139 143 -139 4 0 18 -9 30 -20 30 -29 227 -124 317 -155 88 -30 270 -75 302
-75 21 -1 20 -3 -12 -32 -169 -150 -246 -249 -303 -390 -51 -130 -57 -160 -61
-308 -4 -131 9 -247 39 -345 l13 -43 -97 49 c-92 47 -241 104 -241 92 0 -3 -7
0 -15 7 -8 7 -15 10 -15 8 0 -3 -30 1 -67 8 -104 20 -261 16 -397 -10 -66 -12
-202 -61 -291 -105 l-96 -47 6 41 c2 22 7 51 10 65 22 108 23 346 1 440 -4 14
-9 38 -11 54 -11 56 -65 182 -107 246 -54 83 -153 181 -247 242 l-74 48 74 1
c41 0 81 2 89 4 8 2 31 6 50 9 321 58 662 349 771 658 13 38 27 62 31 55 3 -6
5 -14 2 -18z m-1534 -250 c0 -9 8 -21 38 -54 6 -7 12 -18 12 -24 0 -6 5 -11
10 -11 6 0 10 -4 10 -10 0 -8 66 -108 130 -196 8 -12 58 -52 110 -88 52 -37
97 -69 98 -71 2 -2 -47 -19 -110 -39 -128 -40 -170 -68 -211 -144 -47 -86 -60
-186 -43 -337 6 -57 9 -82 21 -142 12 -59 16 -73 25 -97 7 -20 5 -27 -15 -40
-13 -9 -29 -16 -34 -16 -6 0 -25 -8 -43 -18 -18 -10 -47 -23 -64 -29 -31 -11
-31 -10 -54 41 -52 117 -80 202 -94 286 -3 19 -8 46 -11 60 -6 28 -7 226 -1
281 7 63 17 122 33 184 8 33 16 67 18 75 13 59 86 249 143 371 15 34 32 43 32
18z m3037 -1262 c32 -18 73 -39 90 -46 36 -14 37 -22 12 -91 -20 -54 -129
-273 -146 -292 -9 -10 -13 -18 -9 -18 4 0 2 -6 -4 -12 -5 -7 -34 -47 -63 -88
-102 -145 -199 -243 -346 -350 -38 -27 -74 -50 -80 -50 -6 0 -11 -4 -11 -10 0
-5 -4 -10 -9 -10 -5 0 -40 -18 -78 -39 -37 -21 -71 -37 -75 -35 -4 3 -7 96 -7
207 0 111 -3 213 -6 227 -3 14 -7 36 -10 49 -7 39 -45 105 -73 128 l-27 23 35
-11 c19 -5 42 -12 51 -14 8 -2 32 -10 52 -19 21 -8 38 -15 40 -14 1 0 26 -7
56 -16 30 -9 69 -16 88 -16 30 0 105 24 128 42 56 43 168 145 187 171 36 47
84 153 103 227 10 36 19 71 21 78 5 18 16 15 81 -21z m-2142 -589 c-1 -95 2
-190 7 -211 32 -130 249 -211 574 -216 l50 -1 0 -100 c0 -76 -3 -101 -14 -105
-8 -3 -73 -3 -146 -1 -126 3 -307 35 -331 57 -5 5 -19 9 -31 9 -13 0 -26 5
-29 10 -3 6 -13 10 -22 10 -53 0 -435 227 -529 315 -6 5 -29 25 -52 43 -80 65
-86 71 -71 75 8 2 30 9 49 15 19 6 53 14 75 18 22 4 45 9 50 13 12 6 18 8 64
16 126 24 211 72 301 173 25 27 48 50 51 51 4 1 5 -77 4 -171z"/>
</g>
</svg>
